<?xml version="1.0" encoding="utf-8"?>
<!-- Generator: Adobe Illustrator 23.1.0, SVG Export Plug-In . SVG Version: 6.00 Build 0)  -->
<svg version="1.1" id="Layer_1" xmlns="http://www.w3.org/2000/svg" xmlns:xlink="http://www.w3.org/1999/xlink" x="0px" y="0px"
	 viewBox="0 0 637.6 261.3" style="enable-background:new 0 0 637.6 261.3;" xml:space="preserve">
<g>
	<g>
		<path d="M21.2,0.2c0,2.1-0.2,4.1-0.3,6.1c-0.1,2.2,0,4.4,0.1,6.6c0.2,4.1,0.3,8.2,0.4,12.3c0.3,8.3,0.6,16.7,0.9,25
			c0.5,16.7,0.8,33.4,1,50.1c0.3,33.4-0.1,66.8-1.1,100.2c-0.3,9.4-0.4,18.7-0.8,28.1c-0.3,9.4-0.9,18.7-0.9,28.1
			c0,0.8,1.2,0.8,1.3,0c1.8-16.6,2.2-33.4,3.1-50c0.9-16.7,1.1-33.4,1.3-50.1c0.4-33.4,0.1-66.8-1-100.2c-0.3-9.4-0.7-18.7-1.2-28.1
			c-0.2-4.6-0.5-9.2-0.8-13.8c-0.1-2.3-0.2-4.6-0.5-6.9c-0.3-2.5-0.9-4.9-1.1-7.4C21.7-0.1,21.2-0.1,21.2,0.2L21.2,0.2z"/>
	</g>
</g>
<g>
	<g>
		<path d="M0.6,33.2c10.2,1.2,20.4,1.2,30.7,1.5C41.5,35,51.8,35.3,62,35.5c20.6,0.4,41.2,0.8,61.8,1.1c41.5,0.7,82.9,1.2,124.4,1.7
			c41.8,0.5,83.6,0.9,125.4,1.4c41.5,0.4,83,0.8,124.5,0.9c41.1,0.1,82.3,0.2,123.4,0.2c5.1,0,10.2,0,15.3-0.1c1,0,1-1.5,0-1.6
			c-41.1-1.3-82.2-1.5-123.3-2c-41.5-0.5-82.9-0.9-124.4-1.3c-41.8-0.4-83.6-0.7-125.4-1.2c-41.5-0.4-83-1-124.5-1.5
			C98.2,32.6,57.1,32,15.9,31.5C10.8,31.4,5.7,31.6,0.6,32C-0.2,32.1-0.2,33.2,0.6,33.2L0.6,33.2z"/>
	</g>
</g>
<g>
	<g>
		<path d="M5.4,238.3c39.7,0.4,79.5-1.3,119.2-1.9c40.2-0.7,80.4-1,120.6-1.2c40.4-0.1,80.7,0,121.1,0.5
			c40.8,0.5,81.6,1.3,122.4,2.4c41.5,1.1,83,2.2,124.6,3.4c5.2,0.1,10.4,0.3,15.5,0.5c1.4,0,1.4-2.1,0-2.2
			c-41.4-2.6-82.7-4.8-124.2-6.1c-41.1-1.2-82.1-2.1-123.2-2.6c-40.4-0.5-80.8-0.7-121.2-0.5c-40.1,0.1-80.1,0.6-120.2,1.3
			c-39.9,0.7-80,1.2-119.9,3.5c-4.9,0.3-9.9,0.5-14.8,0.8C4.1,236.3,4,238.3,5.4,238.3L5.4,238.3z"/>
	</g>
</g>
<g>
	<g>
		<path d="M616.9,14c-0.9,3.9-1,7.9-1.3,11.9c-0.2,4-0.4,8-0.6,12c-0.4,8.1-0.7,16.1-1,24.2c-0.6,16-1.2,31.9-1.5,47.9
			c-0.8,31.9-1.2,63.8-1.3,95.8c0,9,0,18,0,26.9c0,4.5,0,9,0.1,13.5c0,4.5-0.1,9,0.2,13.5c0.2,2.4,3.8,2.4,3.8,0
			c-0.1-3.8-0.6-7.7-0.8-11.5c-0.1-0.9-1.3-0.9-1.4,0c-0.5,3.8-1.2,7.7-1.5,11.5c1.3,0,2.5,0,3.8,0c0.2-4.1,0-8.2-0.1-12.2
			c0-4-0.1-8-0.1-12c-0.1-8.1-0.1-16.1-0.1-24.2c0-16,0-31.9,0.2-47.9c0.3-31.9,1-63.8,1.9-95.7c0.3-9,0.5-17.9,0.9-26.9
			c0.2-4.5,0.3-9,0.4-13.5c0.1-2.2,0.1-4.3,0.2-6.5c0.1-2.3-0.1-4.4-0.4-6.7C618.1,13.3,617.1,13.4,616.9,14L616.9,14z"/>
	</g>
</g>
</svg>
