<?xml version="1.0" encoding="utf-8"?>
<!-- Generator: Adobe Illustrator 23.1.0, SVG Export Plug-In . SVG Version: 6.00 Build 0)  -->
<svg version="1.1" id="Box" xmlns="http://www.w3.org/2000/svg" xmlns:xlink="http://www.w3.org/1999/xlink" x="0px" y="0px"
	 viewBox="0 0 637.6 268.8" style="enable-background:new 0 0 637.6 268.8;" xml:space="preserve">
<style type="text/css">
	.st0{fill:#EFEFEF;}
</style>
<g id="Fill">
	<path class="st0" d="M603.6,235.3c-197.3-8.5-387.9-8.6-576.1-3.1c0.4-67.9-0.7-135.7-3.4-203.5c191.4,3.5,389,5,580.5,6.5
		C605.2,101.9,604.9,168.6,603.6,235.3z"/>
</g>
<g id="Bottom">
	<g>
		<path d="M5.4,233.9c39.7,0.4,79.5-1.3,119.2-1.9c40.2-0.7,80.4-1,120.6-1.2c40.4-0.1,80.7,0,121.1,0.5
			c40.8,0.5,81.6,1.3,122.4,2.4c41.5,1.1,83,2.2,124.6,3.4c5.2,0.1,10.4,0.3,15.5,0.5c1.4,0,1.4-2.1,0-2.2
			c-41.4-2.6-82.7-4.8-124.2-6.1c-41.1-1.2-82.1-2.1-123.2-2.6c-40.4-0.5-80.8-0.7-121.2-0.5c-40.1,0.1-80.1,0.6-120.2,1.3
			c-39.9,0.7-80,1.2-119.9,3.5c-4.9,0.3-9.9,0.5-14.8,0.8C4.1,231.9,4,233.9,5.4,233.9L5.4,233.9z"/>
	</g>
</g>
<g id="Top">
	<g>
		<path d="M0.6,28.8C10.8,30,21,30.1,31.3,30.3c10.3,0.2,20.5,0.5,30.8,0.7c20.6,0.4,41.2,0.8,61.8,1.1c41.5,0.7,82.9,1.2,124.4,1.7
			c41.8,0.5,83.6,0.9,125.4,1.4c41.5,0.4,83,0.8,124.5,0.9c41.1,0.1,82.3,0.2,123.4,0.2c5.1,0,10.2,0,15.3-0.1c1,0,1-1.5,0-1.6
			c-41.1-1.3-82.2-1.5-123.3-2c-41.5-0.5-82.9-0.9-124.4-1.3c-41.8-0.4-83.6-0.7-125.4-1.2c-41.5-0.4-83-1-124.5-1.5
			c-41.1-0.5-82.3-1.1-123.4-1.6C10.8,27,5.7,27.2,0.6,27.6C-0.2,27.7-0.2,28.7,0.6,28.8L0.6,28.8z"/>
	</g>
</g>
<g id="Right">
	<g>
		<path d="M603.7,0.6c-0.7,8.7-0.6,17.4-0.6,26.2c0,8.7,0,17.4,0,26.2c0,17.4-0.1,34.9-0.1,52.3c-0.1,34.7-0.6,69.4-1,104.1
			c-0.1,9.8-0.3,19.6-0.4,29.4c-0.2,9.8,0.3,19.6,0.6,29.4c0,1,1.4,1,1.5,0c0.7-8.7,1.6-17.4,1.8-26.2c0.2-8.7,0.4-17.4,0.5-26.2
			c0.3-17.4,0.5-34.9,0.6-52.3c0.3-34.7,0.2-69.4-0.1-104.1c-0.1-9.8-0.2-19.6-0.3-29.4C606,20.2,606,10.4,605,0.6
			C604.9-0.2,603.7-0.2,603.7,0.6L603.7,0.6z"/>
	</g>
</g>
<g id="Left">
	<g>
		<path d="M22.6,4.6c-0.8,8.2-0.1,16.6,0.1,24.8c0.2,8.3,0.5,16.6,0.7,24.8c0.5,16.6,0.9,33.1,1.2,49.7c0.7,33,1,65.9,1,98.9
			c0,9.3,0,18.6,0,27.9c0,4.6,0.2,9.1,0.2,13.7c0.1,4.7,0.1,9.5,0.5,14.2c0.1,1.2,1.7,1.1,1.8,0c0.4-4.2,0.6-8.4,0.8-12.7
			c0.1-4.1,0.4-8.1,0.4-12.2c0.1-8.3,0.2-16.6,0.2-24.8c0-16.6-0.1-33.1-0.2-49.7c-0.4-33.1-1.1-66.3-2.3-99.4
			c-0.4-9.3-0.7-18.6-1.2-27.9c-0.2-4.6-0.5-9.1-0.7-13.7c-0.3-4.6-0.5-9.3-1.4-13.8C23.5,3.8,22.6,4,22.6,4.6L22.6,4.6z"/>
	</g>
</g>
</svg>
