<?xml version="1.0" encoding="utf-8"?>
<!-- Generator: Adobe Illustrator 23.1.0, SVG Export Plug-In . SVG Version: 6.00 Build 0)  -->
<svg version="1.1" id="Layer_1" xmlns="http://www.w3.org/2000/svg" xmlns:xlink="http://www.w3.org/1999/xlink" x="0px" y="0px"
	 viewBox="0 0 138.5 88.1" style="enable-background:new 0 0 138.5 88.1;" xml:space="preserve">
<g id="YAwS">
	<path d="M125.3,35.2c-1.6,0-3.1,0.6-4.3,1.8c-1.2,1.2-1.8,2.7-1.8,4.4c0,1.3,0.3,2.7,1,4c0.6,1.3,1.7,2.8,3.2,4.5l7.3,8.5
		c2.1,2.4,3.7,4.5,4.8,6.2c1.1,1.8,1.9,3.4,2.4,5c0.5,1.6,0.7,3.4,0.7,5.4c0,2.4-0.6,4.5-1.8,6.4c-1.2,1.9-2.8,3.5-4.8,4.6
		c-2,1.2-4.2,1.7-6.7,1.7c-1.8,0-3.2-0.2-4.3-0.5c-1.1-0.3-2-0.7-2.6-1c-0.6-0.3-1.2-0.5-1.7-0.5c-0.5,0-0.9,0.1-1.4,0.4
		c-0.4,0.3-0.7,0.6-0.8,0.9h-2.5V71.8h2.4c0.7,3.8,1.9,6.9,3.6,9c1.7,2.2,3.7,3.3,6,3.3c2,0,3.6-0.7,4.8-2c1.2-1.3,1.8-3.2,1.8-5.5
		c0-1.9-0.5-3.8-1.4-5.7c-0.9-1.9-2.4-4-4.4-6.3l-6-7c-2.5-2.9-4.2-5.4-5.3-7.5c-1-2-1.5-4.2-1.5-6.5c0-2,0.6-3.9,1.8-5.6
		c1.2-1.7,2.8-3.1,4.7-4.2c1.9-1.1,4-1.6,6.2-1.6c1.8,0,3.1-0.1,3.9-0.4s1.3-0.8,1.7-1.6h2.4l3.2,13l-2.4,0.6
		c-0.9-2.4-1.8-4.2-2.5-5.5c-0.8-1.2-1.6-2.1-2.4-2.6C127.7,35.5,126.6,35.2,125.3,35.2z"/>
	<path d="M101.9,53.6c0.3-1,0-1.7-0.7-2.3c-0.8-0.6-2-0.9-3.6-0.9v-2.2h11.8v2.2c-1.2,0-2.2,0.2-2.9,0.7c-0.7,0.5-1.2,1.3-1.6,2.4
		L94.1,88.1h-1.9l-8.6-28.2l-8.2,28.2h-1.9L62.3,53.4c-0.4-1.2-0.9-2.1-1.5-2.4c-0.6-0.4-1.6-0.6-3-0.6v-2.2H74v2.2
		c-3.5,0-5,1-4.4,3l6.6,21.9l5.9-20.8c0.3-1.2,0.1-2.2-0.7-2.9c-0.8-0.7-1.9-1.1-3.4-1.1v-2.2h15l0.1,2.2c-3.6,0-5,1-4.5,3l6.4,21.7
		L101.9,53.6z"/>
	<path d="M37.2,81.2c-0.2,1,0.1,1.8,0.8,2.3c0.7,0.6,1.9,0.8,3.5,0.8v2.7h-12v-2.7c1.4,0,2.4-0.2,3.1-0.7c0.7-0.5,1.1-1.3,1.4-2.4
		l10.8-49.2h3.5l11.2,49.3c0.2,1.2,0.7,2,1.3,2.4c0.6,0.4,1.6,0.6,3.1,0.6v2.7H47v-2.7c1.7,0,2.9-0.2,3.6-0.7
		c0.7-0.5,0.9-1.2,0.7-2.3l-1.5-7.3H38.7L37.2,81.2z M39.4,71.3h9.8l-4.8-23L39.4,71.3z"/>
	<path d="M9.9,84.4c2.5,0,4-0.7,4.2-2.2V64.9L4.3,38.8c-0.5-1.2-1-2-1.6-2.4c-0.6-0.4-1.5-0.6-2.7-0.6v-2.7h16.9v2.7
		c-1.6,0-2.8,0.3-3.6,0.8c-0.8,0.6-1,1.3-0.7,2.2l7.6,21.3l7.1-21.2c0.3-1,0.1-1.7-0.6-2.3c-0.8-0.6-2-0.9-3.7-0.9v-2.7h12.2v2.7
		c-1.3,0-2.3,0.2-2.9,0.6c-0.6,0.4-1.2,1.3-1.6,2.5l-8.4,24.8v17.6h0.1c0,1.1,0.3,1.9,1,2.4c0.7,0.5,1.8,0.7,3.3,0.7v2.7H9.9V84.4z"
		/>
</g>
<g id="_x2D_Aw-">
	<path d="M119.3,21.4c-0.8,0.3-1.5,0.4-2.2,0.4c-0.7,0-1.3,0.1-2,0.1c-0.3-0.1-0.5-0.1-0.7-0.2c-0.2,0-0.3-0.1-0.4-0.3
		c-0.4,0.1-0.8,0.2-1.3,0.3c-0.5,0.1-0.9,0.1-1.3-0.2c-0.1,0.2-0.3,0.3-0.6,0.3c-0.3,0-0.5,0-0.7,0c-0.2,0.1-0.3,0.2-0.6,0.2
		s-0.4,0-0.6-0.1c-0.1,0.1-0.2,0.2-0.3,0.1c-0.1-0.1-0.2-0.1-0.4-0.1c-0.1-0.1-0.1-0.2-0.2-0.4c-0.1-0.2-0.1-0.4,0-0.6
		c0,0,0.1,0,0.2,0.1c0,0,0.1,0.1,0.3,0c0.3-0.3,0.5-0.4,0.7-0.5c0.2-0.1,0.3,0,0.5,0.1c0.2-0.2,0.4-0.2,0.7-0.1
		c0.2,0.1,0.5,0,0.7-0.1c0,0.1,0.1,0.1,0.2,0c0.1-0.1,0.2-0.1,0.4-0.1c0.1,0,0.2,0,0.3,0c0.1,0.1,0.2,0.1,0.2,0
		c0.1,0,0.3-0.1,0.4-0.2c0.1-0.1,0.3-0.1,0.4-0.2c0.3,0,0.7,0,1,0.1c0.1-0.2,0.3-0.3,0.5-0.3c0.2,0,0.4,0,0.6,0
		c0.1-0.1,0.2-0.2,0.3-0.1c0.1,0,0.3,0.1,0.4,0c0.4,0,0.7,0,1,0.1c0.3,0.1,0.6,0.1,0.8,0c0.3,0.1,0.5,0.1,0.7,0
		c0.2-0.1,0.3-0.2,0.5-0.1c0,0.1,0.1,0.2,0.2,0.3c0.1,0.1,0.1,0.2,0.2,0.4c-0.1,0.3-0.1,0.5-0.1,0.6
		C119.3,21.2,119.3,21.3,119.3,21.4z"/>
	<path d="M110.3,13.2c-0.3,0.1-0.5,0.2-0.8,0.3c-0.3,0.1-0.6,0.1-0.9,0c-0.1,0.1-0.2,0.2-0.3,0.3c-0.1,0.1-0.2,0.2-0.2,0.4
		c-0.2-0.1-0.3,0-0.4,0.3s-0.2,0.4-0.4,0.5c0,0.2,0,0.4,0,0.5c-0.1,0.1-0.1,0.2-0.2,0.3c-0.1,0.1-0.1,0.2-0.2,0.3
		c-0.1,0.1-0.1,0.3-0.1,0.5c-0.1,0.1-0.2,0.2-0.2,0.4c0,0.2-0.1,0.4-0.2,0.5c0,0.2,0,0.3,0,0.3c-0.1,0.1-0.1,0.2,0,0.3
		c-0.1,0.2-0.1,0.3-0.2,0.5c-0.1,0.2-0.1,0.4-0.1,0.7c-0.2,0.2-0.4,0.4-0.4,0.8c0,0.4-0.1,0.6-0.3,0.8c-0.1,0.4-0.1,0.7-0.2,1
		c-0.1,0.3-0.2,0.6-0.3,0.8c0,0.1,0,0.2,0,0.3c0,0.1,0,0.1,0,0.2c-0.2,0.2-0.3,0.4-0.4,0.7c-0.1,0.3-0.2,0.6-0.1,0.9
		c-0.1,0.1-0.2,0.2-0.2,0.3c-0.1,0.1-0.1,0.3-0.1,0.4c0,0.2-0.1,0.3-0.1,0.4c-0.1,0.1-0.1,0.2-0.3,0.3c0,0.2,0,0.4,0,0.4
		c-0.1,0-0.1,0.2,0,0.4c-0.2,0.4-0.3,0.7-0.4,1.1c-0.1,0.4-0.2,0.7-0.4,1c-0.1,0.3-0.2,0.5-0.2,0.7c0,0.2,0,0.4,0,0.6
		c-0.3,0.5-0.5,0.8-0.6,1c-0.1,0.2-0.1,0.5,0,0.9c-0.2,0.4-0.4,0.8-0.5,1.1c-0.1,0.3-0.2,0.8-0.3,1.3c0,0.1,0,0.3-0.1,0.5
		c-0.1,0.2-0.2,0.4-0.2,0.6c-0.1,0-0.2,0-0.3,0c-0.1,0-0.1,0-0.3,0.1c0,0.1,0,0.2,0,0.2c0,0.1,0,0.2,0,0.3c-0.3-0.2-0.5-0.3-0.6-0.5
		c-0.1-0.1-0.1-0.4-0.1-0.8c-0.1-0.4-0.3-0.8-0.4-1.2c-0.1-0.5-0.2-0.9-0.3-1.4c-0.1-0.1-0.2-0.2-0.2-0.3c0-0.1-0.1-0.2-0.2-0.3
		c-0.2-0.4-0.3-0.8-0.4-1.1c0-0.3-0.1-0.6-0.1-0.9c-0.1-0.2-0.1-0.4-0.3-0.6c-0.1-0.2-0.2-0.4-0.1-0.6c-0.1-0.2-0.2-0.4-0.5-0.4
		c-0.1-0.2,0-0.4,0-0.7c0.1-0.2,0.2-0.3,0.3-0.3c0-0.1,0-0.3-0.1-0.5s-0.1-0.4,0-0.6c-0.1-0.2-0.2-0.4-0.3-0.6
		c-0.1-0.2-0.2-0.4-0.2-0.6c0-0.4,0.1-0.7,0-0.8c0-0.1-0.1-0.3-0.1-0.6c-0.1-0.3-0.2-0.6-0.4-0.8c-0.2-0.3-0.3-0.6-0.2-0.9
		c0-0.2-0.1-0.3-0.2-0.5c-0.1-0.2-0.1-0.3,0-0.5c-0.1,0.1-0.1,0.2-0.2,0.2c-0.1,0-0.2,0-0.2-0.1c-0.2,0.4-0.3,0.7-0.5,1.1
		c-0.2,0.4-0.3,0.8-0.3,1.3c-0.3,0.6-0.6,1.2-0.8,1.8c-0.2,0.6-0.3,1.2-0.4,1.9c-0.1,0.5-0.1,0.9-0.3,1.3c-0.1,0.3-0.2,0.7-0.1,1
		c-0.2,1-0.4,2-0.6,3c-0.2,0.9-0.3,1.8-0.3,2.7c-0.2,0.6-0.4,1.2-0.5,1.7c-0.1,0.5-0.3,1-0.6,1.3c-0.3,0.1-0.6,0-0.8-0.2
		c-0.2-0.2-0.4-0.6-0.4-1c-0.3-0.6-0.6-1.2-0.7-1.9c-0.1-0.7-0.4-1.4-0.7-2c-0.2,0.1-0.3,0.1-0.5,0c0-0.1,0-0.2,0-0.3
		c0-0.1,0-0.2,0-0.3c0-0.6,0-1.1,0-1.4c-0.1-0.4-0.2-0.8-0.3-1.3C88,30.3,88,30.1,87.9,30s-0.1-0.3-0.2-0.5c-0.1-0.3,0-0.5,0.1-0.6
		c-0.1-0.1-0.1-0.2-0.2-0.3c0-0.1-0.1-0.2-0.1-0.3c-0.1,0-0.2,0-0.3-0.1c-0.1-0.1-0.1-0.1-0.2-0.2c0.2-0.5,0.2-0.8,0.1-0.9
		c-0.1-0.1-0.2-0.3-0.3-0.4c0-0.3-0.1-0.5-0.2-0.6c-0.1-0.1-0.2-0.2-0.2-0.3c0-0.3,0-0.4,0-0.5c-0.1,0-0.1-0.1-0.2-0.2
		c-0.1-0.4-0.1-0.5-0.2-0.5c-0.1,0-0.2,0-0.2,0c-0.1-0.4-0.2-0.6-0.2-0.8c0.2-0.2,0.2-0.3,0.1-0.6c-0.1-0.2,0-0.4,0.1-0.6
		c-0.3-0.2-0.5-0.2-0.6-0.1c-0.1,0.1-0.2,0.1-0.4,0.1c-0.1-0.2-0.1-0.3,0-0.4c0-0.1,0.1-0.2,0.2-0.4c0.1-0.1,0.1-0.3,0.2-0.4
		s0.1-0.3,0.1-0.5c-0.1-0.1-0.1-0.3-0.2-0.5c-0.1-0.2-0.1-0.4-0.2-0.7c-0.1-0.2-0.1-0.4-0.2-0.5c-0.1-0.1-0.3-0.2-0.6-0.2
		c0-0.2,0-0.3,0.1-0.3c0.1,0,0.1-0.1,0.2-0.1c-0.1-0.1-0.1-0.2-0.1-0.3c0-0.1,0-0.2,0.1-0.3c-0.2-0.5-0.3-0.9-0.4-1.3
		c0-0.4-0.2-0.8-0.5-1.2c0-0.2,0-0.4-0.1-0.6c-0.1-0.2-0.3-0.4-0.4-0.4c-0.3,0.1-0.4,0.2-0.4,0.1c0-0.1-0.1-0.1-0.2-0.1
		c-0.2-0.5-0.3-0.6-0.6-0.6c-0.2,0.1-0.5,0.1-0.8,0.1c0-0.2-0.1-0.3-0.2-0.5c-0.1-0.1-0.2-0.3-0.3-0.3c0-0.2,0-0.3,0-0.4
		c0-0.1,0-0.2,0.1-0.3c0.6-0.1,1.2-0.1,1.9,0c0.6,0.1,1.2,0.1,1.8-0.1c0,0,0.1,0,0.2,0c0.1,0,0.2,0,0.2,0.1c0.4-0.1,0.7-0.2,1.1-0.2
		c0.4,0,0.8,0,1.2,0.1c0.4,0,0.8,0.1,1.2,0.1c0.4,0,0.8,0,1.2-0.2c0.2,0.1,0.5,0.1,0.8,0.1c0.3,0,0.6,0.1,0.8,0.2c0,0.2,0,0.3,0,0.3
		c0,0,0,0.1,0,0.3c-0.1-0.1-0.2-0.1-0.3,0c-0.1,0.1-0.1,0.2-0.2,0.4c-0.3,0.1-0.6,0.1-0.8,0.1c-0.2,0-0.4,0-0.6,0
		c-0.1,0.1-0.1,0.2-0.2,0.3c-0.1,0.1-0.1,0.2-0.2,0.2c-0.1,0.2-0.1,0.5-0.1,0.8s0,0.5,0.2,0.7c-0.1,0.4,0,0.6,0.1,0.8
		c0.1,0.2,0.3,0.4,0.5,0.6c0.2,0.9,0.4,1.7,0.5,2.4c0.1,0.7,0.2,1.5,0.3,2.2c0.2,0.2,0.3,0.4,0.2,0.6c-0.1,0.2-0.1,0.5,0,0.7
		c0,0.1,0.1,0.1,0.2,0.2c0.1,0.1,0.2,0.1,0.3,0.1c0,0.9,0,1.6,0.2,2.2c0.2,0.6,0.4,1.1,0.7,1.4c-0.1,0.3-0.1,0.5,0,0.9
		c0,0.3,0.2,0.4,0.5,0.4c0,0.3,0,0.6,0,0.9c0,0.4,0.1,0.7,0.3,0.9c0.1,0,0.1-0.1,0.1-0.2c0-0.1,0-0.2,0-0.3c0.1-0.2,0.2-0.3,0.3-0.5
		c0.1-0.2,0.1-0.4,0-0.6c0.3-1.5,0.7-3,1.1-4.4c0.5-1.4,1-2.8,1.5-4c-0.2-0.5-0.2-0.8-0.2-1.1c0-0.3,0.1-0.5,0.2-0.6
		c-0.3-0.6-0.4-1.1-0.5-1.5c-0.1-0.4-0.2-0.8-0.3-1.1c0-0.2,0-0.3-0.1-0.4c0-0.1,0-0.2,0-0.2c-0.3-0.2-0.4-0.4-0.3-0.5
		c-0.1-0.1-0.1-0.1-0.2-0.2c0-0.1-0.1-0.1-0.2,0c-0.2-0.1-0.4-0.1-0.5-0.2c-0.2,0-0.3-0.1-0.5-0.3c-0.1-0.1-0.2-0.3-0.3-0.5
		c-0.1-0.2,0-0.4,0.2-0.6c0.4,0.2,0.7,0.3,1.1,0.3s0.8,0,1.3-0.1c0.4,0,0.9-0.1,1.3-0.1c0.4,0,0.8,0,1.2,0.2c0.4,0.1,0.6,0.1,0.8,0
		c0.2,0,0.4-0.1,0.7-0.2c0.2-0.1,0.5-0.2,0.7-0.2c0.2-0.1,0.4-0.1,0.6-0.1c0.1,0,0.3,0.1,0.4,0.3c0.2,0.2,0.1,0.4-0.1,0.6
		c-0.3,0-0.4,0.1-0.3,0.3c-0.2,0.1-0.4,0.2-0.6,0.2c-0.2,0-0.4,0.1-0.5,0.2c0,0.2,0,0.3,0,0.3c0,0.1,0,0.1,0.1,0.2
		c-0.1,0.7-0.1,1.2,0,1.4c0.2,0.3,0.2,0.6,0.1,1c0.1,0.1,0.2,0.2,0.2,0.4c0,0.2,0,0.3,0,0.5c0.1,0.2,0.2,0.3,0.3,0.5
		c0.1,0.1,0.2,0.3,0.3,0.5c-0.2,0.2-0.2,0.4-0.2,0.5c0,0.2,0.1,0.3,0.2,0.5c0.1,0.1,0.1,0.3,0.2,0.5c0.1,0.2,0,0.3-0.1,0.5
		c0.1,0.4,0.2,0.8,0.3,1.1c0.1,0.4,0.2,0.7,0.3,1.1c0.3-0.1,0.4,0,0.5,0c0.1,0.1,0.2,0.3,0.3,0.5c-0.1,0.2-0.1,0.3-0.2,0.5
		c-0.1,0.2-0.1,0.3-0.3,0.4c0.1,0.5,0.2,0.9,0.3,1.3c0.1,0.4,0.2,0.8,0.2,1.3c0.5-0.1,0.7-0.3,0.8-0.6c0.1-0.3,0.2-0.7,0.3-1
		c0.3-0.7,0.5-1.3,0.7-1.8c0.2-0.5,0.4-0.9,0.6-1.3c0.2-0.8,0.4-1.6,0.6-2.4c0.2-0.8,0.4-1.5,0.7-2.2c0-0.4,0-0.8,0.1-1.2
		c0-0.4,0-0.7,0-1c0-0.3-0.1-0.6-0.2-0.9c-0.1-0.3-0.2-0.6-0.4-0.8c-0.2-0.1-0.4-0.2-0.4-0.3c-0.1,0.1-0.2,0.2-0.3,0.1
		c-0.1-0.1-0.2-0.1-0.3,0.1c-0.1-0.2-0.3-0.3-0.5-0.4c-0.2-0.1-0.4-0.3-0.4-0.5c0.1-0.1,0.3-0.2,0.5-0.3c0.2-0.1,0.4-0.1,0.7-0.1
		c0.3,0,0.5,0,0.8,0c0.3,0,0.5,0,0.6,0.1c0.3-0.2,0.5-0.2,0.8-0.1c0.3,0.1,0.6,0.1,0.8,0c0.2-0.1,0.3-0.2,0.6-0.2c0.2,0,0.5,0,0.7,0
		c0.3,0,0.5,0.1,0.8,0.1c0.3,0,0.5,0,0.7-0.1c0.1,0.1,0.1,0.1,0.1,0.2s0,0.2,0.1,0.2V13.2z M85,13.5c-0.1-0.1-0.2-0.1-0.4,0
		c-0.1,0.1-0.3,0.2-0.5,0.1c0,0.4,0.1,0.6,0.2,0.4c0.1-0.2,0.3-0.2,0.4-0.1L85,13.5z M85,15.7c-0.1-0.1-0.1,0-0.2,0
		c-0.1,0.1-0.1,0.1-0.2,0c0,0.1,0.1,0.3,0,0.4c0,0.1,0,0.2,0.2,0.2c0-0.2,0.1-0.3,0.1-0.4S85,15.8,85,15.7z M89.2,18.5
		c-0.1-0.1-0.1-0.2-0.2-0.2c-0.1,0-0.1-0.1,0-0.3c-0.3,0.3-0.6,0.5-0.9,0.6c-0.1,0.3-0.2,0.5-0.3,0.6c-0.2,0.1-0.3,0.3-0.5,0.4
		c0-0.1,0.1-0.2,0.1-0.3c0-0.1,0-0.2-0.1-0.3c-0.1,0.4-0.1,0.5-0.2,0.4c0-0.1,0,0,0,0.1c-0.1,0.3-0.2,0.5-0.2,0.6s-0.1,0.2-0.1,0.2
		c0.1-0.4,0.1-0.6,0.2-0.7s0.1-0.2,0.1-0.4c-0.1,0-0.2,0.1-0.3,0.1c-0.1,0.1-0.2,0.1-0.3,0.2c-0.2,0-0.3-0.1-0.3-0.3
		c0-0.2,0.1-0.4,0.3-0.4c0-0.2,0.1-0.4,0.1-0.4c0,0,0.1,0,0.2,0c0.1-0.3,0.2-0.5,0.3-0.5c0.1,0,0.1-0.1,0.1-0.2
		c-0.3,0.2-0.6,0.2-0.7,0.1c-0.1-0.1-0.3,0-0.5,0c0.2-0.4,0.3-0.5,0.3-0.4c0,0.1,0.1,0.1,0.3,0.1c0-0.2,0-0.4,0-0.5
		c0-0.1,0-0.1,0.1-0.1c0.2,0.1,0.3,0.1,0.3,0.2c0.1,0.1,0.1,0,0.1-0.1c0.3,0.2,0.4,0.3,0.5,0.2c0.1,0,0.1-0.2,0.2-0.3
		c-0.1-0.1-0.2-0.1-0.3-0.1c-0.1,0-0.2-0.1-0.3-0.2c0.1-0.1,0.1-0.2,0.2-0.3c0.1-0.1,0.1-0.1,0.2-0.2c0-0.3,0.1-0.4,0.3-0.4
		c0.1,0,0.3,0,0.4-0.1c0-0.2,0-0.3,0.1-0.4c0-0.1,0-0.2,0-0.4c-0.1,0.1-0.1,0.1-0.2,0.2c-0.1,0.1-0.2,0.1-0.3,0.1
		c-0.1,0.2-0.1,0.3-0.1,0.4c0,0.1-0.1,0.1-0.1,0.2c-0.2,0.2-0.4,0.3-0.5,0.3c-0.1,0-0.3,0-0.4,0c-0.1,0.5-0.2,0.7-0.4,0.7
		c-0.2,0-0.3,0.1-0.3,0.3c0.2-0.2,0.2-0.3,0.3-0.5c0-0.1,0.1-0.2,0.3-0.1c0.1-0.4,0.1-0.7,0-0.8c-0.1-0.1,0-0.3,0-0.4
		c0.2,0.1,0.4,0.1,0.4,0c0.1,0,0.1,0,0.3,0c0.1-0.4,0-0.6,0-0.6c-0.1,0-0.1-0.1-0.1-0.2c0.2,0,0.4,0,0.5,0c0.1,0,0.2-0.2,0.3-0.3
		c0.2-0.3,0.3-0.5,0.4-0.4c-0.1-0.4-0.1-0.5-0.2-0.4c-0.1,0.1-0.1,0.1-0.2,0c-0.2,0.1-0.3,0.3-0.4,0.5c-0.1,0.2-0.3,0.3-0.5,0.3
		c-0.1,0.3-0.2,0.4-0.4,0.3c-0.1,0.2-0.1,0.3-0.2,0.4c-0.1,0.1-0.1,0.2-0.1,0.4c-0.2-0.3-0.3-0.4-0.3-0.3c0,0.1-0.1,0.1-0.2,0.1
		c0.2,0.2,0.3,0.3,0.3,0.3c0,0,0.1,0.1,0.1,0.1c-0.2,0.4-0.4,0.6-0.5,0.6c-0.1,0-0.2,0.1-0.1,0.3c-0.1,0.1-0.2,0.1-0.3,0.2
		c-0.1,0.1-0.3,0.1-0.4,0c0,0.4,0.1,0.6,0.3,0.6c0.2,0,0.4,0.1,0.6,0.1c-0.1,0.3-0.1,0.5-0.3,0.5c0,0.4,0.1,0.7,0.1,1.2
		c0.1,0.4,0.2,0.8,0.3,1.2c0.2,0,0.3,0,0.3-0.1c0-0.1,0.1-0.2,0.1-0.3c0,0.2,0.1,0.3,0.1,0.4c0,0,0.1,0.1,0.1,0.1
		c-0.1,0.2-0.1,0.2-0.2,0.1c-0.1-0.1-0.2-0.1-0.2,0c0.1,0.5,0.1,0.6,0.2,0.6c0.1-0.1,0.1-0.2,0.2-0.2c0.3,0,0.5,0,0.7,0
		c-0.1-0.3-0.2-0.4-0.2-0.3c-0.1,0-0.1,0-0.2,0c0.2-0.2,0.4-0.3,0.5-0.2c0.2-0.3,0.3-0.5,0.3-0.5c0-0.1,0-0.1,0-0.2
		c0.1,0,0.2,0,0.3,0c0,0,0.1,0,0.2,0c0-0.3,0.1-0.4,0.3-0.5c0.2-0.1,0.3-0.2,0.3-0.3c0.2-0.2,0.3-0.3,0.4-0.3
		C89,18.5,89.1,18.5,89.2,18.5z M85.8,13.5c-0.1-0.1-0.2-0.1-0.4-0.1c-0.2,0-0.2,0.2-0.2,0.5c0.2-0.1,0.4-0.1,0.4-0.2
		C85.6,13.6,85.7,13.5,85.8,13.5z M85.6,21.9c-0.3-0.1-0.4-0.1-0.4-0.1c0.1,0.2,0.2,0.3,0.3,0.3S85.6,22,85.6,21.9z M85.9,15.8
		c-0.1,0.1-0.2,0.2-0.3,0.2c-0.1,0-0.1,0.1-0.2,0.1c0.2-0.1,0.3-0.2,0.4-0.2C85.8,15.9,85.9,15.8,85.9,15.8z M86.9,13.5
		c-0.1,0-0.2,0.1-0.2,0.1c-0.1,0-0.2,0.1-0.3,0c0,0.2,0,0.3-0.1,0.3c-0.1,0.1-0.1,0.1-0.2,0.1c-0.1,0-0.1,0.1-0.2,0.1
		s-0.1,0.1-0.1,0.3c0.2-0.2,0.4-0.3,0.7-0.4C86.7,14,86.9,13.8,86.9,13.5z M87.2,21.7c-0.2-0.2-0.3-0.3-0.4-0.2s-0.1,0.1-0.1,0.1
		c-0.2-0.3-0.3-0.3-0.3-0.2c0,0.1-0.1,0.2-0.2,0.1c0.3,0.2,0.5,0.3,0.7,0.3C86.9,21.8,87,21.8,87.2,21.7z M89.4,19.2
		c-0.1,0-0.2,0-0.2,0c-0.1,0-0.1,0-0.2-0.1c-0.2,0.4-0.4,0.6-0.4,0.7c0.2,0.2,0.3,0.3,0.3,0.3s0,0.1,0,0.3c-0.1,0-0.2,0.1-0.3,0.3
		c-0.1,0.2-0.2,0.2-0.3,0.2c-0.1,0.2-0.2,0.4-0.3,0.4c-0.2,0.1-0.4,0.2-0.5,0.3c0.2,0.1,0.2,0.2,0.1,0.4c-0.1,0.2-0.2,0.2-0.4,0.1
		c0,0.2,0,0.2-0.1,0.2s-0.2,0.1-0.2,0.2c-0.1,0-0.2,0-0.2-0.1c0-0.1-0.1-0.1-0.2-0.1c0.2,0.5,0.2,0.8,0.1,0.9
		c-0.1,0-0.1,0.1-0.2,0.3c0.3,0.4,0.4,0.6,0.2,0.7c0.3,0,0.4-0.1,0.3-0.2c0-0.1,0-0.2,0.1-0.2c0.2-0.1,0.3-0.2,0.4-0.3
		c0.1-0.1,0.1-0.2,0.1-0.4c0.1,0,0.2,0,0.2,0c0-0.1,0.1-0.1,0.2,0c0.3-0.2,0.4-0.3,0.5-0.3c0-0.2-0.1-0.3-0.2-0.3s-0.1-0.1-0.2-0.2
		c0.3,0,0.4,0,0.5-0.1c0.1-0.1,0.3-0.1,0.4,0c0-0.2,0-0.3-0.1-0.3c-0.1,0-0.2-0.1-0.2-0.3l0.4-0.2c0.3-0.2,0.4-0.4,0.4-0.8
		C89.5,19.9,89.4,19.5,89.4,19.2z M89.7,22.7c-0.2-0.3-0.2-0.4-0.3-0.3c0,0.1-0.1,0.2-0.2,0.2c-0.3-0.1-0.4-0.2-0.4-0.2
		c0,0-0.1,0-0.2,0c0,0.4,0,0.6,0,0.6c-0.3-0.1-0.5,0-0.5,0.2c0,0.2-0.1,0.3-0.2,0.4c-0.3,0.1-0.6,0.2-0.8,0.3
		c0.3-0.1,0.4-0.1,0.5-0.2c0.1-0.1,0.1-0.1,0.2,0c-0.1,0.1-0.2,0.3-0.2,0.4c-0.1,0.1-0.2,0.2-0.3,0.2c-0.2-0.1-0.3-0.1-0.3-0.1
		c-0.1,0-0.1,0.1-0.1,0.3c0.2,0.2,0.2,0.4,0.1,0.5c-0.1,0.1-0.1,0.3,0.1,0.5c0.1,0,0.2,0,0.3-0.1c0.1-0.1,0.1-0.2,0.2-0.2
		c0.1-0.4,0.2-0.6,0.3-0.6c0.1,0,0.2-0.1,0.2-0.1c-0.1-0.2,0-0.3,0.1-0.3s0.2-0.2,0.2-0.3c0.2-0.3,0.4-0.5,0.6-0.6
		C89.4,23,89.6,22.9,89.7,22.7z M87.9,18c-0.2-0.1-0.3-0.1-0.4,0.1s-0.2,0.2-0.3,0.2c0.2,0.1,0.3,0.1,0.4,0
		C87.7,18.2,87.8,18.1,87.9,18z M88.2,20.2c-0.2,0-0.3,0.1-0.4,0.2c0,0.1-0.1,0.2-0.1,0.3c-0.2,0.1-0.3,0.2-0.3,0.2
		c-0.1,0-0.1,0.1-0.2,0.1c0.2,0.1,0.4,0.2,0.5,0.2c0.1,0,0.2,0,0.3,0.1C88.1,20.9,88.2,20.6,88.2,20.2z M88.4,25.6
		c-0.1,0.1-0.2,0.2-0.4,0.3C87.8,26,87.7,26,87.6,26c0.2,0,0.2,0.1,0.2,0.2c0,0.1,0,0.2,0,0.3c0.1-0.1,0.2-0.2,0.3-0.2
		c0,0,0.2,0,0.3,0c-0.1-0.2-0.1-0.3,0-0.4C88.3,25.9,88.3,25.7,88.4,25.6z M88.3,16.1c-0.1,0.2-0.2,0.2-0.2,0.1s-0.2-0.2-0.3-0.2
		c0.1,0.1,0.1,0.2,0,0.3s-0.1,0.1,0,0.3c0.1,0,0.2-0.1,0.3-0.1C88.3,16.4,88.3,16.3,88.3,16.1z M88.7,24.6c-0.1-0.1-0.1-0.1-0.2-0.1
		c-0.1,0-0.2,0.1-0.3,0c-0.1,0.1-0.2,0.2-0.3,0.3s-0.1,0.2-0.2,0.2c0.2,0.2,0.3,0.2,0.5,0.1C88.6,25,88.7,24.9,88.7,24.6z
		 M88.7,17.1c-0.1,0.1-0.3,0.2-0.4,0.3c-0.1,0.1-0.2,0.2-0.3,0.4C88.4,17.9,88.6,17.6,88.7,17.1z M88.5,20c-0.2-0.1-0.4-0.2-0.4-0.1
		C88,20,88,20,88.1,20.1C88.3,20.2,88.5,20.2,88.5,20z M90.1,25.8c0,0.2,0,0.2-0.2,0.2s-0.2,0.1-0.2,0.2c-0.1,0.1-0.2,0.2-0.3,0.3
		c-0.1,0.1-0.1,0.1-0.2,0.2c-0.1,0-0.2,0.1-0.3,0.1c-0.1,0-0.2,0.1-0.3,0.1c-0.2,0.3-0.3,0.5-0.4,0.6c-0.1,0.1-0.2,0.2-0.2,0.4
		c0.3,0.3,0.4,0.5,0.5,0.6c0-0.3,0.1-0.5,0.1-0.6c0.1-0.1,0.1-0.2,0.3-0.3c0.3-0.1,0.4-0.1,0.6-0.1c0-0.5,0.1-0.7,0.2-0.8
		c0.2-0.3,0.3-0.5,0.3-0.6C90.2,25.9,90.2,25.8,90.1,25.8z M89.6,24.6c-0.1,0-0.2,0-0.3,0c-0.1,0-0.2-0.1-0.2-0.2
		c0.1,0.1,0.2,0.1,0.2,0.1c0.1,0,0.2,0,0.2,0c-0.2-0.4-0.3-0.6-0.2-0.7c0.1-0.1,0-0.2-0.2-0.3c-0.1,0.1-0.1,0.2,0,0.4
		c0,0.2,0,0.3-0.3,0.3c-0.1,0.4-0.1,0.6,0,0.5c0.1,0,0.1,0,0.1,0.1s-0.1,0.2-0.2,0.3c-0.1,0.1-0.1,0.2-0.1,0.3
		c0.1,0.1,0.3,0,0.3-0.1c0.1-0.2,0.2-0.3,0.4-0.2c-0.1-0.2,0-0.2,0.1-0.2S89.5,24.7,89.6,24.6z M89.1,25.6c-0.2,0.3-0.3,0.5-0.3,0.5
		s-0.1,0.1-0.2,0.1c0.2,0.2,0.4,0.2,0.5,0C89.2,26,89.2,25.8,89.1,25.6z M90.6,28.1c-0.4,0.1-0.6,0.3-0.7,0.6
		c-0.3,0.2-0.4,0.4-0.5,0.5c-0.1,0.1-0.2,0.2-0.3,0.2c-0.1,0.1-0.2,0.1-0.3,0.2c-0.1,0.1-0.2,0.2-0.2,0.3c0.1,0.4,0.2,0.8,0.3,1.1
		c0.1,0.3,0.1,0.7,0.2,1.1c0.1-0.1,0.1-0.1,0.2-0.2c0-0.1,0.1-0.1,0.2-0.1c0.1-0.2,0.3-0.3,0.4-0.3c0-0.1,0-0.3,0-0.4
		c0-0.1,0-0.3,0.1-0.4c-0.1,0.2-0.3,0.2-0.5,0.2c-0.2,0-0.3-0.2-0.3-0.6c0.1-0.1,0.2-0.2,0.2-0.4c0-0.2,0.1-0.2,0.3-0.2
		c0-0.2,0.1-0.4,0.2-0.4s0.2-0.2,0.3-0.3c-0.1-0.3,0-0.4,0.1-0.5C90.5,28.3,90.6,28.2,90.6,28.1z M90.8,27.5
		c0.2-0.3,0.2-0.5,0.1-0.7s-0.2-0.4-0.4-0.5c-0.1,0.1-0.1,0.2-0.1,0.3c0,0.1-0.1,0.1-0.1,0.2c-0.1,0.1-0.2,0.2-0.2,0.3
		c0,0.1,0,0.2-0.1,0.2c-0.2,0.1-0.3,0.2-0.3,0.2c-0.1,0-0.2,0.1-0.2,0.1c-0.2,0.3-0.4,0.5-0.5,0.5c-0.1,0.2-0.1,0.3-0.2,0.3
		c0,0.1,0,0.2,0,0.3c0.2,0.1,0.2,0,0.3-0.1c0-0.1,0.1-0.1,0.2,0c0.1-0.2,0.2-0.3,0.3-0.4c0.2-0.1,0.3-0.2,0.3-0.4
		c0.3-0.1,0.4-0.2,0.4-0.3s0-0.1,0.1-0.1c0.1,0,0.1,0,0.2,0C90.7,27.5,90.7,27.5,90.8,27.5z M90.4,25c-0.1-0.1-0.2-0.2-0.2-0.2
		c-0.1,0-0.2,0.1-0.2,0.1c-0.1,0.1-0.2,0.2-0.3,0.2c-0.1,0.1-0.2,0.1-0.3,0.1c0.2,0.3,0.4,0.3,0.6,0.2S90.3,25.2,90.4,25z
		 M89.8,21.7c-0.1-0.1-0.2-0.1-0.3,0c-0.1,0-0.1,0-0.3,0c0.2,0.2,0.4,0.3,0.5,0.3L89.8,21.7z M90.1,23.4c-0.2-0.2-0.3-0.3-0.3-0.2
		c-0.1,0.1-0.2,0.1-0.3,0.1c0,0.4,0.1,0.5,0.1,0.5c0.1,0,0.1,0,0.2,0C89.8,23.7,89.9,23.6,90.1,23.4z M91.4,31.7
		c-0.3,0.1-0.5,0.3-0.7,0.5c-0.2,0.2-0.4,0.4-0.6,0.5c-0.2,0.4-0.3,0.6-0.4,0.6c-0.1,0-0.1,0.1-0.1,0.1c0.1,0.1,0.2,0.3,0.3,0.6
		c0.1,0.1,0.2,0.1,0.3,0c0-0.1,0.1-0.2,0.2-0.3c0.2-0.2,0.2-0.3,0.3-0.3c0-0.1,0.1-0.1,0.2,0c0.2-0.4,0.2-0.6,0.1-0.6
		s-0.1-0.1-0.1-0.2C91,32.3,91.2,32,91.4,31.7z M91.9,30.7c-0.1-0.1-0.1-0.3-0.1-0.5c0-0.2-0.1-0.3-0.2-0.4c-0.4,0.3-0.7,0.6-0.9,1
		c-0.3,0.4-0.6,0.8-0.9,1.1c0.1,0,0.1,0.1,0.2,0.1c0,0.1,0.1,0.1,0.2,0c0.2-0.1,0.3-0.2,0.3-0.5c0-0.2,0.1-0.3,0.2-0.1
		C91.1,31.2,91.5,30.9,91.9,30.7z M90.4,30.3c-0.2,0.1-0.3,0.2-0.4,0.2c0,0,0,0.1,0,0.1c0,0,0.1,0,0.2-0.1
		C90.3,30.5,90.4,30.4,90.4,30.3z M91,34.3c-0.2,0-0.4,0-0.5,0c-0.1,0-0.2,0.2-0.1,0.4c0.3-0.2,0.4-0.2,0.4-0.2c0,0,0.1,0,0.2,0
		L91,34.3z M91.4,28.2c-0.2,0-0.3,0-0.4,0.2c0,0.2-0.1,0.3-0.3,0.3c0,0.2,0,0.4-0.1,0.4c-0.1,0.1-0.2,0.2-0.2,0.3
		c0.1,0.1,0.2,0,0.3-0.1c0.1-0.1,0.2-0.2,0.3-0.2C91.2,29,91.3,28.6,91.4,28.2z M91.8,33.8c-0.1,0.2-0.2,0.3-0.3,0.5
		s-0.2,0.4-0.3,0.6c-0.1,0.2-0.2,0.4-0.3,0.5c-0.1,0.1-0.3,0.2-0.5,0.2c-0.1,0.4,0,0.7,0.1,0.9c0.2,0.2,0.3,0.4,0.5,0.6
		c0-0.2,0.1-0.4,0.2-0.7c0.1-0.3,0.2-0.5,0.3-0.8c0.1-0.3,0.2-0.6,0.2-0.9C91.9,34.4,91.9,34.1,91.8,33.8z M91.2,33.7
		c-0.1-0.2-0.1-0.2-0.2-0.1c-0.1,0.1-0.1,0.1-0.2,0.1c0,0.2,0.1,0.2,0.2,0.2S91.2,33.8,91.2,33.7z M91.9,31.4
		c-0.1,0-0.2-0.1-0.3-0.1c-0.1,0-0.2,0.1-0.1,0.3c0.1,0,0.2-0.1,0.2-0.1S91.8,31.4,91.9,31.4z M96,14.4c-0.2,0-0.4,0-0.6,0
		s-0.3,0.2-0.3,0.5c0.2,0.1,0.4,0,0.5-0.1c0.1-0.1,0.2-0.2,0.3-0.1L96,14.4z M95.8,14.1c0-0.1,0-0.2-0.1-0.2c-0.1,0-0.2-0.1-0.2-0.1
		L95.8,14.1z M97.2,16.6c-0.1-0.1-0.1-0.1-0.2-0.1c-0.1,0-0.1,0.1-0.2,0.2c-0.1,0.1-0.1,0.1-0.2,0.2c-0.1,0-0.2,0-0.2,0
		c-0.1,0.2-0.1,0.3-0.3,0.4c-0.2,0.1-0.2,0.4,0,0.7c0.1,0,0.2,0,0.2-0.1c0-0.1,0.1-0.1,0.2-0.1c0.1-0.2,0.2-0.4,0.3-0.4
		c0.1,0,0.2-0.1,0.3-0.1C96.9,17,97,16.8,97.2,16.6z M96.6,14.9c-0.1,0-0.2,0-0.2,0c0,0-0.1-0.1-0.2-0.2c0,0.2,0,0.3,0.1,0.3
		c0.1,0,0.2,0.1,0.3,0.1L96.6,14.9z M98,18.2c-0.2-0.1-0.3-0.1-0.3-0.1c-0.1,0-0.1,0.1-0.2,0.1c-0.1,0-0.1,0-0.2,0.1
		c0,0,0,0.1,0,0.2c-0.1,0.1-0.2,0.1-0.3,0.2c-0.1,0.1-0.2,0.1-0.4,0.1c-0.1,0.3-0.1,0.5-0.3,0.7c-0.1,0.2-0.1,0.4,0.1,0.6
		c0.2-0.2,0.3-0.4,0.3-0.5c0-0.1,0.1-0.2,0.2-0.3c0.1-0.2,0.2-0.4,0.3-0.6c0.1-0.2,0.3-0.2,0.4-0.2L98,18.2z M97.6,14
		c-0.2-0.1-0.3-0.2-0.4-0.1c-0.1,0.1-0.2,0.1-0.2,0.2c-0.1,0.1-0.1,0.1-0.2,0.2s-0.2,0-0.2,0c-0.1,0.1-0.1,0.2,0,0.3
		c0,0.1,0,0.2,0,0.3c0.1-0.1,0.1-0.2,0.2-0.2c0.1,0,0.2,0,0.2,0c0.2-0.2,0.2-0.3,0.2-0.4c0-0.1,0-0.1,0.1-0.1L97.6,14z M99.6,18.2
		c-0.1,0-0.2-0.1-0.2-0.2c0-0.1-0.1-0.2-0.2-0.3c-0.1,0.2-0.2,0.2-0.3,0.2c-0.2,0-0.3,0-0.5,0.1c0.1,0.3,0,0.5-0.2,0.7
		c-0.2,0.2-0.3,0.4-0.5,0.5c-0.2,0.5-0.4,0.8-0.8,1c0.2,0.1,0.4,0.2,0.5,0.1c0.2,0,0.3-0.1,0.4-0.2s0.2-0.1,0.3,0
		c-0.2,0.1-0.3,0.3-0.4,0.5c-0.1,0.2-0.2,0.2-0.4,0.1c-0.1,0.2-0.2,0.3-0.3,0.4c-0.1,0.1-0.2,0.3-0.3,0.4c0,0.2,0.1,0.4,0.1,0.6
		c0,0.2,0.1,0.3,0.2,0.3c0.1-0.1,0.2-0.2,0.2-0.3c0-0.2,0.1-0.3,0.3-0.3c0.2,0.2,0.3,0.2,0.3,0.2c0.1,0,0.1,0,0.1-0.1
		c0.1-0.5,0.2-0.9,0.4-1.2c0.2-0.3,0.5-0.4,0.7-0.5c0.2-0.2,0.2-0.3,0.2-0.4c0-0.1,0-0.1,0.1-0.1c-0.1-0.2-0.2-0.3-0.2-0.2
		c-0.1,0.1-0.2,0.1-0.3,0.1c-0.1,0.1-0.1,0.2-0.2,0.3c-0.1,0.1-0.2,0.1-0.3,0.1c0.1-0.2,0.2-0.4,0.3-0.4c0,0,0-0.1,0-0.1
		c0.1,0,0.2,0,0.3-0.1c0.1-0.1,0.1-0.1,0.1-0.2c-0.1-0.2,0-0.4,0.2-0.4C99.4,18.7,99.5,18.5,99.6,18.2z M97.7,15.8
		c-0.1-0.1-0.2-0.1-0.3-0.1s-0.2,0-0.3,0c0,0.2,0.1,0.3,0.3,0.3C97.5,15.9,97.6,15.9,97.7,15.8z M99.3,21c-0.1,0.1-0.2,0.2-0.3,0.4
		c-0.1,0.2-0.2,0.3-0.5,0.2c-0.1,0.2-0.1,0.3-0.2,0.4c0,0.1-0.1,0.1-0.3,0c0,0.2,0,0.3-0.1,0.3c-0.1,0.1-0.2,0.1-0.3,0
		c0,0.1-0.1,0.2-0.2,0.3c-0.1,0.1-0.1,0.2-0.2,0.2c-0.1,0.1-0.1,0.2-0.1,0.3c0,0.1,0,0.2,0.1,0.4c0.1,0,0.2,0,0.2-0.1
		c0-0.1,0.1-0.1,0.2-0.1c0.2-0.2,0.3-0.4,0.3-0.4c0,0,0-0.1,0-0.1c0.1-0.1,0.2-0.1,0.2-0.1c0.1,0,0.2-0.1,0.2-0.1
		c0.2-0.2,0.2-0.3,0.2-0.3c0,0,0.1,0,0.1,0c0.2-0.3,0.2-0.5,0.3-0.7C99.2,21.3,99.3,21.1,99.3,21z M98.9,15.8
		c-0.2,0-0.3,0.1-0.3,0.2c-0.1,0.1-0.1,0.2-0.2,0.3c-0.1,0.1-0.2,0.2-0.3,0.4c-0.1,0.1-0.2,0.2-0.4,0.2c-0.1,0.2-0.1,0.3-0.2,0.4
		c-0.1,0.1-0.2,0.2-0.2,0.4c0,0.1,0.1,0.1,0.2,0.1c0.1,0,0.1,0.1,0.2,0.2c0-0.2,0-0.3,0-0.3c-0.1,0-0.1-0.1-0.1-0.3
		c0.2-0.1,0.4-0.1,0.4-0.1c0.2-0.2,0.4-0.3,0.4-0.3c0.1,0,0.1,0,0.2,0c-0.1-0.1,0-0.2,0-0.2c0.1,0,0.1-0.1,0.2-0.2
		c0.1-0.1,0.2-0.1,0.2-0.2C99,16.1,99,15.9,98.9,15.8z M100.4,22.7c-0.1,0.2-0.3,0.4-0.5,0.5c-0.2,0.2-0.2,0.3-0.2,0.5
		c-0.3,0.1-0.5,0.1-0.5,0c-0.1,0-0.2,0-0.2,0.1c0.2-0.1,0.3-0.2,0.3-0.4c0-0.2,0.1-0.3,0.2-0.4c-0.1-0.2-0.2-0.3-0.2-0.2
		c-0.1,0.1-0.1,0.1-0.3,0c0,0.1-0.1,0.2-0.1,0.2c-0.1,0.1-0.1,0.2-0.1,0.3c-0.3,0.3-0.5,0.5-0.6,0.7c-0.1,0.2-0.3,0.4-0.5,0.4
		c0.3,0.2,0.5,0.2,0.5,0c0.1-0.1,0.2-0.3,0.3-0.4c0.2-0.1,0.3-0.2,0.5-0.2c0,0.1,0.1,0.2,0.3,0.1c0.1,0,0.2,0,0.2,0
		c0.1,0,0.2,0,0.4,0c0.2-0.1,0.4-0.2,0.5-0.3c0.1-0.1,0.2-0.3,0.3-0.4C100.6,23.2,100.5,22.9,100.4,22.7z M100.6,24.4
		c-0.2-0.1-0.3-0.1-0.4,0.1c-0.1,0.1-0.2,0.2-0.3,0.2c-0.1,0.2-0.3,0.3-0.4,0.4c-0.2,0.1-0.3,0.1-0.5,0c-0.2,0.2-0.3,0.3-0.4,0.3
		c-0.1,0-0.1,0-0.2,0.1c0.1,0.4,0.1,0.6-0.1,0.6s-0.2,0.1-0.3,0.3c-0.1,0.1-0.2,0.3-0.2,0.6c0,0.3,0,0.5,0.2,0.6
		c0.2-0.2,0.4-0.4,0.6-0.6c0.2-0.1,0.4-0.3,0.6-0.5c-0.1-0.2,0-0.3,0.1-0.4s0.3-0.1,0.4-0.1c0-0.1,0-0.2,0-0.3c0-0.1,0-0.2,0-0.3
		c0.2-0.3,0.3-0.4,0.5-0.5C100.5,24.8,100.6,24.7,100.6,24.4z M101.7,30.1c0-0.4,0-0.7-0.1-1c0,0.1-0.1,0.1-0.1,0.1
		c-0.1,0-0.1,0-0.2-0.1c-0.1,0-0.1,0-0.2,0c-0.1,0-0.1,0.1-0.1,0.2c-0.2-0.1-0.3-0.1-0.3-0.1c0,0-0.1,0-0.2,0
		c-0.3,0.1-0.4,0.2-0.5,0.2c-0.1,0-0.1,0-0.2,0c-0.1,0.3-0.2,0.5-0.3,0.6c-0.1,0.1-0.3,0.2-0.5,0.2c-0.1-0.3-0.2-0.4-0.3-0.4
		c-0.1,0-0.1,0-0.1-0.2c0-0.1,0.1-0.2,0.1-0.3c0-0.1,0.1-0.2,0.1-0.3c0.4-0.2,0.6-0.4,0.6-0.6c0.1-0.3,0.2-0.5,0.2-0.6
		c0,0,0-0.1,0.1-0.2c0.2-0.2,0.3-0.3,0.3-0.4c0-0.1,0.1-0.1,0.1,0c0.1,0.1,0.2,0.3,0.2,0.5c-0.2,0.3-0.3,0.5-0.4,0.5
		c-0.1,0.1-0.1,0.2-0.2,0.3c0.3,0,0.5-0.1,0.6-0.1c0.2-0.4,0.3-0.6,0.4-0.7c0.1-0.1,0.3-0.1,0.4,0c0-0.2,0.1-0.3,0.2-0.4
		c0.1-0.1,0.1-0.2,0.1-0.5c-0.1,0-0.2-0.1-0.2-0.2s-0.1-0.1-0.2-0.1c-0.1,0.3-0.2,0.5-0.2,0.5c-0.1,0-0.2,0.1-0.2,0.2
		c-0.2,0-0.3,0-0.4-0.1s-0.3-0.2-0.5-0.2c0,0.2,0,0.4-0.1,0.4c-0.1,0.1-0.2,0.1-0.2,0c-0.1,0.2-0.2,0.4-0.3,0.5
		c-0.1,0.1-0.3,0.2-0.4,0.3c-0.1,0.1-0.2,0.2-0.4,0.3c-0.1,0.1-0.2,0.3-0.2,0.5c0,0.2,0,0.3,0,0.5s0.1,0.3,0.2,0.4
		c0.1,0.1,0.1,0.3,0.2,0.4c0,0.2,0.1,0.3,0,0.5c0.1,0.1,0.2,0.2,0.2,0.4c0,0.2,0.1,0.3,0.2,0.4c0.1-0.2,0.3-0.3,0.5-0.2
		c0-0.4,0.1-0.6,0.2-0.8c0.1-0.2,0.3-0.2,0.5,0c0.4,0,0.6-0.1,0.8-0.2c0.2-0.1,0.3-0.2,0.5-0.1L101.7,30.1z M100.2,22.5
		c-0.3-0.1-0.4-0.2-0.5-0.2c-0.1,0-0.1-0.1-0.2-0.2l-0.2,0.5c0.3,0.2,0.4,0.2,0.5,0.2c0,0,0.1,0,0.3,0L100.2,22.5z M100.8,32
		c-0.3-0.1-0.5-0.2-0.5-0.1c-0.1,0.1-0.2,0.1-0.3,0.1c0,0.2-0.1,0.3-0.2,0.4c-0.1,0.1-0.2,0.2-0.2,0.3c-0.1,0.1-0.1,0.3-0.1,0.4
		c0,0.1,0.1,0.3,0.2,0.4c0.2-0.2,0.4-0.3,0.5-0.4c-0.1-0.3,0-0.4,0-0.5c0.1-0.1,0.1-0.2,0-0.4c0.2-0.1,0.3-0.1,0.3,0
		c0,0,0.1,0,0.1,0L100.8,32z M100.8,34c-0.2,0.1-0.4,0.1-0.5,0.2c-0.1,0.1-0.3,0.1-0.5,0.1c0,0.2,0.1,0.4,0.1,0.6
		c0.1,0.2,0.1,0.4,0.1,0.6c0.1,0,0.2,0,0.2,0c0.1,0,0.1,0,0.2,0c0-0.3,0.1-0.5,0.2-0.8C100.8,34.4,100.8,34.2,100.8,34z M100.3,30.6
		c-0.1,0.2-0.2,0.3-0.4,0.3c0.1,0.1,0.3,0.1,0.4,0C100.3,30.8,100.4,30.7,100.3,30.6z M101.1,26c0.1-0.1,0.1-0.3,0.1-0.4
		c0-0.1-0.1-0.2-0.1-0.4c-0.3,0.2-0.5,0.3-0.7,0.4c-0.1,0.1-0.3,0.2-0.4,0.3c0.1,0.3,0.1,0.5,0.2,0.5c0.1,0,0.1,0.1,0.2,0.1
		c0.3-0.3,0.4-0.5,0.5-0.6S101,25.9,101.1,26z M100.9,29.9c-0.1,0.2-0.2,0.2-0.3,0.2c-0.2,0-0.3,0-0.4,0c0-0.1,0-0.2,0.1-0.2
		c0,0,0.1,0,0.1,0s0.1,0,0.1,0c0,0,0-0.1,0-0.2C100.7,29.6,100.8,29.7,100.9,29.9z M101.5,31.4c-0.2,0.3-0.4,0.5-0.5,0.7
		c-0.2,0.1-0.3,0.3-0.3,0.6C101.1,32.5,101.4,32.1,101.5,31.4z M101.4,28.7c-0.2-0.3-0.3-0.4-0.2-0.5c0.1,0,0.1-0.1,0.1-0.2
		c-0.1,0-0.2,0-0.3,0c-0.1,0-0.1,0.1-0.2,0.2c0.1,0,0.2,0.1,0.3,0.2C101.1,28.6,101.2,28.7,101.4,28.7z"/>
	<path d="M86.4,36.1c0.1,0.2,0.1,0.3,0.1,0.5c-0.1,0.1-0.2,0.3-0.3,0.3c-0.3-0.1-0.5-0.1-0.8-0.1c-0.3,0-0.6,0.1-1,0
		c-0.3,0-0.6,0-0.8,0.1C83.3,37,83.1,37,82.8,37c-0.2,0-0.4,0-0.7,0.1c-0.2,0.1-0.4,0.3-0.5,0.5c-0.2,0-0.3-0.1-0.4-0.2
		c-0.1-0.1-0.3-0.2-0.5-0.2c-0.3,0.1-0.6,0.1-1,0.1c-0.4,0-0.7,0.1-0.9,0.2c-0.2-0.1-0.3-0.1-0.5-0.1c-0.1,0-0.3,0.1-0.4,0.2
		c-0.1,0.1-0.3,0.2-0.4,0.3c-0.1,0.1-0.3,0.1-0.4,0.1c-0.2-0.5-0.5-0.7-1-0.8c-0.5,0-0.8,0-1.1,0.2c-0.2-0.1-0.4-0.1-0.6,0
		c-0.2,0-0.5,0.1-0.7,0.1c-0.2,0-0.4,0-0.6,0c-0.2,0-0.4-0.1-0.5-0.3c0.1-0.2,0.3-0.3,0.5-0.4c0.2-0.1,0.5-0.1,0.7-0.1
		c0.1,0,0.2,0,0.3,0.1c0.1,0,0.2,0.1,0.2,0.1c0.4,0,0.8-0.1,1.2-0.3c0.5-0.2,0.8-0.4,1.1-0.7c0.2-0.3,0.3-0.4,0.3-0.4
		c0.1,0,0.1-0.1,0.1-0.1c0.1-0.2,0.2-0.3,0.2-0.5c0-0.2,0.1-0.4,0.2-0.5c-0.1-0.1-0.1-0.2-0.3-0.2c-0.1,0-0.2,0-0.3,0.1
		c-0.1-0.5-0.1-0.8,0.2-1c-0.2-0.8-0.4-1.6-0.6-2.2c-0.3-0.6-0.5-1.4-0.6-2.2c-0.2-0.2-0.3-0.3-0.4-0.5c-0.1-0.2-0.1-0.5,0-0.9
		c-0.1-0.1-0.2-0.3-0.2-0.5c0-0.2-0.1-0.4-0.1-0.7c0-0.2-0.1-0.5-0.1-0.8c0-0.3-0.1-0.5-0.2-0.6c-0.5,0.1-1,0.1-1.7,0
		c-0.3,0-0.5,0-0.8,0c-0.3,0-0.5,0-0.7,0c-0.4,0-0.8,0.1-1.1,0.2c-0.4,0.1-0.7,0-1-0.2c-0.5,0-0.9,0-1.4,0c-0.5,0.1-0.9,0.2-1.3,0.3
		c-0.1,0.1-0.1,0.1-0.2,0.2s-0.1,0.2-0.2,0.2c0,0.3,0,0.6-0.1,0.8c-0.1,0.2-0.2,0.5-0.2,0.8c-0.2,0.8-0.4,1.5-0.7,2.1
		c-0.1,0.4-0.2,0.7-0.2,1c0,0.2-0.1,0.4-0.2,0.6c0,0.3,0,0.6-0.1,1c-0.1,0.3-0.1,0.6-0.2,0.9c-0.1,0.3-0.1,0.6-0.1,0.8
		c0,0.2,0.1,0.5,0.3,0.7c0,0.4,0,0.6,0.1,0.7c0.1,0.1,0.2,0.3,0.3,0.4c0.4,0.5,0.8,0.7,1.1,0.6c0.4-0.1,0.7-0.1,1.1,0
		c0.6,0.1,1.1,0.1,1.5,0c0,0.2,0,0.3,0,0.3c0,0.1,0,0.1,0,0.2c-0.3,0.1-0.5,0.1-0.8,0.1c-0.3,0-0.5,0-0.8-0.1
		c-0.2,0.1-0.4,0.2-0.7,0.3c-0.2,0.1-0.4,0.1-0.7-0.1c-0.2,0-0.5,0-0.7,0.2c-0.3-0.2-0.4-0.3-0.4-0.3c0,0,0-0.1,0-0.1
		c-0.4-0.1-0.7-0.1-0.9,0c-0.3,0.1-0.5,0.2-0.8,0.4c-0.9,0-1.7,0-2.5,0.1c-0.8,0.1-1.5,0.3-2.2,0.4c-0.1-0.1-0.1-0.1-0.2-0.1
		c-0.1,0-0.2-0.1-0.2-0.1c2.2-0.3,3.9-1.1,5-2.5c0.2-0.6,0.3-1.1,0.5-1.5c0.2-0.5,0.4-1,0.4-1.7c0.1-0.2,0.2-0.3,0.2-0.5
		c0-0.2,0-0.4,0.1-0.6c0.1-0.6,0.3-1.1,0.5-1.6c0.2-0.5,0.3-1,0.4-1.6c0-0.2,0.1-0.3,0.1-0.5c0-0.2,0.1-0.3,0.2-0.4
		c0-0.4,0-0.6,0.1-0.8c0.1-0.2,0.2-0.4,0.3-0.5c0.1-0.5,0.1-0.9,0.2-1.3c0.1-0.4,0.1-0.8,0.2-1.2c0-0.6,0.1-1.1,0.3-1.7
		c0.2-0.6,0.3-1.2,0.3-1.9c0-0.6,0.1-1,0.3-1.3c0.2-0.3,0.3-0.6,0.3-0.8c0-0.2,0.1-0.3,0-0.5c0-0.1,0-0.3,0-0.4
		c0.1-0.3,0.2-0.6,0.3-0.8c0.1-0.3,0.3-0.6,0.4-0.9c0.1-0.3,0.1-0.5,0.1-0.8s0.1-0.5,0.3-0.7c-0.1-0.2,0-0.4,0.1-0.6
		c0.1-0.2,0.1-0.3,0.1-0.5c0-0.3,0-0.5,0.2-0.6c0.1-0.1,0.2-0.3,0.2-0.5c0-0.2,0-0.3,0-0.5s0-0.3,0.2-0.5c0-0.1-0.1-0.1-0.1-0.2
		c-0.1-0.1-0.1-0.2,0-0.3c0-0.1,0.1-0.2,0.1-0.3c0.1-0.1,0.1-0.2,0.1-0.3c0.1-0.2,0.2-0.4,0.4-0.7c0.1-0.2,0.2-0.4,0.3-0.7
		c0.1-0.3,0.2-0.6,0.3-0.9c0.1-0.3,0.2-0.6,0.2-1c0-0.2,0.1-0.4,0.2-0.6s0.1-0.4,0.2-0.6c0-0.1,0-0.3,0-0.4c0-0.1,0-0.2,0.1-0.3
		C71.8,2.5,72,2.1,72,1.7c0.1-0.3,0.2-0.6,0.5-0.7c0.1-0.3,0.1-0.5,0.2-0.8C72.9,0.1,73.1,0,73.4,0c0.1,0.2,0.2,0.4,0.3,0.7
		s0.2,0.4,0.4,0.5c0.1,0.3,0.2,0.6,0.2,0.9c0,0.3,0.1,0.6,0.2,0.9c0.2,0.2,0.3,0.4,0.3,0.6c0,0.2,0.1,0.5,0.1,0.7
		c0,0.2,0,0.5,0.1,0.7c0,0.2,0.1,0.5,0.2,0.7c0.1,0.3,0.2,0.4,0.3,0.4c0.2,0.3,0.3,0.3,0.4,0.2C75.9,6.1,76.1,6,76.3,6
		c0.1,0.4,0,0.7-0.1,1c-0.1,0.2-0.2,0.5-0.3,0.8c0,0.1-0.1,0.2-0.1,0.3c-0.1,0.1-0.1,0.2,0,0.3c0,0.1,0.1,0.1,0.2,0.1
		c0.1,0,0.1,0,0.2,0c0.1,0.2,0.2,0.4,0.3,0.5c0,0.2-0.1,0.3-0.2,0.3S76.1,9.4,76,9.5c0,0.1,0.1,0.1,0.2,0.1c0.1,0,0.2,0,0.2-0.1
		c0.1,0,0.2,0,0.2,0c0.1,0,0.1,0.1,0.2,0.2c-0.1,0.1-0.1,0.1-0.2,0.1c-0.1,0-0.2-0.1-0.2-0.1c-0.1,0.2-0.2,0.3-0.3,0.4
		c-0.1,0.1-0.1,0.2-0.1,0.3c0,0.1,0,0.3,0,0.4c0,0.1,0,0.2,0,0.3c0.3,0.1,0.4,0.1,0.4,0.2c0,0.1,0,0.2,0,0.2
		c-0.1,0.2-0.1,0.3-0.1,0.3c0,0,0,0.1-0.1,0.2c0.1,0.1,0.2,0.1,0.3,0.1s0.2-0.1,0.3-0.2c0.1,0,0.2,0.1,0.2,0.2
		c0,0.1,0.1,0.2,0.1,0.4c-0.1,0.1-0.2,0.1-0.3,0.2c-0.1,0.1-0.2,0.2-0.3,0.2c0.2,0.6,0.3,1.1,0.5,1.3c0.2,0.3,0.3,0.6,0.4,0.9
		c0.1,0,0.2,0,0.2-0.1c0.1-0.1,0.1-0.1,0.2,0c-0.1,0.1-0.1,0.2-0.1,0.4c0,0.2,0,0.3,0,0.4c0.2,0.1,0.2,0,0.2-0.1
		c0-0.1,0-0.2,0.2-0.2c0,0.2,0,0.3-0.1,0.3c-0.1,0-0.1,0.1-0.1,0.2c0,0.1,0.1,0.3,0.2,0.4c0.1,0.1,0.1,0.3,0.1,0.4
		c0.1,0.1,0.2,0.1,0.3,0c0.1,0,0.2-0.1,0.2-0.1c0.1-0.1,0.2-0.1,0.2-0.2c0.1-0.1,0.2-0.1,0.3-0.1c0.3,0.3,0.4,0.5,0.3,0.5
		c-0.1,0-0.1,0.2-0.1,0.4c-0.3,0.1-0.4,0.3-0.5,0.6c-0.1,0.2-0.2,0.4-0.3,0.6c0,0.2,0.2,0.3,0.3,0.3c0.2,0,0.3,0.1,0.4,0.2
		c-0.1,0.4-0.2,0.6-0.1,0.6c0,0,0.1,0,0.1,0.1c-0.1,0.4-0.1,0.6,0,0.6c0.1,0,0.2,0,0.3,0c0.1,0,0.2,0,0.3,0c0.1,0,0.1-0.1,0.1-0.2
		c0.2,0,0.3,0,0.4,0s0.1,0,0.2-0.1c0.2,0.1,0.3,0.2,0.2,0.4c0,0.2-0.1,0.4-0.3,0.4c-0.2,0-0.3-0.2-0.3-0.5c-0.1,0.1-0.2,0.2-0.4,0.3
		s-0.3,0.2-0.3,0.4c0,0.1,0,0.2,0.1,0.3c0,0.1,0.1,0.2,0.3,0.1c0.1-0.1,0.2-0.2,0.2-0.2c0,0,0.1,0,0.1,0C80,21.4,80,21.6,80,21.8
		c0,0.2-0.1,0.3-0.2,0.3c0.1,0.1,0.1,0.2,0.1,0.3c-0.1,0.1,0,0.2,0.1,0.3c0.1-0.1,0.1-0.2,0.3-0.2c0.1,0,0.2-0.1,0.3-0.2
		c0.2,0.3,0.3,0.5,0.3,0.5s0.1,0,0.1,0c-0.2,0.4-0.4,0.7-0.5,1c0,0.2,0.1,0.4,0.1,0.4c0,0,0.1,0,0.2,0c0,0.2,0,0.3,0.1,0.3
		c0.1,0,0.1,0.1,0.2,0.2c-0.1,0.3-0.2,0.4-0.2,0.5c0,0-0.1,0-0.1,0c0,0.2,0,0.3,0,0.4c0,0.1,0,0.2,0,0.4c0.2-0.1,0.4-0.2,0.6-0.3
		c0.2-0.1,0.3,0,0.4,0.3c-0.2,0-0.3,0.1-0.3,0.2c-0.1,0.1-0.2,0.2-0.3,0.2c-0.2,0.4-0.3,0.6-0.4,0.8c-0.1,0.2,0,0.4,0.1,0.6
		c0.1-0.1,0.2-0.1,0.3,0c0.1,0,0.2,0,0.2,0c-0.1,0.2-0.1,0.3-0.2,0.3c-0.1,0-0.1,0.2-0.1,0.4c0.1,0.2,0.1,0.2,0.2,0
		c0.1-0.2,0.1-0.2,0.2,0c-0.1,0.2-0.2,0.3-0.2,0.4c-0.1,0.1-0.1,0.2-0.2,0.3c0.2,0.2,0.2,0.4,0.3,0.6c0,0.2,0,0.4,0,0.7
		c0.1,0.2,0.3,0.4,0.5,0.5c0,0.2-0.1,0.3-0.1,0.4c-0.1,0.1-0.1,0.2-0.2,0.3c0,0.2,0.1,0.3,0.2,0.4c0,0.1,0.1,0.2,0.1,0.4
		c0.2,0.2,0.4,0.2,0.6,0c0.2-0.1,0.4-0.1,0.6,0c0,0.1,0,0.2,0,0.3c0,0.1-0.1,0.1-0.1,0.2c0.1,0.2,0.3,0.2,0.4,0.1
		c0.1-0.1,0.3-0.1,0.4,0c0.1,0.2,0.1,0.3,0,0.4c-0.1,0.1-0.1,0.2,0,0.4c-0.1,0.1-0.1,0.1-0.2,0.2c-0.1,0.1-0.1,0.1-0.2,0.1
		c0.1,0.2,0.1,0.3,0.2,0.5c0.1,0.1,0.2,0.3,0.3,0.4c0.2,0,0.4,0.1,0.7,0.1c0.2,0,0.3,0.2,0.4,0.5c0.2,0.2,0.4,0.4,0.8,0.4
		C85.9,36.2,86.2,36.2,86.4,36.1z M64,34.3c-0.1,0.3-0.3,0.6-0.4,0.8c-0.2,0.2-0.3,0.4-0.5,0.6c0.2,0,0.4-0.1,0.5-0.2
		c0.1-0.2,0.2-0.3,0.3-0.3c0-0.2,0-0.3,0.2-0.4C64.1,34.6,64.1,34.4,64,34.3z M74.4,23.9c0.1-0.4,0.1-0.8,0-1.2
		c-0.1-0.4-0.2-0.7-0.5-0.9c0.1,0.1,0.1,0.2,0,0.3c-0.1,0-0.2,0.1-0.3,0.3c-0.1-0.3-0.2-0.5-0.1-0.7c0.1-0.2,0.1-0.4,0.2-0.6
		c-0.1-0.2-0.2-0.5-0.2-0.7c0-0.2-0.1-0.5-0.1-0.7s-0.1-0.5-0.2-0.7s-0.2-0.3-0.4-0.4c0.1-0.1,0.1-0.3,0.1-0.6
		c0-0.2-0.1-0.4-0.2-0.4c-0.1,0.1-0.2,0.3-0.4,0.4c-0.2,0.1-0.4,0.1-0.5-0.1c0.2-0.4,0.2-0.6,0.2-0.6c0,0,0-0.1,0-0.2
		c0.3-0.2,0.4-0.3,0.5-0.3c0.1,0,0.1-0.1,0.2-0.1c-0.2-0.3-0.3-0.7-0.3-1.3c-0.1-0.1-0.1-0.1-0.2-0.2S72,15,72,14.8
		c0.2-0.3,0.2-0.6,0.1-0.7c-0.2-0.2-0.3-0.3-0.3-0.4c0.1-0.2,0.1-0.4,0-0.7c-0.1-0.3-0.2-0.5-0.2-0.8c-0.1,0-0.2-0.1-0.3-0.1
		c-0.1,0-0.1-0.2-0.2-0.3c0-0.1,0.1-0.3,0.1-0.7c-0.1-0.1-0.2-0.2-0.3-0.1s-0.2,0-0.2-0.1c-0.1,0.2-0.2,0.5-0.3,0.8
		c-0.1,0.3-0.1,0.6-0.2,0.9c-0.1,0.3-0.2,0.6-0.2,0.8c-0.1,0.3-0.2,0.5-0.4,0.7c0.1,0.3,0,0.6-0.2,0.9c-0.2,0.3-0.3,0.6-0.2,1
		c-0.1,0.2-0.1,0.4-0.2,0.4c-0.1,0.1-0.1,0.2,0,0.3c-0.3,0.5-0.4,1-0.5,1.5c-0.1,0.6-0.2,1.1-0.4,1.5c-0.1,0.5-0.2,0.8-0.3,1.1
		c-0.1,0.3-0.2,0.6-0.2,1c-0.1,0.4-0.1,0.7-0.2,1.1c-0.1,0.4-0.1,0.7-0.2,1.1c0.1,0,0.2,0.1,0.3,0.1c0.1,0,0.2,0.1,0.3,0.1
		c0.4-0.2,0.9-0.2,1.5-0.1c0.7,0.1,1.4,0.1,2.1,0c0.7-0.1,1.4-0.1,2.1,0c0.2-0.1,0.3-0.1,0.5-0.1C74,24,74.2,23.9,74.4,23.9z
		 M75,7.9c-0.1,0.1-0.3,0.2-0.4,0.3c-0.2,0.1-0.3,0.2-0.3,0.4c0.1-0.2,0.1-0.4,0.1-0.5c0-0.1-0.1-0.2-0.1-0.2c0-0.3,0-0.4-0.1-0.4
		c-0.1,0-0.2,0-0.2,0c0.1-0.1,0.2-0.2,0.3-0.2s0.2-0.1,0.3-0.2c0.1-0.5,0.2-0.8,0.2-0.9c0.1-0.2,0-0.3-0.1-0.5c0.1-0.2,0-0.4,0-0.5
		c-0.1-0.1-0.1-0.2,0-0.4c-0.2,0.1-0.4,0.2-0.4,0.1c0-0.1-0.1-0.1-0.3,0c-0.2,0.3-0.3,0.6-0.3,0.7S73.4,6,73.3,6
		c-0.1,0.3-0.2,0.5-0.4,0.6c-0.2-0.2-0.4-0.2-0.5-0.1c-0.1,0.1-0.3,0.3-0.4,0.4c0.1,0,0.2,0,0.3,0c0.1,0,0.2,0,0.3,0
		c-0.2,0.2-0.2,0.3-0.3,0.3c0,0.1-0.1,0.1-0.2,0.1c-0.2,0.1-0.3,0.2-0.3,0.1c0-0.1-0.1,0-0.2,0C71.5,7.9,71.4,8,71.4,8
		c0,0,0,0.1,0,0.1c-0.2,0.2-0.3,0.4-0.3,0.4c0,0,0,0.1,0,0.2c0.1,0.2,0.1,0.4,0,0.6s0,0.4,0.1,0.6c0.2,0.1,0.3,0,0.3-0.1
		c0-0.2,0.1-0.3,0.2-0.3c0.1,0.1,0.2,0.1,0.2,0.2c0.1,0,0.2,0,0.3,0c0.2-0.3,0.4-0.6,0.6-0.9C73,8.4,73.3,8.2,73.5,8
		c0.2,0.2,0.2,0.3,0,0.5c-0.2,0.2-0.3,0.4-0.4,0.6c0,0-0.1,0.1-0.2,0.2c-0.1,0.2-0.2,0.3-0.2,0.4c-0.1-0.3-0.2-0.4-0.3-0.3
		c0.1,0.3,0.1,0.5,0,0.5s-0.1,0.1-0.2,0.1c-0.3-0.2-0.5-0.2-0.5,0c0.2-0.2,0.4-0.1,0.5,0.1c-0.2,0.3-0.4,0.7-0.4,1.1
		c0.1,0,0.2,0,0.3,0c0.1,0,0.2,0,0.2,0.1c-0.1,0.1-0.2,0.2-0.2,0.4c0,0.2-0.1,0.3-0.2,0.4c0.4,0.3,0.6,0.2,0.6,0
		c0.1-0.3,0.2-0.4,0.3-0.4c0.1-0.4,0.2-0.6,0.3-0.7c0.1-0.1,0.2-0.3,0.2-0.4c0.1-0.1,0.1-0.3,0.2-0.4c0-0.1,0-0.3,0-0.4
		c0.1,0.1,0.2,0.1,0.2,0s0.1-0.1,0.2-0.2c0.2-0.2,0.3-0.4,0.4-0.7c0.1-0.3,0.3-0.5,0.5-0.6L75,7.9z M74.1,3.1C74,3,74,2.8,74,2.6
		c0-0.2-0.1-0.3-0.3-0.4c-0.1,0.1-0.1,0.1-0.1,0.2c0,0.1-0.1,0.1-0.2,0.1c0,0.4-0.2,0.7-0.5,0.7c-0.1,0.2-0.2,0.3-0.2,0.4
		c0,0.1,0,0.1-0.1,0.1c-0.1,0.1-0.1,0.2-0.2,0.3c0,0.1-0.1,0.1-0.2,0.1c0.1,0.3,0,0.4-0.1,0.4c-0.1,0-0.2,0.1-0.3,0.2
		c-0.2,0.3-0.3,0.8-0.4,1.4c0.3,0.1,0.5,0.2,0.6,0.2c0.1,0,0.2,0,0.2-0.2c-0.1-0.1-0.1-0.1-0.2-0.1C72,6.1,72,6,71.9,6
		c0.2-0.2,0.4-0.3,0.4-0.4c0,0,0-0.1,0.1-0.1c0,0,0-0.1,0.1-0.1c0.1,0,0.1,0,0.3,0c0-0.2,0.1-0.3,0.2-0.3c0.1-0.1,0.2-0.2,0.3-0.3
		c-0.1-0.1-0.2-0.1-0.3,0.1C72.8,5,72.7,5,72.6,5c0-0.3,0.1-0.6,0.3-0.7C73,4,73.2,4,73.4,4c0.3-0.1,0.4-0.1,0.4-0.1
		c0,0,0.1,0.1,0.1,0.1c-0.1-0.2-0.2-0.3-0.3-0.4c-0.1,0-0.1-0.1-0.1-0.2C73.7,3.5,73.9,3.4,74.1,3.1z M72.9,8.1
		c-0.2,0.2-0.3,0.4-0.3,0.6c-0.2,0.3-0.4,0.4-0.5,0.4c-0.1,0-0.2,0.1-0.2,0.1C71.7,9.1,71.7,9,71.7,9c0,0,0.1-0.1,0-0.2
		c0.1,0.1,0.2,0.1,0.3,0c0.1-0.1,0.2-0.1,0.3-0.2c0.1-0.1,0.2-0.2,0.2-0.3S72.8,8.1,72.9,8.1z M73.1,10.4c-0.2,0.3-0.4,0.6-0.5,0.7
		s-0.3,0.2-0.5,0.1c0-0.1,0.1-0.2,0.2-0.2c0.1-0.1,0.1-0.1,0.2-0.2c0.1,0,0.1-0.1,0.2-0.1s0-0.1,0-0.2c0.1-0.1,0.2-0.1,0.2-0.1
		C72.9,10.3,73,10.3,73.1,10.4z M72.9,1.5c-0.4,0.4-0.6,0.8-0.8,1.4c0.2-0.1,0.4-0.3,0.5-0.6C72.8,2,72.9,1.7,72.9,1.5z M75.4,9.5
		c-0.2,0.1-0.3,0.2-0.4,0.3c-0.1,0.2-0.2,0.3-0.4,0.3c-0.1,0.5-0.3,0.8-0.5,1c-0.2,0.2-0.4,0.5-0.6,0.8c-0.1,0.3-0.2,0.4-0.3,0.4
		c0,0.3-0.1,0.5-0.3,0.6c-0.2,0.1-0.3,0.3-0.4,0.6c0.1,0.1,0.2,0.1,0.3,0.1c0.1,0,0.2-0.1,0.2-0.1c0.1-0.3,0.2-0.5,0.2-0.6
		c0.1-0.1,0.2-0.2,0.3-0.3c0.1-0.4,0.2-0.7,0.4-0.7c0.2,0,0.2-0.2,0.2-0.3c0.2-0.3,0.3-0.5,0.5-0.7c0.2-0.2,0.3-0.4,0.4-0.6
		c0.1-0.3,0.2-0.5,0.3-0.6C75.4,9.8,75.5,9.7,75.4,9.5z M75.8,12.4c-0.1-0.4-0.1-0.7,0-0.9c0-0.2,0-0.4-0.1-0.6
		c-0.3,0-0.4,0.2-0.5,0.4c-0.1,0.2-0.2,0.4-0.4,0.4c0,0.2,0,0.3-0.1,0.3c-0.1,0.1-0.1,0.2-0.2,0.3c-0.2,0.3-0.3,0.5-0.4,0.6
		c-0.1,0.1-0.2,0.2-0.3,0.2c-0.1,0.2-0.1,0.4-0.2,0.6c-0.1,0.2-0.3,0.3-0.5,0.4c0,0.2,0,0.3,0,0.4s-0.2,0.2-0.3,0.2
		c-0.1,0.4,0,0.6,0.2,0.7c0.2,0.1,0.3,0.1,0.4,0.1c0.1-0.2,0.2-0.5,0.1-0.7c0.2-0.1,0.3-0.2,0.4-0.4c0.1-0.2,0.2-0.3,0.4-0.4
		c0-0.1,0.1-0.2,0.1-0.2c0.1-0.1,0.1-0.1,0.2-0.2c0-0.2,0.1-0.4,0.4-0.6s0.4-0.3,0.5-0.4C75.6,12.6,75.8,12.5,75.8,12.4
		C75.8,12.5,75.8,12.5,75.8,12.4z M73.1,0.8C73.1,0.8,73,1,73,1.1c-0.1,0.1,0,0.3,0.1,0.3c0-0.1,0.1-0.2,0.1-0.3
		C73.2,1,73.2,0.9,73.1,0.8z M73.7,7.3c-0.1,0.1-0.2,0.1-0.3,0.1c-0.1,0-0.1,0.1-0.2,0.3C73.1,7.6,73,7.4,73,7.3
		c0.2-0.1,0.3-0.2,0.3-0.2c0.1,0,0.2,0,0.3,0L73.7,7.3z M73.4,10.1c-0.1,0.1-0.2,0.1-0.4,0c0-0.1,0.1-0.2,0.2-0.2
		C73.3,9.9,73.4,10,73.4,10.1z M74.5,4.5c0-0.3,0-0.4-0.1-0.5s-0.2,0-0.3,0.2c-0.1,0-0.2,0-0.3,0c-0.2,0-0.2,0.1-0.1,0.3
		c-0.3,0.2-0.5,0.3-0.5,0.4c0,0.1-0.1,0.2-0.1,0.3c0,0.1,0,0.2,0,0.3C73.1,5.6,73,5.7,73,5.8c0.2-0.1,0.3-0.1,0.4-0.1s0.1,0,0.1-0.1
		c0-0.4,0-0.6,0.1-0.6c0,0,0.1,0,0.2,0.1c0-0.1,0.1-0.2,0.2-0.3c0.1-0.1,0.1-0.2,0.2-0.2c0.1-0.2,0.1-0.2,0.2-0.1
		C74.3,4.5,74.4,4.5,74.5,4.5z M73.5,11.8c-0.1,0.1-0.1,0.2-0.2,0.2c-0.1,0-0.1,0.1-0.1,0.2c0.1,0,0.2,0,0.2-0.1
		C73.4,12,73.4,11.9,73.5,11.8z M77,16.7c0.1-0.2,0.2-0.5,0.2-0.7c0-0.2-0.1-0.4-0.2-0.7c-0.1-0.2-0.2-0.4-0.3-0.6
		c-0.1-0.2-0.2-0.4-0.2-0.6c-0.2,0-0.3,0.1-0.4,0.2c-0.1,0.2-0.1,0.3-0.2,0.3c-0.1-0.3-0.1-0.5,0-0.6c0-0.1,0.1-0.2,0.2-0.3
		c0.1-0.1,0.1-0.2,0.2-0.3c0.1-0.1,0.1-0.3,0-0.4c-0.2,0-0.3,0.1-0.4,0.3c-0.1,0.2-0.2,0.3-0.3,0.2c-0.3,0.4-0.5,0.8-0.6,1
		c-0.1,0.3-0.2,0.3-0.4,0.2c-0.1,0.1-0.1,0.2-0.1,0.3c0,0.1,0,0.2-0.1,0.3c-0.1,0.1-0.2,0.1-0.3,0.1c-0.1,0-0.1,0.1-0.2,0.1
		c0,0.2-0.1,0.4-0.2,0.7c-0.1,0.3-0.3,0.5-0.4,0.8c0.2,0.3,0.2,0.4,0.2,0.4c0,0,0,0,0.1,0c0-0.2,0.1-0.4,0.3-0.6
		c0.1-0.1,0.3-0.3,0.4-0.4c0.1-0.1,0.3-0.3,0.4-0.4c0.1-0.1,0.2-0.3,0.2-0.5c0.2-0.3,0.3-0.5,0.4-0.5c0.1,0,0.1-0.1,0.2-0.2
		c0,0,0.1,0,0.2,0.1s0.2,0,0.2,0c0.2,0.3,0.2,0.5,0.2,0.6c0,0.1,0,0.3-0.1,0.4c-0.1,0.1-0.2,0.3-0.3,0.4c-0.1,0.1-0.2,0.3-0.2,0.4
		c-0.2,0.7-0.5,1.3-1,1.6c-0.2,0.3-0.3,0.5-0.2,0.5c0,0,0.1,0,0,0.1C74,19.4,74,19.7,73.9,20c0,0.3,0.1,0.5,0.5,0.5
		c0.2-0.3,0.3-0.5,0.3-0.6c0-0.1,0.1-0.2,0.1,0c0.2-0.3,0.3-0.4,0.3-0.4c0,0,0.1,0,0.1,0c0.1-0.2,0.2-0.4,0.2-0.5
		c0-0.1,0.1-0.1,0.2-0.1c0-0.3,0-0.4,0.1-0.5c0.1-0.1,0.2-0.2,0.4-0.2c0-0.3,0-0.4,0.1-0.5c0.1,0,0.1-0.1,0.2-0.2
		c0.1-0.3,0.2-0.5,0.2-0.6C76.7,16.8,76.8,16.8,77,16.7z M73.9,6.3c0,0,0.1,0.1,0.1,0.2c0,0.1,0,0.2-0.1,0.2c0,0.1-0.1,0.1-0.1,0.1
		c-0.1,0-0.1,0-0.1,0c0-0.2,0-0.2,0.1-0.2C73.8,6.5,73.9,6.5,73.9,6.3z M73.9,18c-0.1,0.1-0.1,0.2-0.1,0.3c0,0.1-0.1,0.2-0.1,0.3
		c0.2,0.1,0.3,0,0.4-0.2C74.1,18.2,74,18.1,73.9,18z M74.2,8.8c-0.1,0.1-0.1,0.2-0.1,0.3c0,0.1-0.1,0.1-0.2,0.1c0-0.3,0-0.5,0.2-0.5
		C74.1,8.7,74.1,8.7,74.2,8.8z M74.6,17c-0.1,0.1-0.2,0.2-0.4,0.4c-0.1,0.2-0.2,0.4-0.2,0.6c0.1,0,0.2-0.1,0.2-0.2
		c0-0.1,0-0.2,0-0.3C74.5,17.4,74.6,17.2,74.6,17z M77.4,17.1c-0.2,0-0.3,0.1-0.4,0.3c-0.1,0.2-0.2,0.3-0.4,0.3
		c-0.1,0.3-0.2,0.6-0.3,0.8c-0.2,0.2-0.3,0.5-0.5,0.7c0,0.3-0.1,0.4-0.2,0.5c-0.1,0.1-0.3,0.1-0.4,0.2c0,0.2,0,0.3-0.1,0.4
		s-0.2,0.2-0.2,0.3c-0.1,0.1-0.2,0.2-0.2,0.3c-0.1,0.1-0.1,0.3,0,0.5c0.4-0.4,0.7-0.8,0.9-1c0.2-0.2,0.3-0.5,0.5-0.7
		c0.2-0.2,0.3-0.5,0.5-0.7c0.2-0.2,0.3-0.5,0.5-0.7c0-0.3,0.1-0.4,0.2-0.5S77.4,17.4,77.4,17.1z M75.2,16.1
		c-0.1,0.1-0.2,0.2-0.2,0.3c0,0.1-0.1,0.2-0.3,0.2c0,0.1,0.1,0.2,0.1,0.2c0.1,0,0.1-0.1,0.2-0.2c0.1-0.1,0.1-0.2,0.2-0.3
		C75.2,16.2,75.2,16.2,75.2,16.1z M77.9,18.3c-0.4,0.4-0.7,0.7-1,1c-0.3,0.3-0.6,0.6-0.8,0.9c0,0.3-0.1,0.5-0.3,0.7
		c-0.2,0.2-0.3,0.4-0.6,0.6c-0.1,0.3-0.1,0.5-0.2,0.6c-0.1,0.1-0.2,0.3-0.3,0.5c0.2,0.1,0.3,0.2,0.3,0.1c0-0.1,0-0.1,0.2,0
		c0.1-0.3,0.1-0.5,0.1-0.5c0,0,0-0.1,0-0.2c0.1,0,0.2,0,0.3,0c0.1-0.1,0.1-0.1,0.2-0.2c0.1-0.1,0.1-0.2,0.2-0.3
		c0-0.1,0.1-0.1,0.3-0.1c0.2-0.3,0.2-0.4,0.2-0.4c0,0-0.1-0.1-0.1-0.1c0.2-0.2,0.4-0.5,0.6-0.8c0.2-0.3,0.4-0.5,0.7-0.6
		C77.7,18.9,77.8,18.6,77.9,18.3z M78.6,20.6c-0.1,0-0.2-0.1-0.1-0.3c0.1-0.2,0.1-0.3,0.1-0.3c-0.1-0.1-0.2-0.1-0.2-0.1
		c-0.1,0-0.2,0.1-0.2,0.1c-0.1,0.1-0.1,0.1-0.2,0.2c-0.1,0.1-0.2,0.1-0.3,0c0,0.2-0.1,0.4-0.1,0.5s-0.1,0.1-0.2,0.1
		c0,0.2,0,0.4-0.1,0.4c-0.1,0-0.2,0.1-0.3,0.3c0,0.3,0,0.4-0.2,0.4c-0.2,0-0.3,0.1-0.4,0.3c-0.1,0.4-0.3,0.7-0.5,1
		c-0.2,0.3-0.4,0.6-0.5,0.9c0,0.1,0.1,0.2,0.1,0.3c0,0.1,0,0.2,0,0.3c0.1,0,0.2,0,0.3-0.1c0.1-0.1,0.1-0.2,0.2-0.3
		c0-0.1,0.1-0.2,0.2-0.2c0-0.1,0.1-0.1,0.2,0c0.1-0.3,0.2-0.5,0.2-0.6c0-0.1,0.1-0.1,0.2,0c0.1-0.6,0.4-1.1,0.7-1.4
		c0.4-0.3,0.7-0.7,0.9-1.2L78.6,20.6z M79.2,22.2c0-0.3-0.1-0.4-0.2-0.4c-0.1,0-0.3,0-0.4,0c0,0.2,0,0.3-0.1,0.3
		c-0.1,0-0.2,0-0.3,0.1c-0.1,0.4-0.2,0.6-0.2,0.7c-0.1,0.2-0.1,0.3-0.2,0.4c-0.1,0.1-0.1,0.1-0.2,0c-0.1,0.2-0.2,0.3-0.2,0.4
		s-0.2,0.2-0.2,0.3c-0.1,0.1-0.1,0.3-0.2,0.4c-0.1,0.1-0.2,0.2-0.3,0.2c-0.2,0.5-0.3,0.8-0.5,0.9c-0.2,0.1-0.3,0.2-0.5,0.3
		c0,0.2,0,0.4,0.1,0.5c0.1,0.1,0.1,0.3,0,0.5c0.2,0.1,0.3,0.1,0.4,0.1c0.1,0,0.2-0.1,0.2-0.1c0-0.1,0.1-0.2,0.1-0.3
		c0.1-0.1,0.1-0.2,0.2-0.2l0.3-0.3c-0.1-0.3,0-0.4,0.1-0.5c0.2-0.1,0.2-0.2,0.2-0.3c0.2-0.1,0.3-0.2,0.4-0.2c0.1,0,0.2-0.1,0.2-0.1
		c0.2-0.7,0.4-1,0.5-1.1c0.2-0.1,0.3-0.2,0.5-0.5c0-0.1,0.1-0.2,0.2-0.4S79.2,22.3,79.2,22.2z M76.7,36.5c-0.1-0.1-0.2-0.1-0.3,0
		c-0.1,0.1-0.2,0.2-0.3,0.2c0.2,0.1,0.3,0.2,0.4,0.1c0.1,0,0.1-0.1,0.2-0.1L76.7,36.5z M79.5,24c-0.1,0-0.2,0.1-0.3,0.2
		c-0.1,0.1-0.2,0.1-0.3,0c-0.1,0.2-0.1,0.3-0.2,0.4c0,0.1-0.1,0.1-0.2,0.1c-0.1,0.3-0.3,0.6-0.4,0.8c-0.1,0.2-0.3,0.5-0.5,0.7
		c-0.2,0.2-0.3,0.4-0.5,0.6c-0.1,0.2-0.3,0.3-0.4,0.4c0,0.1-0.1,0.2-0.1,0.2c0,0-0.1,0.1-0.1,0.1s0,0.1-0.1,0.1c0,0,0,0-0.1-0.1
		c0,0.3,0,0.5-0.1,0.5c-0.1,0-0.1,0.1-0.2,0.3c0.3,0.1,0.4,0.1,0.5,0c0.1-0.1,0.2-0.1,0.3-0.2c0.2-0.4,0.3-0.7,0.4-0.9
		c0-0.2,0.2-0.4,0.4-0.4c0.3-0.6,0.6-1.1,1-1.4C79.1,25.1,79.4,24.6,79.5,24z M79.7,25.6c-0.2,0-0.3,0.1-0.3,0.2
		c-0.1,0.1-0.1,0.2-0.2,0.3c-0.1,0.1-0.1,0.2-0.2,0.3c-0.1,0.1-0.2,0.2-0.3,0.2c-0.3,0.7-0.6,1.2-1,1.7c-0.4,0.5-0.7,1-1.1,1.6
		c0.1,0.4,0.1,0.6,0.2,0.7c0,0.1,0.1,0.2,0.2,0.3c0.1-0.3,0.2-0.5,0.3-0.6c0.1-0.1,0.2-0.3,0.2-0.5c0.2-0.2,0.3-0.4,0.4-0.7
		c0.1-0.3,0.2-0.5,0.5-0.7c0.2-0.2,0.3-0.4,0.3-0.4c0,0,0.1-0.1,0.1-0.2c0-0.1,0-0.1,0.1-0.2c0-0.1,0.1-0.1,0.2-0.1
		c0-0.2,0-0.4,0.1-0.5c0.1-0.1,0.2-0.3,0.3-0.4c0.1-0.1,0.2-0.3,0.2-0.4C79.7,26,79.7,25.8,79.7,25.6z M80.1,27.9
		c-0.1-0.3-0.1-0.5-0.2-0.5s-0.1,0-0.2,0.1c-0.1,0.2-0.2,0.4-0.3,0.6c-0.1,0.2-0.1,0.4-0.2,0.6c-0.1,0.1-0.2,0.2-0.4,0.1
		c-0.2,0-0.3,0-0.4,0c0.1,0.1,0.2,0.2,0.3,0.2c0.1,0,0.2,0,0.3,0.1c-0.3,0.2-0.5,0.5-0.6,0.7c-0.1,0.2-0.3,0.4-0.5,0.5
		c-0.1,0.2-0.1,0.5,0,0.7c-0.2,0-0.3,0.1-0.4,0.2c-0.1,0.1-0.3,0.1-0.5,0.1c0.1,0.2,0.2,0.4,0.3,0.6c0.1,0.2,0.2,0.4,0.4,0.4
		c0.2,0,0.3,0,0.3,0c0.1,0,0.1,0,0.1-0.1c-0.1-0.1-0.1-0.1-0.1-0.2c0-0.1-0.1-0.2-0.1-0.3c0.1-0.2,0.3-0.3,0.5-0.5
		c0.2-0.2,0.4-0.3,0.5-0.4c0-0.3,0-0.4,0.2-0.5s0.2-0.2,0.2-0.4c0.1,0,0.2,0,0.2-0.2c0-0.2,0.1-0.2,0.2-0.1c0-0.3,0.2-0.4,0.3-0.4
		c0.1-0.2,0.2-0.4,0.3-0.7C80.4,28.4,80.3,28.2,80.1,27.9z M77.4,9.2c0,0.2,0,0.3-0.1,0.5c0,0.2-0.1,0.3-0.2,0.3
		c-0.1-0.5-0.1-0.7,0-0.8C77.3,9.1,77.3,9.1,77.4,9.2z M78.7,14.2c0,0.2-0.1,0.4-0.2,0.5c-0.1,0.1-0.2,0.3-0.1,0.6
		c-0.2-0.3-0.3-0.5-0.2-0.5c0.1,0,0.1,0,0.1-0.2C78.1,14.7,78,14.8,78,15c-0.1,0.2-0.2,0.2-0.3,0c0-0.1,0.1-0.2,0.2-0.2
		c0.1,0,0.2-0.1,0.3-0.1c0.1-0.2,0.2-0.3,0.3-0.4C78.5,14.1,78.6,14.1,78.7,14.2z M81.1,32.2c-0.3,0.1-0.5,0.3-0.6,0.5
		s-0.4,0.4-0.5,0.6c-0.1,0.1-0.1,0.2-0.2,0.2c-0.1,0-0.1,0.1,0,0.2c-0.3,0.3-0.4,0.3-0.4,0.2c0-0.1,0-0.2-0.1-0.1
		c0,0.4-0.1,0.6-0.2,0.7c-0.1,0-0.2,0.1-0.3,0c0,0.3,0,0.5-0.1,0.6c-0.1,0.1-0.1,0.2-0.3,0.3c0,0.1,0,0.2-0.1,0.3
		c-0.1,0.1-0.1,0.2-0.2,0.2C78,36,78,36.1,77.9,36.2c-0.1,0.1-0.1,0.2-0.1,0.4c0.4-0.1,0.7-0.3,0.9-0.7c0.2-0.4,0.4-0.8,0.6-1.1
		c0.2-0.4,0.3-0.6,0.5-0.7s0.3-0.2,0.5-0.4c0.1,0.1,0.2,0.2,0.3,0.3s0.3,0,0.4,0c-0.1-0.2-0.2-0.2-0.3-0.2c-0.1,0-0.1,0.1-0.2,0.1
		c0.1-0.4,0.2-0.6,0.3-0.7c0.1-0.2,0.3-0.3,0.4-0.5C81.3,32.5,81.3,32.3,81.1,32.2z M80.9,31.2c-0.1-0.2-0.2-0.3-0.4-0.2
		c-0.2,0-0.3,0.1-0.3,0.1c0-0.2,0.1-0.3,0.2-0.3c0.1,0,0.2,0,0.3,0c0-0.2,0-0.3,0-0.5c0-0.2,0-0.3,0.1-0.5c-0.1-0.2-0.3-0.2-0.5-0.1
		c-0.2,0.1-0.3,0.3-0.3,0.5c-0.3,0-0.4,0.1-0.4,0.3c0,0.2-0.1,0.3-0.4,0.3c-0.1,0.4-0.2,0.6-0.3,0.8c-0.1,0.2-0.3,0.3-0.4,0.4
		c0,0.2,0,0.4-0.1,0.5c-0.1,0.2-0.2,0.3-0.4,0.3c0,0.3,0,0.5-0.1,0.7c-0.1,0.2-0.1,0.4,0.1,0.6c0.1,0,0.2,0,0.3-0.1
		c0-0.1,0.1-0.2,0.2-0.3c-0.1-0.2,0-0.3,0.1-0.5c0.1-0.2,0.3-0.3,0.5-0.3c0-0.1,0-0.2,0.1-0.3c0.1-0.1,0.2-0.2,0.2-0.4
		c0.1-0.2,0.2-0.3,0.3-0.4c0.1,0,0.2,0,0.3,0c0-0.3,0-0.5,0-0.5c0,0,0.1-0.1,0.1-0.1c0.1,0.1,0.1,0.2,0.2,0.3c0.1,0,0.2,0.1,0.3,0.1
		C80.6,31.4,80.7,31.3,80.9,31.2z M78.7,17.8l-0.3-0.4c0,0.2,0,0.3-0.1,0.4c-0.1,0.1-0.1,0.2,0.1,0.3c0-0.2,0-0.3,0.1-0.3
		C78.5,17.9,78.6,17.8,78.7,17.8z M79,23.7c-0.1,0-0.2,0-0.3,0.1c-0.1,0.1-0.1,0.2-0.1,0.2c0.1-0.1,0.1-0.1,0.2-0.1
		C79,23.9,79,23.8,79,23.7z M80.2,34.6c-0.1,0.2-0.3,0.3-0.4,0.4c-0.1,0.1-0.3,0.2-0.4,0.3c0.2,0,0.4-0.1,0.5-0.3
		C80,34.9,80.1,34.8,80.2,34.6z M80.2,36.6c-0.1-0.1-0.1-0.2-0.1-0.3s0-0.3,0-0.3c-0.1,0.3-0.3,0.5-0.5,0.7
		C79.8,36.9,80,36.8,80.2,36.6z M81.7,34.1c-0.1,0-0.2,0-0.2,0.1c0,0.1-0.1,0.1-0.2,0.1c0,0.2,0,0.3-0.1,0.3c-0.1,0-0.2,0-0.3,0
		c0,0.3-0.1,0.5-0.3,0.7c-0.2,0.2-0.3,0.4-0.5,0.6c0.4-0.1,0.6-0.2,0.6-0.4c0.1-0.2,0.2-0.3,0.4-0.2c0-0.3,0.1-0.5,0.3-0.7
		C81.5,34.5,81.6,34.3,81.7,34.1z M82.6,35c-0.3,0-0.5,0.1-0.6,0.2c-0.1,0.1-0.2,0.2-0.4,0.2c0,0.2,0,0.3-0.1,0.3
		c-0.1,0-0.2,0.1-0.3,0.1c0,0.3-0.1,0.4-0.2,0.5c-0.1,0.1-0.2,0.2-0.2,0.4c0.1,0.1,0.2,0.1,0.2,0c0.1-0.1,0.1-0.1,0.2-0.2
		c0-0.1,0.1-0.2,0.2-0.2c0.1-0.1,0.1-0.1,0.2,0c0-0.2,0.1-0.3,0.2-0.4c0.1-0.1,0.2-0.2,0.3-0.2c0-0.2,0-0.3,0.1-0.4
		C82.4,35.1,82.5,35,82.6,35z M82.4,25.7c-0.2,0.1-0.3,0.1-0.3,0c-0.1-0.1-0.2-0.1-0.3,0c0-0.2,0.1-0.3,0.2-0.1
		C82.2,25.6,82.3,25.7,82.4,25.7z M82.3,26.2c-0.1,0.2-0.1,0.3-0.2,0.3c-0.1,0.1-0.2,0.2-0.2,0.3c0-0.2,0-0.3,0.1-0.4
		C82.1,26.3,82.2,26.2,82.3,26.2z M82.9,35.8c-0.3,0.1-0.4,0.1-0.4,0.1c0,0,0,0.1,0,0.2c0.1,0,0.2,0,0.2,0
		C82.9,36,82.9,35.9,82.9,35.8z M83.4,35.7c0-0.3-0.2-0.5-0.4-0.5c-0.2,0-0.4,0.1-0.5,0.4c0.1,0,0.1-0.1,0.2-0.1c0,0,0.1,0,0.2,0
		c0,0.1,0.1,0.2,0.2,0.3C83.3,35.7,83.4,35.7,83.4,35.7z M83.4,33.5c-0.1,0.1-0.2,0.1-0.3,0.1c-0.1,0-0.2,0.1-0.3,0.1
		c0,0.2,0,0.3,0.1,0.3c0.1,0,0.1,0.1,0.1,0.2c0.2-0.2,0.3-0.4,0.4-0.4C83.3,33.7,83.3,33.6,83.4,33.5z M84.3,36.3
		c0-0.2,0-0.3-0.1-0.3c-0.1,0-0.2,0-0.3,0c0,0.3,0.1,0.5,0.1,0.4C84,36.3,84.1,36.3,84.3,36.3z"/>
	<path d="M61.6,21.4c-0.8,0.3-1.5,0.4-2.2,0.4c-0.7,0-1.3,0.1-2,0.1c-0.3-0.1-0.5-0.1-0.7-0.2c-0.2,0-0.3-0.1-0.4-0.3
		c-0.4,0.1-0.8,0.2-1.3,0.3c-0.5,0.1-0.9,0.1-1.3-0.2c-0.1,0.2-0.3,0.3-0.6,0.3c-0.3,0-0.5,0-0.7,0c-0.2,0.1-0.3,0.2-0.6,0.2
		s-0.4,0-0.6-0.1c-0.1,0.1-0.2,0.2-0.3,0.1c-0.1-0.1-0.2-0.1-0.4-0.1c-0.1-0.1-0.1-0.2-0.2-0.4c-0.1-0.2-0.1-0.4,0-0.6
		c0,0,0.1,0,0.2,0.1c0,0,0.1,0.1,0.3,0c0.3-0.3,0.5-0.4,0.7-0.5c0.2-0.1,0.3,0,0.5,0.1c0.2-0.2,0.4-0.2,0.7-0.1
		c0.2,0.1,0.5,0,0.7-0.1c0,0.1,0.1,0.1,0.2,0c0.1-0.1,0.2-0.1,0.4-0.1c0.1,0,0.2,0,0.3,0c0.1,0.1,0.2,0.1,0.2,0
		c0.1,0,0.3-0.1,0.4-0.2c0.1-0.1,0.3-0.1,0.4-0.2c0.3,0,0.7,0,1,0.1c0.1-0.2,0.3-0.3,0.5-0.3c0.2,0,0.4,0,0.6,0
		c0.1-0.1,0.2-0.2,0.3-0.1c0.1,0,0.3,0.1,0.4,0c0.4,0,0.7,0,1,0.1c0.3,0.1,0.6,0.1,0.8,0c0.3,0.1,0.5,0.1,0.7,0
		c0.2-0.1,0.3-0.2,0.5-0.1c0,0.1,0.1,0.2,0.2,0.3c0.1,0.1,0.1,0.2,0.2,0.4c-0.1,0.3-0.1,0.5-0.1,0.6S61.5,21.3,61.6,21.4z"/>
</g>
</svg>
