<?xml version="1.0" encoding="utf-8"?>
<!-- Generator: Adobe Illustrator 23.1.0, SVG Export Plug-In . SVG Version: 6.00 Build 0)  -->
<svg version="1.1" id="Layer_1" xmlns="http://www.w3.org/2000/svg" xmlns:xlink="http://www.w3.org/1999/xlink" x="0px" y="0px"
	 viewBox="0 0 704.4 298.5" style="enable-background:new 0 0 704.4 298.5;" xml:space="preserve">
<style type="text/css">
	.st0{fill:#231F20;}
</style>
<g>
	<path class="st0" d="M42.8,0.6C42.7-0.9,42.8,0.9,42.8,0.6L42.8,0.6z"/>
	<path class="st0" d="M42.7,1.7c-0.1-0.2,0-0.7-0.2-0.9c-0.4,0.4,0.4,0.4-0.2,2C43.1,3.5,42.7,3.9,42.7,1.7z"/>
	<path class="st0" d="M41.1,75.9c0-0.1,0-0.2,0-0.3C41.1,75.7,41.1,75.8,41.1,75.9z"/>
	<path class="st0" d="M41.8,45.2l-0.1,0.7C41.8,45.9,41.8,45.5,41.8,45.2z"/>
	<path class="st0" d="M43.3,8.6c0-0.1-0.1-0.3-0.1-0.4C43.1,8.3,43.1,8.5,43.3,8.6z"/>
	<path class="st0" d="M41.3,33.2l0.2,0.4C41.4,33.6,41.6,33.4,41.3,33.2z"/>
	<path class="st0" d="M42,10.6c0-0.1,0-0.2,0-0.2L42,10.6z"/>
	<path class="st0" d="M45.7,288.2C45.6,288.2,45.6,288.2,45.7,288.2C45.6,288.3,45.7,288.3,45.7,288.2z"/>
	<path class="st0" d="M43.1,298.3l0.2,0.2C43.3,298.5,43.4,298.3,43.1,298.3z"/>
	<path class="st0" d="M40.6,84.1C40.6,84.1,40.6,84.1,40.6,84.1C40.6,83.8,40.6,83.9,40.6,84.1z"/>
	<path class="st0" d="M41.1,159.3c0.4-0.9,0.5,1.4,1,0.1C41.8,159.6,41.3,158.3,41.1,159.3z"/>
	<path class="st0" d="M43.2,8.9l0,0.4C43.2,9.1,43.2,9,43.2,8.9z"/>
	<path class="st0" d="M40.9,103c0.1,0,0.1-0.1,0.2-0.2C41,102.8,41,102.8,40.9,103z"/>
	<path class="st0" d="M41.5,110.8c0.1-0.2,0,0,0-0.5C41.5,110.5,41.4,110.5,41.5,110.8z"/>
	<path class="st0" d="M41.6,117.5l-0.1,0.4C41.5,117.8,41.6,117.8,41.6,117.5z"/>
	<path class="st0" d="M44.9,265.5c0.3-0.1,0.5,1,0.4-0.4C45.2,265.3,45.1,265.4,44.9,265.5z"/>
	<path class="st0" d="M43.1,8.6c0.1,0,0.1,0.1,0.1,0.2C43.2,8.9,43.3,8.6,43.1,8.6z"/>
	<path class="st0" d="M44.8,110.6l-0.1,1.2C44.8,111.4,44.8,111,44.8,110.6z"/>
	<path class="st0" d="M45.1,210.8c0-0.1,0-0.2-0.1-0.3L45.1,210.8z"/>
	<path class="st0" d="M44.7,116.2l0.2-0.8C44.8,115.5,44.5,115.5,44.7,116.2z"/>
	<path class="st0" d="M41.9,249.8c0-0.1,0.3-0.1,0-0.3c0,0.1,0,0.1,0,0.2C41.8,249.7,41.9,249.8,41.9,249.8z"/>
	<path class="st0" d="M41.9,44.8C41.9,44.8,41.9,44.8,41.9,44.8C41.9,44.8,41.9,44.8,41.9,44.8z"/>
	<path class="st0" d="M41.9,44.9C41.9,44.8,41.9,44.8,41.9,44.9C41.9,44.8,41.9,44.8,41.9,44.9z"/>
	<polygon class="st0" points="45.2,213.1 45.1,213.1 45.2,213.3 	"/>
	<path class="st0" d="M43.1,32.4c0,0,0.1-0.1,0.1-0.2C43.2,32.2,43.1,32.3,43.1,32.4z"/>
	<path class="st0" d="M43.1,27l0.1-0.8C43.2,26.6,43.1,26.8,43.1,27z"/>
	<path class="st0" d="M43.3,22.9c-0.1-0.1-0.1-0.1-0.1-0.1C43.1,22.8,43.1,22.8,43.3,22.9z"/>
	<path class="st0" d="M44.2,88.6c0,0.1,0,0.1,0,0.2C44.3,89.1,44.2,88.9,44.2,88.6z"/>
	<path class="st0" d="M43.1,69c0.1,0.2,0.1,0.4,0.2,0.6C43.3,69.3,43.3,69,43.1,69z"/>
	<path class="st0" d="M44.8,110.4L44.8,110.4c0,0,0,0.1,0,0.1L44.8,110.4z"/>
	<path class="st0" d="M43.3,70.6c0.1-0.3,0.1-0.6,0-0.9C43.3,70,43.2,70.3,43.3,70.6z"/>
	<path class="st0" d="M43.2,4.8C43.2,4.8,43.2,4.7,43.2,4.8l0,0.2L43.2,4.8z"/>
	<path class="st0" d="M43.1,4.5c0,0.1,0,0.2,0,0.2L43.1,4.5z"/>
	<path class="st0" d="M43,4l0.1,0.5C43.1,4.3,43.1,4.1,43,4z"/>
	<path class="st0" d="M43.3,10.5c0,0.2,0,0.3,0,0.4C43.3,10.7,43.3,10.6,43.3,10.5z"/>
	<path class="st0" d="M43.2,12.1c-0.1-0.4,0.1-0.1,0.1-1.2C43.2,11.3,43.1,11.8,43.2,12.1z"/>
	<path class="st0" d="M41.7,19l0.1-1.4c-0.1,0.2-0.3,0.6-0.3-0.1C41.1,19.3,41.8,17.2,41.7,19z"/>
	<path class="st0" d="M41.6,23.4c-0.1-0.7-0.2,0-0.3,0C41.4,23.8,41.4,23.9,41.6,23.4z"/>
	<path class="st0" d="M41.6,54.6l-0.3-0.1C41.3,55.1,41.4,54.5,41.6,54.6z"/>
	<path class="st0" d="M43.4,60.5L43.4,60.5C43.4,60.5,43.4,60.6,43.4,60.5z"/>
	<path class="st0" d="M41,64.7C41,64.8,41,64.8,41,64.7L41,64.7z"/>
	<path class="st0" d="M41,64.7c0-0.1,0-0.4-0.1-0.9L41,64.7z"/>
	<path class="st0" d="M41.1,116.5l0.5-0.2C41.5,116,41,115.9,41.1,116.5z"/>
	<path class="st0" d="M41.7,139.2c-0.2,0.2-0.4,0.9-0.2,1.3C41.6,139.9,41.7,139.4,41.7,139.2z"/>
	<polygon class="st0" points="41,207.1 40.8,206.6 41,207.5 	"/>
	<path class="st0" d="M41,35.7L41,35.7C41,35.8,41.2,36,41,35.7z"/>
	<path class="st0" d="M41.2,35.9C41.1,35.9,41.1,35.8,41.2,35.9C41.2,35.9,41.2,35.9,41.2,35.9z"/>
	<path class="st0" d="M41.2,35.9C41.2,35.9,41.2,35.9,41.2,35.9C41.2,35.9,41.2,35.9,41.2,35.9C41.2,35.9,41.2,35.9,41.2,35.9z"/>
	<path class="st0" d="M41.2,35.9C41.2,35.9,41.2,35.9,41.2,35.9C41.2,35.9,41.2,35.9,41.2,35.9c0,0-0.1-0.1-0.2-0.2
		C41.1,35.8,41,35.8,41.2,35.9z"/>
	<path class="st0" d="M41,35.6C41,35.7,41,35.7,41,35.6C41,35.7,41,35.7,41,35.6z"/>
	<path class="st0" d="M41.1,35.8c0,0,0,0,0.1,0.1C41.2,35.9,41.1,35.8,41.1,35.8z"/>
	<path class="st0" d="M41.1,35.7L41.1,35.7C41.1,35.6,41.1,35.6,41.1,35.7z"/>
	<path class="st0" d="M9.6,33.5L9.6,33.5C9.7,33.5,9.7,33.5,9.6,33.5z"/>
	<path class="st0" d="M8.8,34l0.7-0.5C8.9,33.5,6.8,33.5,8.8,34z"/>
	<path class="st0" d="M14.9,34.3c0.4,0.1,0,0.2-0.1,0.3c2-1.4,2.2-0.3-2.5-0.6c-0.4,0.1-1.6-0.1-2.1,0.2
		C11.4,34.6,13.1,34.6,14.9,34.3z"/>
	<path class="st0" d="M113.5,36.4l-0.6-0.1C113.1,36.4,113.3,36.4,113.5,36.4z"/>
	<path class="st0" d="M185.2,38.1c-0.2,0-0.4,0-0.6,0C184.8,38.1,185,38.1,185.2,38.1z"/>
	<path class="st0" d="M113.5,36.4l1.6,0.2C115.3,36.4,114.3,36.5,113.5,36.4z"/>
	<path class="st0" d="M27.5,33.7c0,0,0.1,0,0.1,0C27.6,33.7,27.6,33.7,27.5,33.7z"/>
	<path class="st0" d="M28.4,33.6c-0.3,0-0.6,0.1-0.8,0.1C27.7,33.7,27.7,33.8,28.4,33.6z"/>
	<path class="st0" d="M85.6,36.7l0.9-0.2C86.4,36.5,86.1,36.4,85.6,36.7z"/>
	<path class="st0" d="M86.5,36.5L86.5,36.5C86.5,36.5,86.6,36.5,86.5,36.5z"/>
	<path class="st0" d="M33,35.3c-0.2,0-0.4,0-0.6,0.1L33,35.3z"/>
	<path class="st0" d="M101.6,36.9c0-0.1-0.1-0.1-0.2-0.2C101.4,36.8,101.5,36.9,101.6,36.9z"/>
	<path class="st0" d="M680.4,40C680.4,40,680.4,40,680.4,40C680.5,40,680.6,40,680.4,40z"/>
	<path class="st0" d="M704,42.5l0.4-0.2C704.3,42.2,704,42.2,704,42.5z"/>
	<path class="st0" d="M704.4,42.2L704.4,42.2C704.4,42.3,704.4,42.3,704.4,42.2z"/>
	<path class="st0" d="M204.3,38.8C204.2,38.8,204.2,38.8,204.3,38.8C203.7,38.9,204,38.9,204.3,38.8z"/>
	<path class="st0" d="M379.8,40.7c-2-0.4,3.2-0.4,0.3-0.9C380.3,40,377.3,40.4,379.8,40.7z"/>
	<path class="st0" d="M28.9,33.6c0.3,0,0.6,0,0.8,0C29.4,33.6,29.1,33.6,28.9,33.6z"/>
	<path class="st0" d="M248.3,39.1c-0.1-0.1-0.3-0.1-0.4-0.2C247.9,39,248,39,248.3,39.1z"/>
	<path class="st0" d="M215.5,38.1l0.8,0.1C216,38.2,215.7,38.1,215.5,38.1z"/>
	<path class="st0" d="M265.7,38.8c0.2,0,0.4,0,0.8,0C266.2,38.7,266.5,38.8,265.7,38.8z"/>
	<path class="st0" d="M282.2,38.9l0.9,0.1C282.9,38.9,283,38.8,282.2,38.9z"/>
	<path class="st0" d="M626.5,39.8c0.4,0.1,0.6,0.3,0.8,0.4C627.1,39.9,629.7,39.8,626.5,39.8z"/>
	<path class="st0" d="M28.4,33.8c0.1-0.1,0.2-0.1,0.5-0.2C28.7,33.6,28.4,33.5,28.4,33.8z"/>
	<path class="st0" d="M28.9,33.6C28.9,33.6,28.9,33.6,28.9,33.6C28.9,33.6,29,33.6,28.9,33.6z"/>
	<path class="st0" d="M266.1,35.4l2.8,0.1C268.2,35.5,267.1,35.4,266.1,35.4z"/>
	<path class="st0" d="M499.3,38.6l0.6,0C499.7,38.6,499.4,38.6,499.3,38.6z"/>
	<path class="st0" d="M279.2,35.8l-1.9-0.2C277.7,35.6,277.5,35.9,279.2,35.8z"/>
	<path class="st0" d="M19.1,34.3c0.1,0,0.2,0,0.3,0L19.1,34.3z"/>
	<path class="st0" d="M651,39.7c0,0,0.1,0,0.1,0.1C651.1,39.8,651,39.8,651,39.7z"/>
	<path class="st0" d="M214,35.4c0.2,0,0.5-0.1,0.9-0.1C214.3,35.3,214.1,35.3,214,35.4z"/>
	<path class="st0" d="M679.8,296.9C679.8,296.9,679.8,296.9,679.8,296.9C679.8,296.9,679.8,296.9,679.8,296.9z"/>
	<path class="st0" d="M679.8,296.9c0,0-0.1,0-0.2,0C679.8,296.9,679.8,296.9,679.8,296.9z"/>
	<path class="st0" d="M678.9,296.4c0.1,0,0.2,0,0.2,0C679.1,296.4,679,296.4,678.9,296.4z"/>
	<path class="st0" d="M213.9,35.5C213.9,35.5,213.9,35.5,213.9,35.5C213.9,35.5,214,35.4,213.9,35.5
		C213.9,35.4,213.9,35.5,213.9,35.5z"/>
	<path class="st0" d="M683,294.8C683.1,294.8,683.1,294.8,683,294.8L683,294.8z"/>
	<path class="st0" d="M683.1,295.5c0.1,0,0.2,0,0.3,0C683.3,295.4,683.2,295.4,683.1,295.5z"/>
	<path class="st0" d="M680.1,297C680.1,297,680.1,297,680.1,297C680.1,297,680.1,297,680.1,297z"/>
	<path class="st0" d="M682.8,295.6C682.7,295.6,682.7,295.6,682.8,295.6C682.7,295.6,682.7,295.5,682.8,295.6z"/>
	<path class="st0" d="M610.7,42.6c-0.1,0-0.1,0-0.2,0c0,0,0,0-0.1,0C610.5,42.6,610.6,42.6,610.7,42.6z"/>
	<path class="st0" d="M681.5,108.7C681.6,110.4,682,109.6,681.5,108.7L681.5,108.7z"/>
	<path class="st0" d="M683,296.4C683.1,296.3,683.1,296.3,683,296.4L683,296.4z"/>
	<polygon class="st0" points="680.4,297.5 680.4,297.5 680.4,297.5 	"/>
	<path class="st0" d="M680,297.2C680,297.2,680,297.2,680,297.2C680,297.2,680,297.2,680,297.2z"/>
	<path class="st0" d="M680.1,297C680.1,297,680.1,297.1,680.1,297C680.1,297.1,680.1,297.1,680.1,297z"/>
	<path class="st0" d="M680.1,297.1C680,297.1,680,297.1,680.1,297.1C680,297.1,680,297.1,680.1,297.1z"/>
	<path class="st0" d="M683.3,279.6C683.3,279.6,683.2,279.6,683.3,279.6C683.3,279.7,683.3,279.6,683.3,279.6z"/>
	<path class="st0" d="M680.9,297.4L680.9,297.4C680.9,297.4,680.9,297.4,680.9,297.4z"/>
	<path class="st0" d="M45.8,279.5c0,0,0,0.1,0,0.1C45.7,279.6,45.8,279.6,45.8,279.5z"/>
	<path class="st0" d="M41.4,32.6C41.4,32.6,41.5,32.6,41.4,32.6C41.5,32.6,41.5,32.6,41.4,32.6z"/>
	<path class="st0" d="M607,275.8c-0.6,0-1.2,0.1-1.5,0.2C606.3,276.1,606.6,276,607,275.8z"/>
	<path class="st0" d="M679.5,294.5C679.5,294.5,679.5,294.5,679.5,294.5c0.1,0,0.1,0,0.2,0C679.6,294.5,679.5,294.5,679.5,294.5z"/>
	<path class="st0" d="M607.3,275.8c-0.1,0-0.1,0-0.2,0c0,0,0,0-0.1,0C607.1,275.8,607.2,275.8,607.3,275.8z"/>
	<path class="st0" d="M587.6,275.8C587.6,275.8,587.6,275.8,587.6,275.8C587.7,275.8,587.7,275.8,587.6,275.8z"/>
	<path class="st0" d="M470.4,276.3C470.4,276.3,470.4,276.3,470.4,276.3C470.4,276.3,470.4,276.3,470.4,276.3z"/>
	<path class="st0" d="M45.9,277.9c-0.1-0.1-0.2-0.1-0.3-0.2C45.7,277.8,45.8,277.9,45.9,277.9z"/>
	<path class="st0" d="M305.7,274.4C305.1,274.6,305.4,274.9,305.7,274.4L305.7,274.4z"/>
	<path class="st0" d="M679.4,294.5C679.4,294.5,679.4,294.5,679.4,294.5c0.1,0,0.1,0,0.2,0L679.4,294.5z"/>
	<path class="st0" d="M63.7,273.9c0,0,0.1,0,0.1,0C63.8,273.9,63.7,273.9,63.7,273.9z"/>
	<path class="st0" d="M38.8,273.4C38.8,273.4,38.8,273.4,38.8,273.4L38.8,273.4z"/>
	<path class="st0" d="M41.7,121.2c0-0.1,0-0.1,0-0.1C41.7,121.1,41.7,121.1,41.7,121.2z"/>
	<path class="st0" d="M42,133.1C41.8,132.9,41.5,132.9,42,133.1L42,133.1z"/>
	<path class="st0" d="M679.2,295.6c0,0,0,0-0.2,0C679.1,295.6,679.1,295.6,679.2,295.6z"/>
	<path class="st0" d="M40.8,83.5c0-0.2,0-0.3,0-0.3C40.8,83.4,40.8,83.5,40.8,83.5z"/>
	<path class="st0" d="M679.2,294.5C679.2,294.5,679.2,294.5,679.2,294.5C679.2,294.5,679.3,294.5,679.2,294.5
		C679.2,294.5,679.2,294.5,679.2,294.5z"/>
	<path class="st0" d="M41.8,240.6C41.8,240.6,41.8,240.6,41.8,240.6C41.8,240.5,41.8,240.5,41.8,240.6z"/>
	<path class="st0" d="M277,274.6c-0.1,0-0.2,0-0.3,0C276.9,274.6,277,274.6,277,274.6z"/>
	<path class="st0" d="M679,294.5c0,0,0.1,0,0.1,0c0.1,0,0.3,0,0.3,0L679,294.5z"/>
	<path class="st0" d="M678.9,294.6c0.2,0,0.4-0.1,0.6-0.1c0,0,0,0-0.1,0C679.2,294.5,679,294.6,678.9,294.6z"/>
	<path class="st0" d="M678.5,294.9C678.4,294.9,678.4,294.9,678.5,294.9L678.5,294.9z"/>
	<path class="st0" d="M678.9,294.6l0.5-0.1c0,0-0.1,0-0.2,0C679.1,294.5,679,294.6,678.9,294.6z"/>
	<path class="st0" d="M679.2,294.5C679.2,294.5,679.2,294.5,679.2,294.5C679,294.5,678.9,294.6,679.2,294.5z"/>
	<path class="st0" d="M591.6,42.5C591.6,42.5,591.6,42.5,591.6,42.5C591.7,42.5,591.7,42.5,591.6,42.5z"/>
	<path class="st0" d="M682.8,295.3L682.8,295.3C682.8,295.4,682.8,295.4,682.8,295.3z"/>
	<polygon class="st0" points="41.1,35.6 41.1,35.6 41.2,35.6 	"/>
	<path class="st0" d="M682.8,295.3C682.8,295.3,682.8,295.3,682.8,295.3C682.8,295.3,682.8,295.3,682.8,295.3z"/>
	<path class="st0" d="M478.1,42.2C478.1,42.2,478.1,42.2,478.1,42.2C478.1,42.2,478.1,42.2,478.1,42.2z"/>
	<path class="st0" d="M610.4,42.6c-0.6,0-1.2,0-1.5,0.1C609.7,42.8,610,42.7,610.4,42.6z"/>
	<path class="st0" d="M682.6,201.2c0,0.1,0,0.2,0,0.3C682.7,201.4,682.7,201.4,682.6,201.2z"/>
	<path class="st0" d="M197.7,271.8c0.2,0,0.6-0.1,0.9-0.1C198,271.7,197.9,271.7,197.7,271.8z"/>
	<path class="st0" d="M197.6,271.9C197.6,271.9,197.6,271.9,197.6,271.9C197.7,271.8,197.7,271.8,197.6,271.9
		C197.7,271.8,197.6,271.8,197.6,271.9z"/>
	<path class="st0" d="M44.3,97.9C44.4,99.7,44.8,98.8,44.3,97.9L44.3,97.9z"/>
	<path class="st0" d="M203.1,38.7c-0.2,0-0.4,0-0.6,0C202.7,38.7,202.9,38.7,203.1,38.7z"/>
	<path class="st0" d="M682.8,295.3C682.8,295.3,682.8,295.3,682.8,295.3C682.8,295.3,682.8,295.3,682.8,295.3z"/>
	<path class="st0" d="M202.5,38.7c0,0-0.1,0-0.1,0C202.4,38.7,202.4,38.7,202.5,38.7z"/>
	<path class="st0" d="M84.1,36.5c0,0,0.1,0,0.1,0C84.2,36.5,84.2,36.5,84.1,36.5z"/>
	<path class="st0" d="M290.8,38.9c-0.1,0-0.2,0-0.3,0C290.7,38.9,290.7,38.9,290.8,38.9z"/>
	<path class="st0" d="M318.5,38.9C318,39.2,318.2,39.5,318.5,38.9L318.5,38.9z"/>
	<path class="st0" d="M45.2,196.2c0,0.1,0,0.2,0,0.3C45.3,196.5,45.3,196.4,45.2,196.2z"/>
	<path class="st0" d="M682.8,295.3L682.8,295.3C682.8,295.3,682.8,295.3,682.8,295.3z"/>
	<path class="st0" d="M679,130.6c0,0,0-0.1,0-0.1C678.9,130.6,678.9,130.6,679,130.6z"/>
	<path class="st0" d="M41.6,36.1C41.6,36.1,41.6,36.1,41.6,36.1C41.6,36.1,41.6,36.1,41.6,36.1z"/>
	<path class="st0" d="M697.2,273.3l2.5,0c-3-0.7-10.9,1.2-10.9-0.1c-0.6,0.2-7.2,1.4-5.8-3.2c-0.3-0.9-0.3,0-0.5-3.7
		c-0.5,0.1-1,0.4-0.8-0.9c0,0.3,0.1,0.3,0.3,0.5c0-0.4-0.1-1.2,0.4,0.2c0.2,0.5-1-3.7,0.2-2.1l-0.2,1.2c2-1.2,0.1-0.8-0.1-8.7
		l0.6,0.4c0-1.5-0.8-0.9-0.5-2.4c0.3,0,0.7,0.5-0.1-5.8c0.7-1.4,0.5,0.2,0.6-7.9c0.4-0.8-1.1-0.3-0.1-0.8c-0.4-1.5-0.8-4.2-0.4-5.8
		l0.1,0.3c0.2-1.2-0.9-1.4-0.5-2.5l0.1,0.2c-0.3-3,1,0.5-0.2-10.3c-0.3-1.6,1.6,0.1,0.2-4.7l0.5,0c-0.2,0-0.3-0.7-0.1-2.1
		c-0.6,0.4-0.5,0.5,0.2-2l-0.4-2.4c0.2,0.1,0.3,0.5,0.4,0.8c-0.5-1.3,0.5-0.2,0-1.4c-0.1,0.2-0.3-0.1-0.4-0.1
		c0.3-0.6,0.3-1.9,0.1-2.9l0.3,0.2c0.1-1.7-0.2-3.6-0.2-5.5c-0.2,0.2-1.2-0.3-0.3-0.5c-0.3-0.3-1-0.6,0.2-0.2
		c0.2,0.5-0.6-1.4,0.2-0.7c-0.3-0.4,0.5-1.6-0.1-2.1c0.3-2.5,0.3,0.4-1-10.5c0.4-0.1,0.3-1.5,0.6-0.8c-0.1-1.7-0.1-2.2-0.4-4.4
		c-0.3,0.5-0.6,0.1,0-0.4c-0.6-2.5,1.1-5.7,0.2-7.7l0,0.1c-0.3-5.6-0.3,0,0.3-14.4c-0.4,0-0.5,0.1-0.1-0.8
		c-2.3-3.7,1.6,0.5-0.6-15.5l0.5,0.6c-0.6-3.1,0-6.4-0.6-9.5c0.1,0.2,0.3,0.2,0.3,0.5c0.4-0.7,0-2.4-0.3-2.4
		c0.6-0.9,0.4-0.1,0.4-2.1c-0.2-0.4,0-2-0.4-1.6c0-1.4,0.4,0.3-0.4-5.3c0.7,0.1,0.5-2,0.2-2.8c0.2,0.2,0.2-0.6,0.5-0.4
		c0-0.8-0.1-1.6-0.5-1.4c0.7-2.7,0.4-2-0.5-10.9c0.2,0.2,0.3,0.4,0.4,0.6c0-0.6-0.1-1.6,0-3.1c-0.3-2.1,0-4.1-0.3-6
		c0.1,0,0.1,0.2,0.2,0.4c0-0.4,0.1-0.9-0.2-0.8c-0.1,0.9,0.1,0.7-1.1-1.2c0.9,0.6,0.2-1.9,1.3-0.9c-0.1-0.2-0.2-0.5-0.4-0.5
		c0.1-0.4,0.2-0.5,0.4-0.1c-0.2-1.3-0.5-0.9-0.5-2.1c0.1,0,0.2,0.2,0.4,0.4c-0.3-0.6-0.6-1.2-0.5-2.2c0.1,0.1,0.2-0.1,0.2,0.2
		c-0.1-1.7-0.8-3-0.5-4.9c0.3,0.3,0.8,0.3,0.6-1.8l-0.3,0.4c0-0.9-0.4-1.7-0.2-2.5l0.2,0.7l-0.1-1.7l-0.2,1
		c-0.3-0.9-0.7,0.1-0.6-1.1c0.1,0.2,0-0.9,0.3-1.4l0,0c0.3,0.2-1-1.7,0.5-1.5c-0.5-0.4-0.1-2.1-0.6-2.7c0.1,0.2,0.4,0.2,0.5,0.1
		c0-0.1-0.7-0.6,0-0.8c0.1-1.3-0.7,0.4-0.4-1.1c0,0.1,0.1,0.1,0.1,0.3c-0.1-1.6,0-2.3,0.2-2.8l0.1,0.4c0.1-0.1,0.4-0.4,0-0.7
		c0.2-0.8,0.4-1.6-0.2-6.5l-0.1,0.4c-0.8-0.3,0.4-1.4,0-2.4c0.9-0.3,0.3,0.2-0.1-4.4l0.2,0.2c-0.2-0.3,0.8-1.2-0.3-3.3
		c1.2-2.6-0.6-4.9,0.4-7.2c0.2,0.6,0.2,0.9,0-1.5c-0.3,0.2-0.2,0.3-0.5,0.7c-0.2-0.2-0.4-0.8-0.4-1.3c0.2,0.9,0.6,0,0.8-0.4
		c-0.1,0.1-0.2-0.1-0.3,0c0.6-1-0.7-0.2-0.3-1.6l0.2,0.1c0.1,0.3-0.7-2.6,0.2-1c0-0.6-0.4-1.1-0.5-1.6c0.2,0.1,0.2-0.1,0.3,0.5
		c1.5-1,0-0.2,4.9-0.5l-0.6-0.3c1.8,0.1,5.6-0.1,5.3,0.2c1.3-0.7,16.1,1.8,12.6-0.5c2.2,0.3,2.9-1.9-4.6-2l2.4,0
		c-2.9-0.8-10.6,1.1-10.6-0.2c-1.9-0.1,0.1,0.9-9.2-0.2c-0.1,0-0.1,0-0.3,0.1c-0.1-0.7,0.1-1.5-0.3-2.4c0.6,1.1,0.5,0.4,1.2-0.4
		c-0.4-0.6,0.3-1-0.2-1.9c0.1,0,0-0.7,0.4-0.5c-1.6-1.1,0.3,0.8-1-7.5c0.2-0.8,0.2-1.4,0-2.1c0.4-0.3,0.5-0.3,0.1-1.4
		c0.2,0.1,0.4,0.3,0.6,0.6c0.3,0.5-1.1-3.1,0-1.4c-0.1-0.8-0.2-2.1-0.6-2.4l-0.1,0.5c0.2-0.1,0.9,0.2,0.1,1.1l-0.1-0.5
		c-0.9,0.5,0.1,2.1,0.1,3.1l-0.6-0.4c-0.4-0.5,1.2,1.8-0.1,0.9c-0.4,0.8,0.2-0.1-0.2,1.3l0.2,0.7c-0.1-0.1-0.4,0.1-0.3-0.3
		c-0.4,1.3,0.5,2.1,0,2.6l0-0.1c-0.7,1.9,2.5,0-0.1,2.5c-0.2,0.1,0.9-0.1,0.2,0.7c0.7,1.2,0.3-0.1-0.1,3c0.6,0.5,0.1-0.6,0.3,2
		c-1.6-1.1,0.9,1-0.5,2.2c0,0,0-0.1-0.1-0.1c-0.2,0.1-0.4,0.1-0.1,0.2c-0.4,0.3-1.1,0.5-2.1,0.5c2.4-0.8-4.9-0.1-4.3-0.9
		c-1.8,0.7-6.4,0.3-9.6,0.6c0.2-0.1,0.5-0.2,0.8-0.1c-2.6-0.8,1.1,0.9-7.2-0.6c0.1,0.5-3.8,0.4-3,0.8c-1.6-0.3-1.5-0.2-2.2-0.6
		c0.7,0.6-8.4,0.7-5.2-0.5c-5.4,1.4-2.4-0.2-9.5,0.5c-2.1,0.3,0.1,0.3-9.1,0.4c0.3,1,0.4,0.8-2.3,0.7c0.7,0,0.8-0.1,1.1-0.2
		c-0.6,0-3.3,0.1,0.5-0.4c0.9-0.3-7.4,1-5.3-0.2l2.9,0.2c-5.4-2.4,3-0.1-21.5-0.1l1-0.6c-3.7-0.1-2.1,0.8-6,0.4
		c-0.5-0.3,1.5-0.7-14.5,0c-3.1-1.1-5.1-0.2-19.6-0.9c-1.9-0.3-0.9,1.1-1.9,0c-3.7,0.3-10.4,0.7-14.3,0.2l0.8-0.1
		c-3-0.2-3.4,0.9-6.2,0.4l0.5-0.1c-7.6-0.3-25.1-0.3-37.4-0.9c-0.1,0-0.6,0.5-5.2,0c3,1.2-3.6-0.8-11,0.1c0.1-0.1,0.7-0.2,1.3-0.3
		c-2.3,0.2-0.2-0.5-2.9-0.2c-1.6,0.6,0.1,0.1-7.5,0.1l0.5-0.3c-4.5-0.1-9.4,0-14.4,0c2.3,0.1-3.5,1.6-1.3,0.1
		c1.2-0.3-2.9,0.6-1.7-0.3c-2.7-0.1,2,0.3-33.3-0.1c-4.3,0-5.5,0-11,0.3c1.1,0.3,0.7,0.7-0.9,0c-6.2,0.5-14.2-1.3-19.1-0.5l0.3,0
		c-9.7,0.4-7,0-35.6-0.9l0.3,0.3c-1.2,0.2-1.5-0.2-2.4-0.2c-4.3,1.9-23.6-1.8-38.4,0l1.4-0.5c-7.8,0.5-16-0.2-23.6,0.2
		c0.5-0.1,0.5-0.3,1.2-0.2c-2.6-0.5,1.6,0.5-11.5-0.3c-1.4,0.1-4.4-0.1-3.5,0.3c-3.7-0.1,1.2-0.4-13.2,0.2c0.2-0.7-5-0.6-6.8-0.3
		c0.6-0.2-1.6-0.2-0.9-0.5c-2.1,0-4,0.1-3.6,0.4c-4.2-0.7,0.1-0.6-27.2,0c12-1.6-5.2,0.5-6.4-0.6c-5.2,0.2-10.1-0.2-14.8,0.1
		c-0.3,0.2-0.6,0.6-4,1.1c1.6-0.9-4.6-0.3-2.1-1.4c-0.6,0.1-1.4,0.2-1.2,0.4c-0.9-0.1-1.2-0.2-0.3-0.4c-3.3,0.1-2.1,0.5-5.1,0.4
		c0-0.1,0.6-0.2,0.9-0.4c-1.5,0.3-3,0.5-5.5,0.4c0.1-0.1-0.1-0.2,0.3-0.2c-4.2,0-7.2,0.7-11.8,0.3c0.7-0.3,1.2-0.8-4.4-0.7l1,0.3
		c-2.2,0-4.2,0.3-6.1,0.1l1.7-0.2l-4.2,0.1l2.4,0.2c-2.3,0.3,0.2,0.7-2.7,0.5c0.6-0.1-2.2,0-3.4-0.4l0,0c-4.5,0.4-1.5-1-10.4,0
		c1.1-0.9-0.7,0.4-1.6-0.5c-3.1-0.1,1,0.7-2.7,0.4c0.3,0,0.2-0.1,0.8-0.1c-3,0-4.9-0.1-6.9-0.3l1.1,0l-1.3-0.3l-0.5,0.3
		c-3.3-0.2-7-0.4-16.1,0l0.9,0.1c-0.7,0.8-3.5-0.4-6-0.1c0.7-0.7-2-0.4-11,0l0.6-0.2c-2,0.2,0.1-0.8-8.2,0.2
		c-6.4-1.2-12.2,0.5-17.9-0.5c1.5-0.2,2.3-0.2-3.8,0c0.4,0.4,0.6,0.2,1.6,0.5c-0.6,0.2-2,0.3-3.2,0.3c2.2-0.2,0-0.6-1-0.8
		c0.2,0.1-0.2,0.2-0.1,0.3c-2.5-0.6-0.4,0.7-3.9,0.2L80,35c1.1-0.2-5.6,0.7-2.4-0.3c-2,0-3.9,0.7-5.6,0.3c0.8-0.1,2-0.1,2.9-0.2
		c-1.9-0.5-2.1-0.4-3.6-0.5l0.1,0l-3.3-0.2l0.8,0.1c-2.5,1-5,0.1-8.3,0.8c3.2-0.6,0.5-0.4,0.8-0.8c-0.8-0.1-2.1-0.3-1.8-0.4
		c-1.7,0,0.1,0.7-6.1-0.2c-1.9,1.3,0,0.8-10.4-0.2c-0.4,0.4-0.6,1-0.7-0.7c0.2,0.9,0.5,0,0.6-0.4c-0.1,0.1-0.2-0.1-0.3,0
		c0.5-1.1-0.6-0.2-0.2-1.7l0.2,0.1c0.1,0.4-0.6-2.7,0.2-1c0-0.8-0.6-1.7-0.3-2.4c0.1,0.4,0.1,0.9,0.2,1.2c0.4-0.8,0.3-0.9,0.3-1.5
		l0,0.1l0.2-1.4L43.2,26c-0.9-1-0.2-2.1-0.7-3.5c0.5,1.2,0.4,0.4,1-0.4c-0.3-0.7,0.2-1.1-0.2-2.1c0.1,0,0-0.7,0.3-0.6
		c-1.4-1.3,0.3,0.9-0.9-8c0.2-0.8,0.1-1.5,0-2.3c0.3-0.3,0.4-0.3,0-1.5C42.8,7.8,43,8,43.1,8.3c0,0,0,0,0,0c0,0,0,0,0,0
		c0.2,0.4-0.9-3.2,0-1.5c-0.1-0.9-0.2-2.3-0.5-2.5l-0.1,0.6c0.2,0,0.6,0.3,0.1,1.2l-0.1-0.6C42,6,42.7,7.6,42.7,8.7l-0.5-0.5
		c-0.3-0.5,1,1.8-0.1,1c-0.3,0.9,0.2-0.2-0.2,1.4l0.1,0.8c-0.1-0.2-0.3,0.1-0.3-0.3c-0.3,1.4,0.4,2.2,0,2.8l0-0.1
		c-0.7,2.3,1.9-0.8-0.1,2.6c0.1,0.1,0.6,0.1,0.2,0.7c0.7,1.4,0.2-0.1,0,3.2c0.5,0.5,0.1-0.7,0.2,2.2c-0.4,0.1-0.5-0.5-0.3,2.6
		c-0.1,0,0,0-0.2-0.4c-0.2,0.1-0.5,0.1,0.2,0.4c0,0.6,0.1,1.4,0.2,2.4c-0.2-0.1-0.2,2.3-0.4,3.5l-0.1,0c0.5,0.2,0.4,1.4,0.5,2.3
		c-0.3,0-0.4-0.2-0.5-0.6c0,0.1-0.1,0.5,0.2,1.4c-3.8-0.2,0.2,0.9-6.9,0.4c-2-0.2-3.4-0.2-5.3-0.1c-0.9-0.5-0.7-0.5-3.5-0.1
		c0.3-0.2,0.8-0.4,1.5-0.6c1.2-0.3-6.9,1.1-3.5,0c-2,0.1-5.3,0.2-5.9,0.6l1,0.1c1.2-0.6,0.8-0.6,3.1-0.1l-1.3,0.1
		c1.3,0.9,5.2-0.1,7.8,0l-1.1,0.6c-1.2,0.6,2.7-1.2,2.3,0.1c2.1,0.5-0.5-0.2,3.2,0.3l1.8-0.2c-0.4,0.1,0.3,0.4-0.8,0.3
		c3.2,0.4,5.3-0.4,6.5,0.1l-0.3,0c0.1,0,0.4-0.1,0.8,0c0,0,0.1,0.1,0,0c0,0,0,0,0,0c0.1,0.1,0.2,0.2,0.3,0.3c0,0-0.2-0.2-0.1-0.1
		c0,0-0.1-0.1-0.1-0.1c0,0,0.2,0.2-0.1-0.1c0,0,0.1,0.1,0.1,0.1c-0.1-0.1-0.1-0.1-0.1-0.1c0,0,0,0.1,0.1,0.1c0.2,0.3,0-0.1,0.3,0.2
		l-0.1-0.1c0,0,0.2,0.2,0.2,0.2l0-0.1c0,0,0.1,0.1,0.1,0.1c0,0,0,0,0,0c-0.2,0.4,0.5,1.5,0.7,1.9c0,0.2,0.1,0.4,0,0.5l-0.3-0.6
		c0.1,0.3,0,1.9-0.2,0.5c0,0.6-0.2,1.3-0.4,1.5c0.9,1.9-0.7,1.7,0.5,4.7c0.4,2,0,0,0,5.7l-0.1,0c-0.3,0.7,0.9,0.8,0,3.8
		c0.1,0.8,0.3,0.9,0,2.1c-0.2-0.8-0.2,0.3-0.2-0.9c-0.1,1.1-0.3,1.3,0,2.5c-0.3-0.4-0.4,0.8-0.3,1.3l0.2-0.8c0.1,0.6,0,1.1,0,1.6
		l-0.5-0.3c-0.2,2.3-0.1,5,0.4,10.2c0.7-0.2,0.7,2.1,0.1,1.1c0-0.1,0-0.1-0.1-0.1c-0.4-0.4,0-0.5-0.6,1.4c0.2,0.8,0.3,0.3,0.4-0.2
		c-0.2,1.3,0,2-0.2,3.4c0.2-0.2,1.3,3.9-0.3,2.9c0.3,1.2-0.2,2.3-0.3,3l-0.1-0.6c0.1,0.4,0.1,0.7,0.1,1l0.3-0.4
		c-0.1,0.4-0.1,0.7-0.2,0.7c0.6,0.7,1.1,0,0.6,2.2c0.1-1.5-0.4-0.1-0.5-0.9c0,0.2,0,0.6-0.2,0.5c-0.4,1.5,0.5,0.7,0.5,2.3
		c-0.3-0.2-0.5,0.4-0.4,0.6c0-0.5,0.7,0,0.8,1.9l0.1-0.6c0.8,1.1-0.4,2.7-0.8,7c0.3-0.4,0.3-0.4,0.6,0.5l-0.2-2.1l0.5,1.4
		c0-0.6-0.2-1.3-0.2-1.7c0.3,0.6,0.2,0.6,0.5,0.3c-0.1,3.2-1.6,1.5-0.7,7.4l0.1-0.6c0.3,0.3,0.1,1.2,0.2,1.9
		c-0.3-0.1-0.4,0.3-0.6,0.6c0.2,0,0,1.4,0.6,1.6c-0.5,1.8-0.7,0.8,0.4,4.2c-0.3-0.5-0.5,0.2-0.8-0.8c0,0.5-0.1,1,0.1,1
		c-0.2,0,0.1,1.4,0.4,2.7c0.1,0,0.2,0.9,0.5,0.4c-0.6,1.8-0.6-0.1-0.5,9.3c0,0-0.1,0-0.1,0c0.3,3.2-0.2,0-0.3,5l-0.1-0.3
		c-0.3,0.8,0.4,2,0.3,3.3c0.1,1,0,0,0.7,3.9c-0.1,0-0.2,0-0.3-0.1c0.3,0.2,0.6,0.8-0.4,2l0-1.1c-0.5,0.6,0,1.4-0.1,2l-0.2-0.1
		c0.1,1.7,0.7,1.7,0.6,3.5l0.2-0.2c0.7,2.6-1.4,0.8,0.2,5.5c-0.5-0.7-0.7-2-1-2.8c0,0.6,0,2.2,0.4,2.5c-0.1-0.3-0.2-0.6-0.1-0.8
		c0.5,0.8,0.7,1.8,0.7,3.1c-1.1,0.9-0.7-0.9-1.3,11.3c0.9-0.9,0,0.8,1,0.6c0.1,0.6,0,0.8,0,0.9l0-0.1c0,0.1,0,0.1,0,0.1h0
		c-0.2,1-0.8,1.6-1.7,2.8c0.3-0.2,0.5,0.5,0.4,1.2l0.4-1.1c0.5,1.9-0.8,1.6-0.3,3.5l-0.3-0.6c-0.3,0.9,0.9,0.1,0.3,4.5
		c-0.1,2.3,0.8,5.1,0.4,6.9l-0.2-0.2c0.3,1.2-0.3,0.6,0.2,3l-0.3-0.5c-0.3,2.3,0.7,3.5,0.8,5.3c-0.7,0-0.9,1.8-1.1,2.7l-0.1,0
		c-0.5,3.6,1.6,0.1,0.1,14.4c0.1-0.1,0.9,0.4,0.5,1.8c0.1-0.3-1.5,1.8,0.4,2.7c-0.9,2.5-0.8-0.2-0.2,9.4c-1.1,1.1-0.2,0-0.5,4.3
		l-0.3-0.4c1.2,3.5,0.6,1.4,0.7,8.6c-0.1,0-0.3-0.1-0.3-0.4c0,0.9-0.5,3.5,0.5,3.2c-0.6,0-0.1,2,0.2,3.1l-0.5-0.2
		c0.2,0.2,0.9,1.6,0.7,2c-0.2,1,0.4,0.8,0.2,1.9l-0.3-0.4c0,1.6,1.2,0.9,0,3.5c0.1,0.1,0.6,1.5,0.1,1.1c-0.6,1.7,0.5,0-0.2,3.9
		c0-1.3,0-2.4,0.1-2.3c-0.4,0-0.5,1.1-1.1,0.2c0.2,0.9,0.3-0.1,0.7,3.5l0-0.1c0.1,1.5-0.2,0.8-0.3,3.3c0.5,0,0.4,0.7,0.8,0
		c0,0.2,0-0.3-0.1-0.7l0,0c0-0.4,0-0.8,0-1.3c1.4,3.9-0.8,0.3,0.2,10.2c-0.1-0.3-0.1-0.6-0.2-0.7c-0.2,0.2,1.2,1.8,0.3,3.9l-0.2-0.2
		c-1,3.1,1.4,5,0.5,8.4c-0.1,0.1-0.1,0.1-0.1,0.2c0,0,0,0.1,0,0.1c0,0,0-0.1,0-0.1c0,0.8,1.5,2.8-2.9,2.7c3.3-0.6,0.5-0.4,0.8-0.8
		c-0.9-0.1-2.2-0.3-1.8-0.4c-1.7,0,0.2,0.7-6.3-0.2c-3,1.9,1.1-0.5-19.3,0.9c-2-0.2-3.5-0.2-5.4,0c0.2-0.1,0.2-0.1,0-0.2
		c0.4,0.1,1.1-1.3,3.1-0.8c0.3-0.2,1.6-0.2,2.1-0.6c-1.4-0.4,0,0.7-4.8,0.6c-0.2,0-0.2,0.3-1.1,0.3c0.1,0,0.2,0,0.4,0
		c-1.5,0.6-0.4,0.3-3.4,0.7c0.3-0.2,0.8-0.4,1.5-0.6c-1.7,0.1-3.4,0.4-5.2,0.5c0.4,0.4,0.2,0.6,0.7,0.6c-0.3,0-0.5,0.2-0.6,0.7
		c0.1,0,0.2,0,0.2,0c0,0-0.1,0.1-0.2,0.5c1.8-0.5,3.8-1,4.3-1.4c0.4,0,0.9-0.1,1.5-0.1c-0.1,0.4,0.2,0.1-0.8,0.6
		c-1.2,0.6,2.7-1.2,2.4,0.1c2.2,0.4-0.5-0.2,3.3,0.2l1.9-0.2c-0.4,0.1,0.3,0.4-0.8,0.3c3.4,0.4,5.4-0.4,6.7,0l-0.3,0
		c5.2,0.3-1.2-1.7,8-0.1c5.4-1.1-3.2,0.4,12.9-0.2c-0.2,0.2-0.3,0.3-0.4,0.4c0.2-0.1,1.1-0.2,3.5,0.4c-0.8-0.1-2.1-0.2-0.8,0.2
		c0.4-0.1,0.7-0.1,0.8-0.1c0.1,2.8,0-0.1-0.2,10.1c1,2.4,0.9,0.7,0.2,6.2l0.3-0.3c-0.1,0.8,0.2,2.4-0.2,2.3
		c-0.2-0.1,0.5,0.5-0.1,0.6c-0.7,1.8,1,9.9,2.9,2.9l-0.1,1c0.4-0.6,0.2-1,0-1.4c0.4-0.6,0.8-0.1-0.3-1.7c1.5,0.2-1-1.7,0.7-1.4
		c0-0.7-1-0.7,0.1-3.9c-0.2-0.2-0.6-1.1-0.6-1.6c0.9,1,0-2.1,1-1.8c-0.8-0.8-0.4-2.7-0.8-4.1c0.1,0.1,0.2,0.2,0.2,0.3
		c0.1-0.7,0.3-0.9,0.4-1.4c-0.3,0.2-2-3.2-0.1-2c-0.3-0.4-0.3-1.3-0.7-1.1c0.4-0.7,0.2-0.6,0.7-1c-0.6,0.2-0.9-1.3,0-2.2
		c0,0,0,0,0,0c0,0,0,0,0,0c0.1,0.1,0.1-0.1,0.5,0.1c1.4-0.3,0,0,5.4-0.2c-0.2,0.2,5.6,0.3,8.4,0.5l-0.1,0.1c0.5-0.5,3.4-0.4,5.5-0.5
		c-0.1,0.3-0.4,0.4-1.5,0.6c0.2,0,0.6,0.2,4.2-0.3l-0.5,0.4c2.6-0.8,0.1,1.4,8.9-0.9c0.3,0,1.1-0.2,1.7-0.1l-1.4,0.3
		c1.5,0.2,0.8-0.3,2-0.3c0.1,0.4,1.6,0.5-0.8,0.4c1.4,0.1,3.1,0.2,3.6,0.5c3-0.8,8.8,0.5,11.4-0.6c4.8-0.5,0,0,13.8,0.1l0,0.1
		c2.7,0.3,0-0.9,9.2,0.1c2-0.1,2.2-0.3,5.1,0c-2,0.3,0.7,0.2-2.1,0.2c2.6,0.1,3.2,0.4,6,0c-1,0.4,2,0.5,3.2,0.4l-1.8-0.3
		c1.4-0.1,2.6,0,3.9,0l-0.7,0.5c5.6,0,1.9,0.4,24.5-0.3c-0.4-0.8,4.8-0.7,2.7-0.1c-0.2,0-0.3,0.1-0.4,0.1c-0.9,0.4-1.1,0,3.3,0.6
		c1.9-0.2,0.8-0.3-0.6-0.4c3.2,0.3,4.9,0,8.2,0.2c3,0,4.9-1.9,7.1,0.3c3-0.3,5.5,0.2,7.2,0.3l-1.6,0.1c0.9-0.1,1.7-0.1,2.5-0.1
		l-0.9-0.4c0.9,0.1,1.7,0.1,1.7,0.2c2.1-0.9,0.2-1,5.3-0.6c-3.5-0.2-0.3,0.4-2.1,0.5c-0.3,0,1.8-0.1,1.2,0.2
		c3.7,0.4,1.7-0.5,5.5-0.5c-0.5,0.3,0.9,0.5,1.5,0.5c-1.2,0,0-0.7,4.6-0.8l-1.5-0.1c0.9-0.6,4.5,0.1,16.9,0.8
		c-0.9-0.4-1-0.3,1.1-0.6c2.1,0.4,4.3,0.7,12.5,0.1l-1.5-0.2c0.6-0.3,2.9,0,4.5-0.2c-0.1,0.3,0.8,0.4,1.5,0.6
		c1.1-0.7-1.5,0.6,14.1-0.9c-1.1,0.3,0.6,0.5-1.9,0.8c1.2,0,2.3,0.1,2.4-0.1c0.9,0.1-0.3,0.3,6.7-0.4c0.3-0.1,2-0.2,0.9-0.5
		c7.5,0.6,3.7,1,22.3,0.6c-0.1,0-0.1,0.1-0.1,0.1c7.6-0.3,0,0.2,11.9,0.4l-0.6,0.1c2,0.3,4.8-0.4,8-0.3c2.2-0.1,0,0,9.4-0.6
		c0,0.1-0.1,0.2-0.1,0.2c0.6-0.3,1.9-0.5,4.8,0.4l-2.6,0c1.3,0.5,3.4,0,4.8,0.1l-0.2,0.2c4-0.1,4.1-0.7,8.4-0.6l-0.4-0.2
		c6-0.6,2.5,1.3,13.3-0.2c-1.6,0.4-4.8,0.6-6.9,0.9c1.5,0,5.2,0,6-0.3c-0.6,0.1-1.4,0.2-2,0.1c1.9-0.5,4.4-0.7,7.4-0.7
		c5.7,2,4.6,0.5,27.3,1.4c-2.2-0.9,1.8,0,1.5-0.9c1.5-0.1,2,0,2.2,0l-0.3,0c0.1,0,0.2,0,0.3,0v0c0.9,0,4.1,0.8,6.7,1.6
		c-0.4-0.3,1.1-0.5,3-0.3l-2.6-0.4c4.5-0.5,3.9,0.8,8.4,0.3l-1.4,0.3c2.2,0.4,4.6-1,10.8-0.3c5.6,0.1,12.4-0.7,16.7-0.3l-0.4,0.2
		c1-0.1,1.8-0.4,3.1-0.2c0.5,0.5-0.3,0.1,4.2,0l-1.2,0.2c5.4,0.3,8.3-0.6,12.9-0.7c0,0.7,4.3,0.9,6.4,1l-0.1,0.1
		c5.3,0.3,4.4-1.1,34.7,0c-0.1-0.1-0.4-0.8,4.3-0.4c6.5,0,16,0.7,29.1,0l-0.1,0.4c3.8,0.1,5.8,0.2,10.5,0.1l-1,0.3
		c9-1,4.2-0.5,20.6-0.6c-0.1,0.1-0.2,0.3-1,0.3c2.2,0,8.5,0.5,7.7-0.4c0.1,0.6,4.8,0.1,7.4-0.2l-0.4,0.4c2.2-0.3-0.2-0.3,4.9-0.6
		c2.4,0.2,1.8-0.4,4.7-0.2l-1.1,0.3c3.9-0.2,1-0.5,11-0.1c4.1,0.5-0.1-0.5,9.3,0.2c-3,0-5.4,0-5.6-0.1c0,0.4,2.6,0.5,0.5,1
		c2.1-0.1-0.1-0.3,8.5-0.6l-0.3,0c3.5-0.1,1.9,0.2,8,0.3c-0.1-0.4,1.5-0.4,0.1-0.7c-0.1,0-0.9,0-1.7,0.1c0,0,0.1,0,0.1,0
		c-0.9,0-2,0-3.2,0c5.4-0.7,13.4,0.4,24.3-0.1c0.8-0.2,2.4-0.5,7.9,0l-0.5,0.2c7.4,0.9,12.2-1.2,20.2-0.3
		c10.7,4.2,52.4-11.7,45.5,14l0.3-0.3c-0.1,0.7,0.2,2.3-0.2,2.1c-0.1-0.1,0.5,0.4-0.1,0.5c-0.7-0.6,1.8,2.2-0.8,2.4
		c-0.2,0-0.4,0.1-0.1,0c-0.2,0-0.3,0-0.4,0.1c0.2,0,0.1,0,0.5-0.1c-0.4,0.1,0.1,0-0.5,0.1c0.2,0,0.5-0.1,0.5-0.1
		c-0.8,0.1,0,0-0.9,0.2c0.7-0.1,0.3,0,0.7-0.1c-0.1,0-0.2,0-0.1,0c-0.1,0-0.3,0.1-0.4,0.1c0.6-0.1,0.7-0.1,1.1-0.1
		c-0.6,0.1-0.7,0.1-1.2,0.2c0.5-0.1,0.5-0.1,0.9-0.1c-0.3,0.1-0.2,0-0.6,0.1c0.7-0.1,0.1,0,0.6-0.1c-0.4,0.1-0.7,0.1-0.5,0.1
		c-0.2,0-0.3,0.1-0.4,0.1c0.3,0,1.3-0.2,0.1,0c-0.2,0,0.8-0.1,0.4,0c0.4-0.1,0,0,0.6,0c0,0-0.1,0-0.1,0c0.1,0,0.3,0,0.4-0.1
		c-0.1,0.1,0,0-0.3,0.1c0.1,0,0.2,0,0.3,0c-0.2,0.1,0,0-0.4,0.1l0.2,0c-0.5,0.1-0.6,0-0.7,0.1c0.6-0.1,0.9,0,0.2,0.1
		c0.1,0,0.4,0,0.5,0c-0.2,0-0.3,0-0.5,0.1c0.3,0-0.1,0.1-0.3,0.1l0.4-0.1c-0.9,0.1,0.7-0.1-0.2,0c0.6-0.1-0.4,0.1,0.7,0
		c-0.3,0.1-0.1,0-0.5,0.2c0.6-0.1-0.2,0.1,0.5,0c-0.1,0-1.6,0.3-0.2,0.1l-0.5,0.1l0.5-0.1l-0.5,0.1c0.2,0,1-0.2-0.1,0l0.4,0
		c-0.1,0-0.1,0-0.2,0c0,0-0.6,0.1,0.1,0c-0.3,0.1-0.3,0.1-0.2,0.1c0.2,0-0.6,0-0.2,0.1c0.1,0,0.7-0.1,0.7-0.1c0,0,0,0-0.5,0.1
		c0.3,0,0.2,0,0.5-0.1c-0.1,0,0,0-0.6,0.1l0.2,0c-0.1,0-0.2,0-0.4,0.1c0.3,0-0.5,0.1,0,0c-0.2,0,0,0.1,0.7,0c-1,0.2,0.7-0.1-0.4,0.1
		c0,0,0.2,0,0.6,0c-0.1,0,0,0-0.2,0c0.6-0.1-1.1,0.2-0.3,0.1l0,0l0.4,0c-0.1,0-0.3,0-0.5,0.1c0.6-0.1-0.1,0.1,0.3,0
		c-1.1,0.2,0.1,0-0.6,0.2c0,0,0.7-0.1,0.1,0c0.1,0,0.4,0.1,0.2,0.2c0.2,0-0.1,0.1,0.3,0.1c-0.1,0-0.3,0-0.3,0c-0.4,0.1,0,0,0.3,0
		c-0.3,0-0.4,0.1-0.4,0.1c0.2,0,0,0,0.4,0c-0.2,0,0.2,0-0.1,0c0.5-0.1-0.2,0.1,0.4,0c-0.7,0.1-0.5,0.1-0.2,0.1c-0.2,0-0.2,0-0.5,0.1
		c0,0,0.1,0,0.5-0.1c-0.8,0.1,0.7-0.1-0.4,0.1c0.4,0,0.6,0,0.8,0c-0.7,0.1-0.1,0-0.8,0.1c-0.1,0,1.2-0.1,0.3,0c0.3,0-0.1,0.1,0.3,0
		c-0.1,0-0.1,0-0.2,0c0,0-0.1,0,0.2,0l0,0c0,0,0,0,0.4,0c-0.1,0-0.3,0-0.6,0.1c0.1,0,0.2,0,0.4-0.1c-0.1,0-0.2,0-0.4,0.1
		c-0.1,0,0.7-0.1,0.3,0c0,0,0.1,0,0.4,0c-0.3,0.1-0.1,0-0.6,0.1c0.1,0,0,0,0.4-0.1c0,0,0,0,0.1,0l-0.2,0c0,0,0.1,0,0.2,0
		c0,0,0,0-0.1,0c0,0,0,0,0.1,0c0,0,0,0,0,0c0,0,0,0,0,0c-0.1,0,0,0,0,0c-0.1,0,0,0-0.2,0c0,0,0.1,0,0.2,0c-0.2,0,0,0-0.4,0
		c0,0.1,0.1-0.1,0.4,0c-0.1,0-0.2,0-0.2,0c-0.1,0,0,0,0.2,0c-0.1,0-0.1,0-0.1,0.1c0.1,0,0,0,0.2,0c-0.2,0.1,0,0,0.1,0.1
		c-0.1,0,0,0-0.3,0c0,0,0.2,0,0.3,0c0,0,0,0,0,0c0.1,0,0.1,0,0.2,0c0,0,0,0,0.1,0c0,0,0,0,0,0c0,0,0,0,0,0c0.1,0,0.2,0,0.2,0l-0.1,0
		c0,0,0,0,0.1,0c-0.2,0-0.1,0-0.3,0c0,0,0,0,0.4,0c-0.3,0-0.4,0-0.6,0.1l-0.2,0c1.3-0.2,0,0,0.9-0.1c-0.6,0.1,0,0-1.1,0.2
		c0.4,0-0.3,0.1,0.2,0c-0.1,0,0,0-0.4,0.1c1-0.2,0,0.1,1.5-0.1c0,0-0.7,0.1-0.5,0.1c-0.1,0-0.2,0-0.4,0.1c0,0,0.7-0.1-0.3,0
		c0.1,0,0.4,0,0.5-0.1c-0.3,0-0.4,0.1-0.5,0.1c1.2-0.1,0.2-0.1,1.3-0.2l-0.5,0.1c0.1,0,0.5-0.1,0.7-0.1c0.5,0,0.1,0,1.2-0.8
		c0,0,0,0,0.1,0l-0.1,0c0,0,0,0,0.1-0.2c0,0,0,0,0,0c0.1-0.1,0,0,0.4-0.1c-0.1,0-0.1,0-0.1,0l-0.3,0.1c0.1,0,0,0,0.2,0
		c-0.1,0-0.1,0-0.2,0c0,0,0,0,0.1,0c0.1,0,0.5-0.1-0.1,0c0,0,0,0,0.1,0c0,0,0,0-0.1,0c0,0,0,0,0-0.1c0-0.1,0,0.2-0.3-0.7
		c0,0,0,0,0,0c0,0,0,0,0,0c0,0,0,0,0,0c0,0,0,0,0.2,0l0,0.2c0.1-0.1,0-0.2,0.2-0.3c-0.1,0-0.1,0,0,0l-0.1,0c0,0,0,0,0,0
		c0,0,0,0,0.2,0c-0.1,0-0.1,0-0.2,0c0-0.3,0.1-0.1-0.1-0.6c0,0,0.1,0,0.1,0c0,0-0.1,0-0.1-0.1c0-0.1,0,0-0.1-0.2c0.1,0,0.1,0,0.2,0
		c-0.6-0.4,0.8-0.1-0.6-1.7c1.3,0.2-0.9-1.6,0.6-1.4c0-0.7-0.9-0.7,0.1-3.7c-0.2-0.2-0.5-1-0.6-1.5c0.8,1,0-2,0.9-1.7
		c-0.7-0.7-0.3-2.6-0.7-3.9c0.1,0.1,0.2,0.2,0.1,0.3c0.1-0.7,0.2-0.9,0.4-1.3c-0.2,0.1-1.8-3-0.1-1.8c-0.2-0.4-0.3-1.3-0.6-1
		c0.5-0.7,0.1-0.8,1.6-0.9l-0.7-0.3c1.8,0.1,5.8-0.2,5.5,0.2c1.3-0.7,16.7,1.7,13.1-0.5C704.2,275.6,704.9,273.3,697.2,273.3z
		 M682.1,248.5c0,0.2,0,0.4,0,0.5C682.2,248.9,682.2,248.8,682.1,248.5L682.1,248.5z M682.1,246.5c0,0.3,0.2,1.1-0.3,0.6
		C681.9,247.2,682,246.8,682.1,246.5z M41.6,36.1C41.6,36.1,41.6,36.1,41.6,36.1C41.6,36.1,41.6,36.1,41.6,36.1
		C41.5,36.1,41.5,36,41.6,36.1C41.5,36,41.5,36,41.6,36.1L41.6,36.1C41.5,36,41.5,36,41.6,36.1C41.5,36,41.5,36,41.5,36
		C41.5,36,41.6,36,41.6,36.1C41.6,36.1,41.6,36.1,41.6,36.1C41.6,36.1,41.6,36.1,41.6,36.1z M41.5,36C41.6,36,41.6,36,41.5,36
		C41.5,36,41.6,36,41.5,36z M41.3,35.7c0.1,0.1,0.1,0.1,0.2,0.2c0,0,0,0,0.1,0.1c0,0,0,0,0,0C41.5,35.9,41.4,35.8,41.3,35.7z
		 M41.4,35.5C41.5,35.6,41.6,35.7,41.4,35.5C41.4,35.5,41.4,35.5,41.4,35.5z M41.4,35.5C41.4,35.5,41.5,35.6,41.4,35.5
		C41.4,35.5,41.4,35.5,41.4,35.5z M41.4,35.6C41.4,35.6,41.4,35.5,41.4,35.6C41.4,35.5,41.4,35.5,41.4,35.6z M41.4,35.5L41.4,35.5
		C41.4,35.5,41.4,35.5,41.4,35.5C41.4,35.5,41.4,35.5,41.4,35.5z M41.4,35.6C41.4,35.5,41.4,35.5,41.4,35.6
		C41.4,35.6,41.4,35.5,41.4,35.6z M41.3,35.5C41.4,35.5,41.4,35.6,41.3,35.5C41.3,35.5,41.3,35.5,41.3,35.5z M41.3,35.6
		C41.5,35.8,41.3,35.6,41.3,35.6C41.3,35.6,41.3,35.6,41.3,35.6C41.3,35.5,41.3,35.5,41.3,35.6z M41.2,35.5
		C41.3,35.6,41.3,35.6,41.2,35.5C41.3,35.6,41.3,35.6,41.2,35.5C41.2,35.5,41.2,35.5,41.2,35.5z M41,35.6
		C41.1,35.7,40.9,35.5,41,35.6C41,35.6,41,35.6,41,35.6c0,0,0.1,0,0.2,0c0,0,0.1,0.1,0,0c0.1,0.1,0.1,0.1,0.3,0.3
		c-0.1-0.1-0.1-0.1-0.2-0.2l0.1,0.1c-0.2-0.2,0.2,0.2,0,0c0,0,0.1,0.1-0.1-0.1c0,0,0.1,0.1-0.1-0.1L41,35.6c0.4,0.4,0.1,0,0.3,0.3
		C41.2,35.7,41.4,35.9,41,35.6z M41.5,36.1c0-0.1-0.1-0.1-0.2-0.3L41.5,36.1C41.5,36.1,41.5,36.1,41.5,36.1L41.5,36.1
		C41.5,36.1,41.5,36.1,41.5,36.1C41.5,36.1,41.5,36.1,41.5,36.1C41.5,36.1,41.5,36.1,41.5,36.1C41.5,36.1,41.4,36,41.5,36.1z
		 M41.5,36.1L41.5,36.1C41.5,36.1,41.5,36.1,41.5,36.1L41.4,36C41.4,36,41.4,36,41.5,36.1c-0.1-0.1-0.1-0.1-0.2-0.2
		C41.5,36,41.3,35.9,41.5,36.1c-0.1-0.1-0.1-0.1-0.2-0.2C41.6,36.2,41.3,35.8,41.5,36.1C41.4,36,41.6,36.1,41.5,36.1
		C41.6,36.1,41.6,36.1,41.5,36.1C41.6,36.1,41.5,36.1,41.5,36.1z M41.2,249.1c-0.1-0.4,0-0.5,0.1-0.5c0.1,0.1-0.1,0,0.1,0.7
		C41.4,249.2,41.3,249.1,41.2,249.1z M3.1,272.8c-1.7,0.7-2.6,0.4-2.7,0.3l1.2-0.3c-0.1,0-0.5-0.2-0.8-0.2c0.4,0,1.1-0.1,2.6-0.2
		c0,0-0.1,0-0.2,0l0.3,0c0,0-0.1,0-0.1,0c0.2,0,0.3,0,0.5,0l-0.4,0C3.8,272.3,3.5,272.6,3.1,272.8z M585.2,276.3
		c-0.6,0.3-0.4,0.2-1.5,0C584.1,276.3,584.5,276.3,585.2,276.3z M583.2,40.1c0.5,0,1,0,1.3,0C584.2,40.1,583.8,40.1,583.2,40.1
		L583.2,40.1z M580.2,40.1c0.2,0.1,0,0.3-0.5,0.3c0.3-0.1-1-0.2-1.7-0.3C578.5,40.1,579.3,40.1,580.2,40.1z M226.4,37.7
		c2.6,0.1,3.9,0.4,5.1,0.7l-4.9,0.2l3.2-0.5c-1.5,0-3.1,0.2-4,0.1C227.2,38,227.1,38,226.4,37.7z M210.8,274.9l3.3-0.5
		c-1.5,0-3.2,0.2-4.2,0.1c1.6-0.3,1.4-0.2,0.7-0.5c2.7,0.1,4,0.4,5.3,0.6L210.8,274.9z M575.2,273.8c0.3-0.1-0.8-0.2-1.6-0.3
		C574.3,273.4,576,273.3,575.2,273.8z M578.9,273.5c0.6,0,0,0,1.3,0C579.9,273.4,579.6,273.5,578.9,273.5z M634.5,275.6
		c0.1,0,0.1,0,0.2,0.1C634.6,275.6,634.5,275.6,634.5,275.6z M680.4,270.3c-0.1,1-0.2,2.1-0.1,3.1c-0.6,0-1-0.1-1-0.4
		c-0.5,0.2-2.6,0.5-4,0.5c2.5-0.8-5.1-0.1-4.4-0.9c-1.8,0.7-6.6,0.3-9.9,0.7c0.2-0.1,0.5-0.2,0.8-0.1c-2.5-0.8,0.6,1-7.5-0.6
		c0.1,0.5-3.9,0.5-3.1,0.9c-1.6-0.3-1.5-0.2-2.2-0.6c0.7,0.6-8.7,0.7-5.4-0.5c-5.6,1.4-2.5-0.2-9.8,0.5c-2.2,0.3,0.1,0.3-9.4,0.4
		c0.3,1,0.4,0.8-2.4,0.7c0.8,0,0.8-0.1,1.2-0.2c-0.6,0-3.4,0.1,0.5-0.4c-0.4,0-9.1,0.7-5.5-0.2l3,0.2c-5.6-2.3,3.1-0.2-22.2,0l1-0.6
		c-3.8-0.1-2.2,0.8-6.2,0.4c-0.6-0.2,1.7-0.7-14.9,0c-3.2-1.1-5.2-0.2-20.2-0.7c-2-0.3-0.9,1.1-2,0.1c-3.8,0.4-10.8,0.8-14.8,0.3
		l0.8-0.1c-3.1-0.2-3.5,0.9-6.4,0.5l0.6-0.1c-7.9-0.3-25.9-0.1-38.6-0.7c-0.1,0-0.7,0.5-5.4,0c3.1,1.2-3.7-0.8-11.3,0.1
		c0.1-0.1,0.7-0.2,1.4-0.3c-2.3,0.3-0.2-0.5-3-0.1c-1.7,0.7,0.1,0.1-7.8,0.2l0.5-0.3c-4.6-0.1-9.7,0.1-14.9,0.1
		c2.3,0.1-3.6,1.6-1.3,0.1c1.2-0.3-2.9,0.7-1.8-0.2c-2.8-0.1,2.1,0.3-34.4,0.2c-4.5,0-5.7,0.1-11.4,0.4c1.2,0.3,0.7,0.7-1,0
		c-6.3,0.6-14.6-1.2-19.7-0.4l0.3,0c-9.9,0.5-6.3,0.1-36.8-0.5l0.3,0.3c-1.3,0.3-1.5-0.2-2.4-0.2c-4.4,1.9-24.4-1.6-39.6,0.4
		l1.4-0.5c-8.1,0.6-16.5-0.1-24.4,0.4c0.5-0.1,0.5-0.3,1.3-0.3c-2.9-0.5,2.2,0.5-11.9-0.2c-1.4,0.1-4.6-0.1-3.6,0.3
		c-3.8,0,1.3-0.4-13.6,0.3c0.2-0.7-5.2-0.6-7.1-0.3c0.6-0.2-1.6-0.2-0.9-0.5c-2.1,0-4.1,0.1-3.7,0.5c-4.3-0.7,0.1-0.6-28,0.3
		c12.4-1.7-5.4,0.6-6.6-0.5c-5.4,0.3-10.4-0.1-15.2,0.3c-0.3,0.2-0.6,0.7-4.1,1.1c1.6-0.9-4.8-0.2-2.2-1.3c-0.6,0.1-1.4,0.2-1.3,0.4
		c-0.9-0.1-1.2-0.2-0.3-0.4c-3.4,0.2-2.2,0.5-5.3,0.5c0-0.1,0.6-0.2,1-0.4c-1.6,0.3-3.1,0.6-5.7,0.4c0.1-0.1-0.1-0.2,0.3-0.2
		c-4.3,0.1-7.4,0.7-12.2,0.4c0.7-0.3,1.2-0.8-4.6-0.6l1.1,0.3c-2.3,0-4.3,0.4-6.3,0.2l1.7-0.2l-4.3,0.1l2.4,0.2
		c-2.3,0.3,0.2,0.7-2.8,0.5c0.6-0.1-2.3,0-3.5-0.3l0,0c-4.6,0.4-1.6-1-10.8,0.1c1.1-0.9-0.7,0.4-1.7-0.5c-3.2-0.1,1,0.7-2.8,0.4
		c0.3,0,0.2-0.1,0.8-0.1c-3.1,0-5.1-0.1-7.1-0.2l1-0.1c-0.2-0.1-0.8-0.4-1.7,0c-3.4-0.2-7.3-0.3-16.7,0.2l0.9,0.1
		c-0.7,0.8-3.7-0.4-6.1,0c0.7-0.8-2.1-0.3-11.3,0.1l0.6-0.2c-2,0.2,0.1-0.8-8.5,0.2c-6.6-1.2-12.6,0.6-18.5-0.4
		c1.9-0.2,0.6-0.2-3.9,0c0.4,0.3,0.7,0.2,1.7,0.5c-0.6,0.2-2,0.4-3.3,0.4c2.2-0.2,0-0.6-1-0.8c0.2,0.1-0.2,0.2-0.1,0.3
		c-2.6-0.6-0.4,0.7-4,0.3l0.2-0.2c1.1-0.2-5.8,0.8-2.5-0.2c-2,0-4,0.7-5.8,0.3c0.9-0.1,2.1-0.1,2.9-0.2c-2-0.5-2.2-0.4-3.7-0.4
		l0.1,0l-3.4-0.2l0.9,0.1c-1.5,0.6-2.9,0.6-2.5-2.4c-0.3-0.9-0.3,0.1-0.5-3.9c-0.5,0.1-1.1,0.5-0.9-1c0,0.3,0.2,0.3,0.3,0.5
		c-0.1-0.4-0.1-1.3,0.5,0.2c0.2,0.5-1.1-4,0.2-2.3l-0.2,1.3c2.3-1.5,0.2,0.1-0.1-9.2l0.7,0.4c0.1-1.6-0.9-0.9-0.5-2.6
		c0.3-0.1,0.8,0.9-0.1-6.2c0.7-1.4,0.5,0.3,0.7-8.4c0.5-0.8-1.3-0.3-0.1-0.8c-0.4-1.6-0.9-4.5-0.4-6.1l0.1,0.3
		c0.2-1.3-1-1.5-0.6-2.6l0.1,0.2c-0.3-3.2,1.1,0.5-0.2-11c-0.3-1.7,1.7,0.1,0.3-5l0.5,0c-0.2,0-0.4-0.7-0.1-2.2
		c-0.6,0.5-0.6,0.6,0.2-2.1l-0.4-2.6c0.2,0,0.2,0.3,0.3,0.6c-0.3-1,0.6-0.1,0.1-1.3c-0.1,0.2-0.3-0.1-0.4-0.1
		c0.3-0.6,0.3-2.1,0.2-3.1l0.4,0.2c0.1-1.8-0.2-3.8-0.2-5.9c-0.3,0.2-1.3-0.3-0.3-0.6c-0.4-0.3-1.1-0.6,0.2-0.3
		c0.3,0.5-0.7-1.5,0.3-0.7c-0.3-0.4,0.5-1.7-0.1-2.3c0.3-2.6,0.3,0.4-1-11.2c0.4-0.1,0.4-1.6,0.7-0.8c-0.1-1.9-0.1-2.4-0.4-4.7
		c-0.3,0.6-0.6,0.1,0-0.4c-0.6-2.6,1.2-6.1,0.3-8.2l0,0.1c-0.3-6-0.3,0,0.3-15.3c-0.5,0-0.5,0.1-0.1-0.9c-2.3-4,1.6,0.5-0.6-16.4
		l0.5,0.6c-0.6-3.3,0-6.8-0.6-10.1c0.1,0.2,0.3,0.2,0.3,0.5c0.4-0.7,0-2.6-0.3-2.6c0.6-1.2,0.4,0.2,0.4-2.2c-0.2-0.5,0-2.1-0.4-1.7
		c0-1.5,0.4,0.4-0.4-5.6c0.7,0.1,0.5-2.2,0.2-2.9c0.2,0.3,0.2-0.7,0.5-0.4c0-0.9-0.1-1.7-0.5-1.5c0.7-2.9,0.4-2.1-0.4-11.6
		c0.2,0.2,0.3,0.4,0.4,0.6c0-0.7-0.1-1.7,0-3.3c-0.3-2.2,0-4.3-0.3-6.3c0.1,0,0.1,0.2,0.2,0.4c0-0.4,0.1-0.9-0.2-0.9
		c-0.1,1,0.1,0.8-1-1.2c0.8,0.7,0.2-2,1.3-0.9C44.1,85.3,44,85,43.8,85c0.1-0.4,0.2-0.5,0.4-0.1c-0.2-1.4-0.5-0.9-0.5-2.2
		c0.1,0,0.2,0.3,0.4,0.4c-0.3-0.6-0.6-1.3-0.4-2.4c0.1,0.1,0.2-0.1,0.2,0.3c-0.1-1.9-0.7-3.2-0.5-5.2c0.3,0.3,0.8,0.4,0.6-1.9
		l-0.3,0.4c0-1-0.4-1.8-0.2-2.6l0.2,0.7l-0.1-1.8l-0.2,1c-0.3-1-0.7,0.1-0.5-1.2c0.1,0.3,0-1,0.3-1.5l0,0c-0.5-2.2,0.9-0.4-0.1-4.5
		c0.8,0.4-0.3-0.2,0.5-0.7c0.1-1.3-0.6,0.4-0.4-1.2c0,0.1,0.1,0.1,0.1,0.3c-0.1-1.7,0-2.4,0.2-3l0.1,0.5c0.1-0.1,0.4-0.4,0-0.7
		c0.2-0.9,0.4-1.7-0.3-6.9l-0.1,0.4c-0.7-0.3,0.3-1.5,0-2.6c0.8-0.4,0.2,0.2-0.1-4.7l0.2,0.3c-0.2-0.4,0.7-1.1-0.3-3.5
		c1-2.7-0.6-5.2,0.3-7.7c0.1-0.4,0.8-0.3,4.8,0.5c5.3-1.1-3.1,0.3,12.5-0.1c0.4,0.6-1.2,0.6,6.1,0.4c-0.1,0.1-0.1,0-0.9,0.2
		c0.3,0.3,0.3,0.5,1-0.2c1.5,0,3.4-0.1,5.7-0.1c-0.2,0.2,5.5,0.4,8.1,0.6l-0.1,0.1c0.5-0.5,3.3-0.4,5.3-0.5
		c-0.1,0.3-0.4,0.4-1.4,0.6c0.2,0,0.6,0.2,4.1-0.3l-0.5,0.4c2.5-0.8,0.1,1.4,8.6-0.8c0.3,0,1.1-0.2,1.6-0.1l-1.4,0.3
		c1.5,0.2,0.8-0.3,2-0.2c0.1,0.4,1.6,0.5-0.8,0.4c1.3,0.1,3,0.3,3.5,0.5c5.9-0.9,1.6,0.8,11.1-0.5c4.7-0.4,0,0,13.4,0.2l0,0.1
		c2.6,0.3,0-0.9,8.9,0.1c1.9-0.1,2.2-0.3,5,0c-2,0.2,0.7,0.2-2,0.2c2.5,0.2,3.1,0.4,5.8,0c-0.9,0.4,1.9,0.5,3.1,0.4l-1.8-0.3
		c1.4,0,2.5,0,3.7,0.1l-0.7,0.5c5.4,0.1,1.8,0.4,23.7-0.1c-0.4-0.8,4.7-0.6,2.6-0.1c-0.2,0-0.3,0.1-0.3,0.1c-0.8,0.4-1.1,0,3.2,0.6
		c1.8-0.1,0.8-0.3-0.6-0.4c3.1,0.3,4.8,0.1,7.9,0.3c2.9,0,4.9-1.8,6.8,0.4c2.9-0.3,5.4,0.3,7,0.4l-1.5,0.1c0.9-0.1,1.6-0.1,2.4-0.1
		l-0.9-0.4c0.9,0.1,1.6,0.1,1.6,0.2c2-0.9,0.2-1,5.1-0.6c-3.4-0.2-0.3,0.4-2.1,0.5c0.5,0,1.1,0,1.2,0.2c3.6,0.5,1.6-0.5,5.3-0.5
		c-0.5,0.3,0.8,0.5,1.5,0.5c-1.2,0,0-0.7,4.5-0.7l-1.4-0.1c0.9-0.6,4.3,0.1,16.3,1c-0.9-0.4-1-0.3,1.1-0.6c2,0.4,4.2,0.7,12.1,0.2
		l-1.5-0.2c0.6-0.3,2.8,0,4.3-0.1c-0.1,0.3,0.8,0.4,1.4,0.6c1.1-0.7-1.5,0.5,13.7-0.8c-1.1,0.3,0.5,0.5-1.9,0.7
		c1.2,0,2.3,0.1,2.3-0.1c0.9,0.1-0.3,0.3,6.5-0.3c0.3-0.1,2-0.2,0.9-0.5c7.2,0.6,3.5,1,21.6,0.8c-0.1,0-0.1,0.1-0.1,0.1
		c7.3-0.2,0,0.2,11.6,0.5l-0.6,0c1.9,0.4,4.7-0.3,7.8-0.2c2.1,0,0,0,9.2-0.5c0,0.1-0.1,0.2-0.1,0.2c0.5-0.3,1.9-0.4,4.7,0.5l-2.5,0
		c1.3,0.6,3.3,0,4.6,0.1l-0.2,0.2c3.9,0,3.9-0.6,8.1-0.5l-0.4-0.2c5.8-0.6,2.4,1.4,12.8,0c-1.5,0.4-4.7,0.6-6.6,0.8
		c1.5,0,5.1,0,5.8-0.3c-0.6,0-1.4,0.2-2,0.1c1.8-0.4,4.2-0.6,7.2-0.6c5.5,2,4.5,0.6,26.4,1.6c-2.2-0.9,1.8,0,1.4-0.9
		c1.4,0,2,0,2.1,0l-0.3,0c0.1,0,0.2,0,0.3,0l0,0c0.9,0,4,0.8,6.4,1.7c-0.4-0.3,1.1-0.5,2.9-0.3l-2.5-0.5c4.4-0.4,3.8,0.8,8.2,0.4
		l-1.4,0.3c2.1,0.4,4.5-0.9,10.5-0.2c5.4,0.2,12-0.6,16.2-0.1l-0.4,0.2c1-0.1,1.8-0.4,3-0.2c0.5,0.5-0.3,0.1,4.1,0l-1.1,0.2
		c5.3,0.4,8.1-0.5,12.5-0.6c0,0.7,4.1,0.9,6.2,1.1l-0.1,0.1c5.1,0.3,4.2-1.1,33.6,0.3c-0.1-0.1-0.3-0.8,4.2-0.4
		c6.3,0.1,15.5,0.8,28.2,0.2l-0.1,0.4c3.7,0.1,5.6,0.2,10.2,0.2l-0.9,0.3c8.7-0.9,4.1-0.5,20-0.4c-0.1,0.1-0.2,0.3-0.9,0.3
		c2.1,0,8.2,0.5,7.5-0.4c0,0.6,4.7,0.1,7.1-0.1l-0.4,0.4c2.2-0.3-0.2-0.4,4.7-0.6c2.3,0.2,1.8-0.4,4.5-0.1l-1,0.3
		c3.8-0.2,1-0.5,10.7,0c4,0.6-0.1-0.5,9,0.3c-2.9,0-5.2-0.1-5.4-0.1c0,0.4,2.5,0.5,0.5,1c2-0.1-0.1-0.3,8.3-0.5l-0.3,0
		c3.4-0.1,1.9,0.2,7.7,0.3c-0.1-0.4,1.5-0.3,0.1-0.7c-0.1,0-0.9,0-1.7,0.1c0,0,0.1,0,0.1,0c-0.8,0-1.9,0-3.1,0
		c5.2-0.7,13,0.5,23.5,0c0.8-0.2,2.3-0.5,7.7,0l-0.5,0.2c7.4,0.9,12.1-1.3,20.3-0.1c-0.6-0.1-0.9-0.1-1-0.2
		c9.2,0.6,27.1,0.1,42.1,0.4c-0.1,0.7-0.2,2.1-0.4,2.9l-0.1,0c0.6,0.2,0.4,1.3,0.6,2.2c-0.3,0-0.4-0.2-0.6-0.6
		c0,0.1-0.2,0.3,0.3,1.6l-0.4-0.2c0,1,0.5,2,0.2,3.3c0.1,0,0.4,0.1,0.7,0.2c0,0.1,0.1,0.4,0,0.5l-0.3-0.6c0.1,0.2,0,1.8-0.2,0.5
		c-0.1,0.5-0.2,1.2-0.5,1.4c1,1.7-0.8,1.7,0.6,4.5c0.5,1.9,0,0,0,5.4l-0.1,0c-0.3,0.6,0.9,0.9,0,3.6c0.1,0.8,0.3,0.9,0,2
		c-0.3-0.8-0.2,0.3-0.2-0.8c-0.1,1-0.4,1.3,0,2.3c-0.4-0.4-0.5,0.8-0.4,1.3l0.3-0.7c0.1,0.5,0,1,0,1.5l-0.5-0.3
		c-0.2,2.2,0,4.7,0.5,9.6c0.7-0.2,0.8,2,0.1,1c0-0.1,0-0.1-0.1-0.1c-0.4-0.3,0-0.5-0.6,1.3c0.2,0.7,0.3,0.3,0.4-0.2
		c-0.3,1.2,0,1.9-0.2,3.2c0.3-0.3,1.4,3.7-0.3,2.8c0.3,1.2-0.2,2.2-0.3,2.8l-0.1-0.6c0.1,0.4,0.1,0.7,0.1,1l0.4-0.3
		c-0.1,0.4-0.1,0.7-0.2,0.7c0.5,0.7,1.2-0.1,0.6,2.1c0.1-1.4-0.4-0.1-0.5-0.9c0,0.2,0,0.5-0.2,0.5c-0.4,1.4,0.5,0.7,0.5,2.1
		c-0.3-0.2-0.5,0.3-0.4,0.6c0-0.5,0.7,0,0.8,1.8l0.1-0.6c0.8,1-0.4,2.5-0.8,6.6c0.4-0.4,0.3-0.4,0.6,0.4l-0.3-2l0.5,1.3
		c0-0.6-0.2-1.3-0.2-1.6c0.3,0.6,0.2,0.5,0.5,0.3c-0.1,3-1.7,1.3-0.7,7l0.2-0.6c0.4,0.2,0.1,1.1,0.2,1.7c-0.3-0.1-0.4,0.3-0.6,0.6
		c0.2,0,0,1.4,0.6,1.5c-0.5,1.7-0.7,0.8,0.4,4c-0.3-0.4-0.5,0.2-0.8-0.7c0,0.5-0.1,0.9,0.2,0.9c-0.2,0,0.1,1.4,0.4,2.6
		c0.1,0,0.2,0.8,0.5,0.4c-0.6,1.7-0.6-0.1-0.4,8.7c0,0-0.1,0-0.1,0c0.3,3-0.2,0-0.3,4.7l-0.1-0.2c-0.3,0.8,0.4,1.9,0.3,3.1
		c0.1,0.9,0,0,0.7,3.7c-0.1,0-0.2,0-0.3-0.1c0.3,0.2,0.6,0.7-0.4,1.9l0-1c-0.5,0.5,0,1.3-0.1,1.9l-0.2-0.1c0.1,1.6,0.7,1.6,0.7,3.3
		l0.2-0.2c0.6,0.9-0.3,0.8,0.1,1.7c-0.9,0.8-0.6-0.1,0.1,3.5c-0.4-0.6-0.7-1.9-0.9-2.7c0,0.6,0.1,2,0.4,2.4
		c-0.1-0.2-0.2-0.5-0.1-0.8c0.5,0.7,0.7,1.7,0.7,2.9c-1,0.8-0.6-0.9-1.2,10.7c0.9-0.9,0,0.7,0.9,0.6c0.1,0.6,0.1,0.8,0,0.8l0-0.1
		c0,0.1,0,0.1,0,0.1l0,0c-0.2,0.9-0.7,1.5-1.6,2.6c0.3-0.2,0.5,0.4,0.4,1.2l0.4-1c0.5,1.8-0.8,1.5-0.3,3.3l-0.3-0.6
		c-0.2,0.9,0.8,0.1,0.3,4.2c-0.1,2.2,0.8,4.8,0.4,6.5l-0.2-0.2c0.3,1.2-0.2,0.6,0.2,2.9l-0.3-0.5c-0.3,2.1,0.6,3.3,0.8,5
		c-0.7,0-0.9,1.7-1,2.5l-0.1,0c-0.4,3.4,1.4,0.1,0.2,13.6c0.1-0.1,0.8,0.4,0.5,1.7c0-0.3-1.4,1.6,0.4,2.5c-0.8,2.4-0.7-0.2-0.1,8.9
		c-1,1-0.2,0-0.4,4.1l-0.3-0.4c1.1,3.3,0.6,1.4,0.7,8.1c-0.1,0-0.3-0.1-0.3-0.4c0,0.9-0.4,3.3,0.5,3c-0.6,0,0,1.9,0.2,2.9l-0.4-0.2
		c0.2,0.1,0.8,1.4,0.6,1.9c-0.2,0.9,0.4,0.7,0.2,1.8l-0.3-0.4c0,1.5,1,0.9,0,3.3c0.1,0.1,0.6,1.4,0.1,1c-0.5,1.6,0.5-0.1-0.1,3.6
		c0-1.3,0-2.3,0-2.2c-0.4,0-0.4,1-1,0.2c0.1,0.8,0.3-0.1,0.6,3.3l0-0.1c0.1,1.4-0.2,0.8-0.2,3.1c0.4,0,0.4,0.6,0.7,0
		c0,0.2,0-0.2-0.1-0.6l0,0c0-0.3,0-0.8,0-1.3c1.3,3.7-0.7,0.4,0.2,9.6c-0.1-0.3-0.1-0.6-0.2-0.7c-0.2,0.2,1,1.7,0.2,3.7l-0.2-0.2
		c-0.9,3,1.4,4.9,0.3,8.2C680.2,270.4,680.3,270.3,680.4,270.3z M44.5,245.2c-0.2,0.1-0.3,0-0.3-0.2c0.1,0.1,0.2-0.4,0.3-0.7
		C44.5,244.5,44.5,244.9,44.5,245.2z M44.5,246.5c0,0.2,0,0,0,0.6C44.5,247,44.5,246.8,44.5,246.5z M587.8,42.9
		c0.4-0.1,0,0.1,1.6-0.1C588.6,43.2,588.9,43.1,587.8,42.9z M679.4,251.1c-0.2-0.2-0.3-0.2-0.1-0.6
		C679.4,250.6,679.2,250.5,679.4,251.1z M681.5,297.4c0,0-0.1,0-0.1,0C681.4,297.4,681.4,297.4,681.5,297.4z M681.5,297.4
		C681.5,297.4,681.5,297.4,681.5,297.4c0,0,0,0-0.1,0C681.6,297.4,681.5,297.4,681.5,297.4z M681.2,297.4
		C681.1,297.4,681.2,297.4,681.2,297.4C681.1,297.4,681.1,297.4,681.2,297.4z M681.1,297.3C681.1,297.3,681.1,297.3,681.1,297.3
		C681.1,297.3,681.1,297.3,681.1,297.3L681.1,297.3C681.1,297.3,681.1,297.3,681.1,297.3z M680.8,296.7
		C680.8,296.7,680.8,296.7,680.8,296.7C680.8,296.7,680.8,296.7,680.8,296.7C680.8,296.7,680.8,296.7,680.8,296.7z M680.7,296.9
		C680.8,296.9,681,296.9,680.7,296.9C680.7,296.9,680.7,296.9,680.7,296.9z M680.7,296.9C680.8,296.9,680.9,296.9,680.7,296.9
		C680.7,297,680.7,296.9,680.7,296.9z M680.7,297C680.7,297,680.7,297,680.7,297C680.7,297,680.7,297,680.7,297
		C680.7,297,680.7,297,680.7,297z M680.6,297.1C680.9,297.1,680.8,297.1,680.6,297.1C680.6,297.1,680.6,297.1,680.6,297.1z
		 M680.6,297.3C680.6,297.3,680.6,297.3,680.6,297.3C680.6,297.3,680.6,297.3,680.6,297.3C680.6,297.3,680.6,297.3,680.6,297.3z
		 M680.6,297.3C680.6,297.3,680.6,297.3,680.6,297.3C680.6,297.3,680.6,297.3,680.6,297.3z M680.6,297.4c0,0,0.2-0.1,0.3-0.1
		C680.8,297.3,680.7,297.4,680.6,297.4z M680.9,297.3c0,0,0,0,0.2,0C681,297.2,681,297.3,680.9,297.3z M681.1,297.3
		C681.1,297.3,681,297.3,681.1,297.3C681.1,297.3,681,297.3,681.1,297.3C681.1,297.3,681.1,297.3,681.1,297.3z M681,297.5
		c0,0,0.2,0,0.7-0.1C681.5,297.4,681.3,297.5,681,297.5z M682.7,295.5c0.1,0,0.1,0,0.2,0l0,0C682.9,295.5,682.9,295.5,682.7,295.5z
		 M682.7,295.4L682.7,295.4C682.8,295.4,683,295.5,682.7,295.4L682.7,295.4C682.7,295.4,682.7,295.4,682.7,295.4
		c0-0.1,0.1-0.1,0.1-0.1c0,0-0.1,0-0.1,0c0.1,0,0.3,0,0-0.1c0.1,0,0.2,0,0.3-0.1C682.9,295.3,683.1,295.5,682.7,295.4z M682.9,294.8
		C682.9,294.7,683,294.8,682.9,294.8L682.9,294.8z M682.9,294.8C682.9,294.8,682.9,294.8,682.9,294.8L682.9,294.8L682.9,294.8z
		 M682.8,294.9C682.8,294.9,682.8,294.9,682.8,294.9C682.8,294.9,682.8,294.9,682.8,294.9c0.1,0,0.1-0.1,0.1-0.1c0,0,0,0.1,0,0.1
		l0,0c0,0,0,0-0.2,0C682.7,295,682.7,295,682.8,294.9z M682.9,295L682.9,295c-0.1,0-0.2,0.1-0.3,0.1
		C682.8,295,682.6,295.1,682.9,295z M682.9,295c0,0.1,0.1,0.1-0.3,0.2l0,0C682.8,295.1,682.7,295.1,682.9,295z M683.1,273.5
		c0.1-0.4,0-0.1,0.3,0C683.3,273.5,683.4,273.5,683.1,273.5z"/>
	<path class="st0" d="M679.3,141.8C679.1,141.6,678.9,141.7,679.3,141.8L679.3,141.8z"/>
	<path class="st0" d="M648.9,272.8c0.1,0,0.1,0,0.1,0.1C649,272.9,648.9,272.8,648.9,272.8z"/>
	<path class="st0" d="M623.7,273.4C623.7,273.4,623.7,273.4,623.7,273.4C623.7,273.4,623.8,273.4,623.7,273.4z"/>
	<path class="st0" d="M680.6,297.4c0,0,0,0,0.1,0c0,0,0,0,0,0C680.7,297.4,680.6,297.4,680.6,297.4z"/>
	<path class="st0" d="M683.4,278c-0.1-0.1-0.2-0.1-0.3-0.2C683.2,277.9,683.3,278,683.4,278z"/>
	<path class="st0" d="M677.8,95c0,0.1,0,0.2,0,0.2C677.8,95.1,677.8,94.9,677.8,95z"/>
	<path class="st0" d="M678.7,52.1C678.7,52.1,678.7,52.1,678.7,52.1C678.7,52.1,678.6,52.1,678.7,52.1z"/>
	<path class="st0" d="M678.6,47.3C678.6,47.3,678.6,47.3,678.6,47.3C678.6,47.3,678.6,47.3,678.6,47.3z"/>
	<path class="st0" d="M682.9,295l-0.1,0C682.8,295,682.9,295,682.9,295z"/>
	<path class="st0" d="M679.7,243C679.7,243,679.7,243,679.7,243C679.7,242.9,679.7,242.9,679.7,243z"/>
	<path class="st0" d="M590.9,42.5c-0.2,0-0.3-0.1-0.5-0.1c-0.1,0-0.2,0.1-0.3,0.1C590.2,42.5,590.3,42.5,590.9,42.5z"/>
	<path class="st0" d="M112.9,36.4c-0.1,0-0.2,0-0.2-0.1C112.8,36.3,112.7,36.3,112.9,36.4z"/>
	<polygon class="st0" points="505.1,38.5 505.1,38.6 505.6,38.5 	"/>
	<path class="st0" d="M83.8,34.6c-0.1,0-0.2-0.1-0.4-0.1C83.4,34.5,83.6,34.5,83.8,34.6z"/>
	<path class="st0" d="M71.2,34.3l-1.8-0.2C70.2,34.3,70.8,34.3,71.2,34.3z"/>
	<path class="st0" d="M61.6,34c-0.1,0.1-0.2,0.1-0.2,0.2C61.4,34.2,61.4,34.2,61.6,34z"/>
	<path class="st0" d="M214.9,35.3c0.1,0,0.3,0,0.4,0C216.1,35.2,215.5,35.2,214.9,35.3z"/>
	<path class="st0" d="M169.3,35.7c0.5-0.1,1-0.1,1.5-0.2C169.9,35.5,169.3,35.5,169.3,35.7z"/>
	<path class="st0" d="M265.8,35.4C265.8,35.4,265.8,35.4,265.8,35.4c0.1,0,0.2,0,0.3,0L265.8,35.4z"/>
	<path class="st0" d="M172.8,35.6c-0.8-0.1-1.5-0.1-2.1,0C171.4,35.6,172.2,35.6,172.8,35.6z"/>
	<path class="st0" d="M19.3,33.4C19.4,33.4,19.3,33.5,19.3,33.4l0.5,0L19.3,33.4z"/>
	<path class="st0" d="M18.8,33.5c0.2,0,0.4,0,0.5,0L18.8,33.5z"/>
	<path class="st0" d="M17.7,33.6l1.1-0.1C18.4,33.5,17.9,33.5,17.7,33.6z"/>
	<path class="st0" d="M36.4,33.7c-0.8,0.1-0.1-0.2-2.8-0.2C34.6,33.7,35.8,33.9,36.4,33.7z"/>
	<path class="st0" d="M32.7,33.6c0.3,0,0.6,0,0.9,0C33.2,33.5,32.9,33.5,32.7,33.6z"/>
	<path class="st0" d="M49.2,36.1c4.1,0.5-0.8-0.4,3.4-0.3l-3.2-0.2C49.9,35.8,50.7,36,49.2,36.1z"/>
	<path class="st0" d="M62.7,36.1c-1.7,0.1,0,0.2-0.1,0.3C63.7,36.3,64,36.3,62.7,36.1z"/>
	<path class="st0" d="M135.5,36.9l-0.2,0.4C136.7,37.3,135.3,37.2,135.5,36.9z"/>
	<path class="st0" d="M159.3,37.9l-0.1,0C159.3,37.9,159.4,37.9,159.3,37.9z"/>
	<path class="st0" d="M159.2,37.9c-0.3,0-1,0-2.1,0.1L159.2,37.9z"/>
	<path class="st0" d="M280,39.3l-0.4-0.5C278.6,38.9,278.4,39.4,280,39.3z"/>
	<path class="st0" d="M335.7,39.7c-1.2,0-2.4-0.2-3-0.2C333.3,39.7,334.8,39.9,335.7,39.7z"/>
	<path class="st0" d="M490,42.3l1.9-0.1C491.9,42.1,491.8,42,490,42.3z"/>
	<path class="st0" d="M492,42.2L492,42.2C491.9,42.2,491.9,42.2,492,42.2z"/>
	<path class="st0" d="M13.9,270.4l-0.6,0.6C13.9,270.8,16.1,270.4,13.9,270.4z"/>
	<path class="st0" d="M13.3,271L13.3,271C13.1,271,13.1,271,13.3,271z"/>
	<path class="st0" d="M94,273.6l-0.7-0.1C93.5,273.6,93.8,273.6,94,273.6z"/>
	<path class="st0" d="M168,274.7c-0.2,0-0.4,0-0.6,0C167.6,274.7,167.8,274.7,168,274.7z"/>
	<path class="st0" d="M94,273.6l1.7,0.2C95.8,273.6,94.8,273.7,94,273.6z"/>
	<path class="st0" d="M5.2,271.5c0,0,0.1,0,0.1,0C5.3,271.5,5.3,271.5,5.2,271.5z"/>
	<path class="st0" d="M6.1,271.4c-0.3,0-0.6,0.1-0.8,0.1C5.4,271.5,5.4,271.6,6.1,271.4z"/>
	<path class="st0" d="M65.2,274.1l0.9-0.2C66,273.9,65.7,273.8,65.2,274.1z"/>
	<path class="st0" d="M66.2,273.9L66.2,273.9C66.2,274,66.2,274,66.2,273.9z"/>
	<path class="st0" d="M10.9,273.1l-0.6,0.1C10.5,273.1,10.7,273.1,10.9,273.1z"/>
	<path class="st0" d="M81.7,274.2c0-0.1-0.1-0.1-0.2-0.2C81.5,274.1,81.6,274.2,81.7,274.2z"/>
	<path class="st0" d="M679.3,273C679.2,273,679.3,273,679.3,273C679.4,273,679.4,273,679.3,273z"/>
	<path class="st0" d="M703.6,275.4l0.4-0.2C703.9,275.1,703.6,275,703.6,275.4z"/>
	<path class="st0" d="M704,275.1L704,275.1C704,275.1,704.1,275.1,704,275.1z"/>
	<path class="st0" d="M187.7,275.3C187.7,275.3,187.7,275.3,187.7,275.3C187.1,275.3,187.4,275.3,187.7,275.3z"/>
	<path class="st0" d="M368.9,275.6c-2.1-0.4,3.3-0.5,0.3-0.9C369.5,274.9,366.4,275.4,368.9,275.6z"/>
	<path class="st0" d="M233.2,275.2c-0.1-0.1-0.3-0.1-0.5-0.2C232.8,275.1,232.9,275.1,233.2,275.2z"/>
	<path class="st0" d="M199.3,274.5l0.8,0.1C199.8,274.5,199.6,274.5,199.3,274.5z"/>
	<path class="st0" d="M251.2,274.7c0.2,0,0.4,0,0.9,0C251.7,274.6,252,274.7,251.2,274.7z"/>
	<path class="st0" d="M268.2,274.7l0.9,0.1C268.9,274.7,269,274.6,268.2,274.7z"/>
	<path class="st0" d="M623.6,273c0.4,0.1,0.7,0.3,0.8,0.4C624.2,273.1,626.9,273,623.6,273z"/>
	<path class="st0" d="M6.1,271.6c0.1-0.1,0.2-0.1,0.5-0.2C6.4,271.4,6.1,271.3,6.1,271.6z"/>
	<path class="st0" d="M6.7,271.4C6.7,271.4,6.6,271.4,6.7,271.4C6.7,271.4,6.7,271.4,6.7,271.4z"/>
	<path class="st0" d="M251.6,271.4l2.9,0.1C253.7,271.4,252.6,271.4,251.6,271.4z"/>
	<path class="st0" d="M492.9,272.5c-0.3,0-0.5,0-0.7,0L492.9,272.5z"/>
	<path class="st0" d="M265.1,271.6l-2-0.2C263.5,271.4,263.3,271.7,265.1,271.6z"/>
	<path class="st0" d="M0.1,272l0-0.2C0,271.7,0,271.7,0.1,272z"/>
	<path class="st0" d="M0.1,272.7C0.1,272.7,0.1,272.7,0.1,272.7l0,0.6C0.2,273.2,0.1,273.2,0.1,272.7z"/>
	<path class="st0" d="M0.1,272.5l0,0.1C0.1,272.7,0.1,272.6,0.1,272.5z"/>
	<path class="st0" d="M0,272.5l0,0.1C0,272.7,0.2,272.6,0,272.5z"/>
	<path class="st0" d="M0,271.5l0,0.2c0.4-0.1,1.1-0.2,1.5-0.3C1.1,271.5,0.6,271.5,0,271.5z"/>
	<path class="st0" d="M186.5,275.1c-0.2,0-0.5,0-0.7,0C186.1,275.2,186.3,275.2,186.5,275.1z"/>
	<path class="st0" d="M0.2,273.4c0.1,0,0,0,0-0.2c0,0,0,0,0,0L0.2,273.4z"/>
	<path class="st0" d="M1.7,272.7L1.7,272.7C1.7,272.7,1.7,272.7,1.7,272.7z"/>
	<path class="st0" d="M0,272c0,0,0,0,0.1,0.6L0,272C0,272,0,272,0,272z"/>
	<path class="st0" d="M586.8,275.8c-0.1,0.1-0.2-0.2-0.8,0c0.2,0,0.3,0,0.5,0C586.6,275.9,586.7,275.8,586.8,275.8z"/>
	<path class="st0" d="M93.4,273.6c-0.1,0-0.2,0-0.2-0.1C93.2,273.5,93.1,273.6,93.4,273.6z"/>
	<polygon class="st0" points="498.3,272.4 498.3,272.5 498.8,272.4 	"/>
	<path class="st0" d="M63.3,272c-0.1,0-0.2-0.1-0.4-0.1C62.9,271.9,63.1,272,63.3,272z"/>
	<path class="st0" d="M50.3,271.9l-1.8-0.2C49.3,271.8,49.9,271.8,50.3,271.9z"/>
	<path class="st0" d="M40.4,271.6c-0.1,0.1-0.2,0.1-0.2,0.2C40.2,271.8,40.2,271.8,40.4,271.6z"/>
	<path class="st0" d="M198.6,271.7c0.1,0,0.3,0,0.4,0C199.9,271.6,199.3,271.6,198.6,271.7z"/>
	<path class="st0" d="M151.6,272.5c0.5-0.1,1-0.1,1.5-0.2C152.2,272.3,151.6,272.3,151.6,272.5z"/>
	<path class="st0" d="M251.2,271.3C251.2,271.3,251.2,271.3,251.2,271.3c0.1,0,0.2,0,0.3,0L251.2,271.3z"/>
	<path class="st0" d="M155.3,272.3c-0.8-0.1-1.5-0.1-2.2,0C153.8,272.3,154.6,272.4,155.3,272.3z"/>
	<path class="st0" d="M3.4,273.3C3.4,273.2,3.4,273.2,3.4,273.3L3,273.3L3.4,273.3z"/>
	<path class="st0" d="M4,273c-0.2,0-0.4,0.1-0.5,0.2L4,273z"/>
	<path class="st0" d="M4,273c0.4-0.1,0.9-0.2,1.1-0.3L4,273z"/>
	<path class="st0" d="M10.7,271.3l-0.1,0.1c0.6-0.2,2.9,0.4,3.9,0.1C13.5,271.5,12,271.2,10.7,271.3z"/>
	<path class="st0" d="M27.6,273.7c4.2,0.5-0.9-0.4,3.5-0.3l-3.4-0.1C28.4,273.5,29.1,273.7,27.6,273.7z"/>
	<path class="st0" d="M116.7,274l-0.2,0.4C117.9,274.3,116.6,274.2,116.7,274z"/>
	<path class="st0" d="M131.1,272L131.1,272C131.1,272.1,131.1,272.1,131.1,272z"/>
	<path class="st0" d="M141.3,274.7l-0.1,0C141.3,274.7,141.3,274.7,141.3,274.7z"/>
	<path class="st0" d="M141.2,274.7c-0.3,0-1,0-2.2,0.1L141.2,274.7z"/>
	<path class="st0" d="M265.9,275.1l-0.4-0.5C264.5,274.7,264.3,275.2,265.9,275.1z"/>
	<path class="st0" d="M320.4,274.8c0.6,0.2,2.1,0.4,3.1,0.2C322.2,274.9,321,274.7,320.4,274.8z"/>
	<path class="st0" d="M484.8,276.2L484.8,276.2C484.7,276.2,484.7,276.2,484.8,276.2z"/>
	<path class="st0" d="M482.7,276.3l2-0.1C484.7,276.1,484.6,276,482.7,276.3z"/>
	<path class="st0" d="M680.3,297.8c0.1,0,0.8-0.1-0.1,0L680.3,297.8z"/>
	<path class="st0" d="M680.1,297.8c0,0,1.2-0.2,0.5-0.1c0.4,0,0.4,0,0.3-0.1c0.1,0,0.2,0,0.3-0.1C681,297.7,680.6,297.7,680.1,297.8
		z"/>
	<path class="st0" d="M680.2,297.7c0,0,0,0-0.1,0C680.1,297.7,680.1,297.7,680.2,297.7z"/>
	<path class="st0" d="M683.2,296.4C683.2,296.4,683.2,296.4,683.2,296.4C683.2,296.4,683.2,296.4,683.2,296.4z"/>
	<path class="st0" d="M679.1,294.9c0.1,0,0.2,0,0.4-0.1C679.2,294.9,679.1,294.9,679.1,294.9z"/>
	<path class="st0" d="M680.1,297.7c0.1,0,0,0,0.2,0C680.2,297.7,680.1,297.7,680.1,297.7z"/>
	<path class="st0" d="M679.3,296.6c-0.1,0,0,0-0.3,0.1C679.2,296.6,679.2,296.6,679.3,296.6z"/>
	<path class="st0" d="M679.1,295.5c0,0,0,0-0.1,0L679.1,295.5z"/>
	<path class="st0" d="M680.4,297.5l-0.1,0C680.3,297.5,680.3,297.5,680.4,297.5z"/>
	<path class="st0" d="M680.3,297.5l-0.2,0C680.2,297.5,680.2,297.6,680.3,297.5z"/>
	<path class="st0" d="M679.6,296.9C679.6,296.9,679.5,296.9,679.6,296.9C679.5,296.9,679.5,296.9,679.6,296.9z"/>
	<polygon class="st0" points="679,296.7 679,296.7 679,296.7 	"/>
	<path class="st0" d="M680.1,297.8L680.1,297.8C680.1,297.8,680.1,297.8,680.1,297.8z"/>
	<path class="st0" d="M680.1,297.8c0,0,0,0,0.1,0L680.1,297.8z"/>
	<path class="st0" d="M680,297.7c-0.2,0,0.3-0.1,0.1,0C680.1,297.7,679.8,297.8,680,297.7z"/>
	<path class="st0" d="M680.1,297.7C680.2,297.7,680.2,297.7,680.1,297.7C680.2,297.7,680.2,297.7,680.1,297.7z"/>
	<path class="st0" d="M680.9,17.2l-0.1-0.6C681,16.4,679.8,16.7,680.9,17.2z"/>
	<path class="st0" d="M681,20c0-0.3-1.3-0.7-0.5-1.7c-0.6-1.1,0.2-0.6-0.6,1C680.1,19.8,680.5,20.3,681,20z"/>
	<path class="st0" d="M678.2,88c0-0.1,0-0.2,0-0.2C678.2,87.9,678.2,88,678.2,88z"/>
	<path class="st0" d="M679,59.1l-0.2,0.7C679,59.8,678.9,59.4,679,59.1z"/>
	<path class="st0" d="M680.9,24.4C680.9,24.4,680.9,24.5,680.9,24.4C680.9,24.5,680.9,24.4,680.9,24.4z"/>
	<path class="st0" d="M681,24.8c0-0.1-0.1-0.2-0.1-0.3C680.9,24.5,680.9,24.6,681,24.8z"/>
	<path class="st0" d="M678.4,47.9l0.2,0.4C678.5,48.2,678.7,48.1,678.4,47.9z"/>
	<path class="st0" d="M679.3,26.6c0-0.1,0-0.2-0.1-0.2L679.3,26.6z"/>
	<path class="st0" d="M683.2,287.8C683.2,287.7,683.1,287.8,683.2,287.8C683.2,287.8,683.2,287.8,683.2,287.8z"/>
	<path class="st0" d="M677.7,95.7C677.7,95.7,677.7,95.7,677.7,95.7C677.7,95.5,677.7,95.6,677.7,95.7z"/>
	<path class="st0" d="M678.5,166.5c0.4-0.8,0.5,1.3,0.9,0.1C679.3,166.7,678.8,165.5,678.5,166.5z"/>
	<path class="st0" d="M681,25c0,0.1,0,0.2,0,0.3C681,25.2,681,25.1,681,25z"/>
	<path class="st0" d="M678.1,113.5c0.1,0,0.1-0.1,0.2-0.2C678.2,113.3,678.1,113.4,678.1,113.5z"/>
	<path class="st0" d="M678.7,120.4c0,0.2-0.1,0.2,0,0.5C678.7,120.7,678.7,120.8,678.7,120.4z"/>
	<path class="st0" d="M678.7,127.5c0-0.1,0.1,0,0.1-0.4L678.7,127.5z"/>
	<path class="st0" d="M682.5,266.3c0.3-0.1,0.4,0.9,0.4-0.3C682.8,266.2,682.6,266.3,682.5,266.3z"/>
	<path class="st0" d="M680.8,24.8c0.1,0,0.2,0.1,0.2,0.2C680.9,25,681.1,24.7,680.8,24.8z"/>
	<path class="st0" d="M682,120.6l-0.1,1.1C682,121.5,682,121.1,682,120.6z"/>
	<path class="st0" d="M681.9,125.9l0.2-0.8C682.1,125.3,681.7,125.3,681.9,125.9z"/>
	<path class="st0" d="M679.8,251.7c0-0.1,0.1-0.1,0.1-0.2c0,0-0.1-0.1-0.1-0.1C679.8,251.4,679.7,251.4,679.8,251.7z"/>
	<path class="st0" d="M679,58.9C679,58.8,679.1,58.8,679,58.9C679.1,58.8,679.1,58.8,679,58.9z"/>
	<path class="st0" d="M679.1,58.8C679.1,58.8,679.1,58.8,679.1,58.8C679.1,58.8,679.1,58.8,679.1,58.8z"/>
	<polygon class="st0" points="682.7,217 682.6,217 682.7,217.2 	"/>
	<path class="st0" d="M680.6,47c0,0-0.1,0.1-0.1,0.2C680.5,47.1,680.6,47,680.6,47z"/>
	<path class="st0" d="M680.8,38.2c-0.1,0,0,0-0.2-0.1C680.6,38.1,680.6,38.1,680.8,38.2z"/>
	<path class="st0" d="M681.4,100c0,0.1,0,0.1,0,0.1C681.5,100.5,681.5,100.2,681.4,100z"/>
	<path class="st0" d="M680.3,81.6c0.1,0.2,0.2,0.4,0.2,0.6C680.6,81.9,680.6,81.6,680.3,81.6z"/>
	<path class="st0" d="M682,120.5L682,120.5c0,0,0,0.1,0,0.1L682,120.5z"/>
	<path class="st0" d="M680.5,83c0.1-0.3,0.1-0.6,0-0.9C680.5,82.5,680.5,82.8,680.5,83z"/>
	<path class="st0" d="M681.1,21.1C681.1,21.1,681.1,21.1,681.1,21.1l0,0.2L681.1,21.1z"/>
	<path class="st0" d="M681,20.9c0,0.1,0,0.2,0,0.2L681,20.9z"/>
	<path class="st0" d="M681,20.9c0-0.2,0-0.3-0.1-0.4L681,20.9z"/>
	<path class="st0" d="M680.9,28c-0.1-0.3,0.2-0.1,0.1-1.1C681,27.3,680.7,27.8,680.9,28z"/>
	<path class="st0" d="M681,26.5c0,0.1,0,0.3,0,0.4C681.1,26.7,681.1,26.6,681,26.5z"/>
	<path class="st0" d="M679,34.6l0.1-1.3c-0.2,0.2-0.4,0.5-0.4-0.1C678.2,34.8,679.1,32.8,679,34.6z"/>
	<path class="st0" d="M678.7,38.6c-0.1-0.7-0.2,0-0.3,0C678.6,39,678.6,39.1,678.7,38.6z"/>
	<path class="st0" d="M678.7,68l-0.4-0.1C678.4,68.5,678.5,67.9,678.7,68z"/>
	<path class="st0" d="M680.7,73.6L680.7,73.6C680.6,73.6,680.6,73.6,680.7,73.6z"/>
	<path class="st0" d="M677.9,76.7l0.1,0.9C678,77.4,678,77.2,677.9,76.7z"/>
	<path class="st0" d="M678.1,77.5C678.1,77.6,678.1,77.6,678.1,77.5L678.1,77.5z"/>
	<path class="st0" d="M678.8,126.1c-0.1-0.4-0.6-0.4-0.5,0.2L678.8,126.1z"/>
	<path class="st0" d="M679,147.6c-0.2,0.2-0.4,0.8-0.1,1.2C678.9,148.3,679.1,147.8,679,147.6z"/>
	<polygon class="st0" points="678.8,211.4 678.7,211 678.8,211.8 	"/>
</g>
</svg>
